<svg height="800pt" preserveAspectRatio="xMidYMid meet" viewBox="0 0 709 800" width="709pt" xmlns="http://www.w3.org/2000/svg"><g transform="matrix(.1 0 0 -.1 0 800)"><path d="m4109 7436c5-12 11-280 13-594 2-452 5-565 15-539l11 32 1-28c1-15-8-45-19-66-16-32-33-46-92-74-40-19-82-43-93-52-19-16-19-16 15-11 135 21 133 20-35-34-139-45-269-111-376-193-51-38-89-62-86-53 8 20 0 20-20 1-20-21-30-11-12 12 10 12 4 10-18-5l-33-23 25 49c29 57 30 66 12 59-8-3-20-2-27 3-8 5-26-6-51-31-42-42-59-49-59-23 0 8-4 12-10 9-5-3-10-15-10-26 0-12-21-34-57-59-32-23-92-64-133-93s-91-62-110-72c-19-11-44-27-55-37-11-9-44-33-74-52-40-27-57-34-66-26-10 8-15 6-20-9-3-12-4-24-2-28 3-5-1-13-8-20-10-10-14-9-19 3-4 10-2 13 6 8 7-5 9-2 6 7-3 8 0 29 8 47 10 25 19 32 40 32 14 0 43 13 63 28 20 16 88 64 151 107 166 113 258 183 270 205 6 11 20 20 31 20s36 12 56 27c30 23 38 25 55 14 16-10 24-9 46 6 28 18 93 53 100 53 2 0 1-11-2-25-4-14-4-25 0-25 15 0 105 55 95 58-6 2-11 11-11 19 0 11-5 13-17 8-44-18-61-17-68 5-4 12-2 27 4 33 8 8 11 4 11-15 0-26 1-26 30-12 32 16 48 34 31 34-6 0-11 5-11 10 0 6 7 10 15 10s15-5 15-12c0-6 7-3 16 8 14 18 15 15 11-33l-4-52 209 105c260 131 243 105 243 364 0 371-6 724-13 713-4-6-6 41-4 105 2 65-1 112-5 105-5-6-53-18-108-26-115-18-132-23-161-49-24-22-22-67 2-48 23 20 34-23 34-127v-99l-33-12c-48-17-102-15-185 8-87 24-82 24-82 2 0-10-5-23-10-28-8-8 3-22 35-49 37-30 45-43 43-64-2-18-10-27-25-29-13-2-23 1-23 7 0 20-17 11-28-14-8-17-8-33-1-55 10-26 16-30 50-30 26 0 44 7 57 20 11 12 26 18 34 15 9-4 19-2 23 4 3 6 17 11 31 11 24 0 24 2 24 85 0 47 4 85 9 85 12 0 20-120 10-147-7-20-5-23 14-23 34-1 58-42 56-97s16-241 31-323c23-121 23-126 6-142-9-9-16-21-16-27 0-5-16-15-36-21-37-12-42-37-6-32 11 2 23-2 27-8 3-5-2-10-12-10s-27-7-37-15c-28-21-36-19-36 11 0 38 18 64 43 64 37 0 44 15 36 83-4 34-10 103-14 153l-7 91-39-7c-32-6-41-4-53 14l-15 21v-21c-1-13-9-24-21-27-11-3-20-13-20-22 0-13-8-16-32-13-50 4-67 41-25 52 13 3 32 21 43 41 11 21 24 33 32 30s31-5 53-5c30 0 37-3 33-15-4-8-1-15 5-15s11 7 11 16c0 8 4 13 9 9 5-3 12-1 15 3 13 21-71 45-168 50-95 4-99 4-82-13 9-10 16-18 14-20-2-1-13-8-25-14-18-9-22-9-18 2 4 10-10 11-67 5-195-19-199-19-327-67-29-11-62-28-72-37-13-11-27-14-49-9-36 8-48 30-31 56 7 13 8 19 0 19-18 0-46-19-53-35-4-11-2-14 6-9 6 4 3-5-8-19-10-15-24-25-30-23-7 3-9-5-6-20 2-13-3-35-12-49-9-13-16-35-16-49s-4-28-10-31c-6-4-10 13-10 44 0 28-5 51-11 53-18 6-1 61 31 100 17 20 53 48 82 62 42 21 47 26 26 26-17 0-46-20-91-61l-67-60 3-95c1-57 6-94 13-94 6 0 10-46 11-129 1-138 10-244 21-237 14 9 13-86-1-103-8-9-19-29-25-46l-10-30-1 40c-2 84-14 145-27 145-8 0-14 11-14 26 0 18-6 28-21 31-19 5-21 11-16 52 3 25 9 55 12 66 6 16 5 17-4 5s-11-8-9 19c2 19-2 36-9 38-8 3-11-22-10-87 2-76 0-90-13-88-12 3-15 25-15 126 0 67-3 122-7 122-5 0-8-10-9-22v-23l-9 23c-19 45-25 19-27-106l-1-127-54-27c-51-26-60-27-223-28-93-1-163-4-155-7 16-7-61-33-95-33-19 1-19 1-2 14 16 12 8 14-58 12-43-1-75 3-75 8 0 21-29-31-31-54-1-16-3-19-6-8s-10 15-20 11c-11-4-14-3-9 6 7 11-9 41-23 41-4 0-12-20-19-46-13-48-38-53-29-5 6 29-11 66-20 43-2-6-9-10-13-7-5 3-6-10-3-30 8-51-16-81-79-100-68-19-79-24-288-129-151-76-181-88-217-85-38 3-47-1-83-36-22-21-37-41-35-44 3-2 23 12 44 33l40 39 6-35c6-33 3-38-87-124-151-147-186-176-191-162-3 7-6 3-6-9-1-12-5-25-11-28-5-3-7-19-3-36 4-23 1-35-15-49-12-11-26-20-32-20-14 0-12-11 6-31 14-15 15-45 8-253-5-189-10-236-20-236-8 0-14-6-14-12 0-9-4-8-10 2-17 27-11 0 10-40 24-46 39-52 32-12-2 15-1 24 3 20s11-27 16-52c4-25 18-55 30-67 21-21 21-26 15-248-3-124-5-288-5-363 0-127-6-160-26-129-3 6-14 9-25 8-18-1-20-9-20-85 0-74 2-83 15-72 12 10 15 9 15-8 0-11-7-22-15-26-17-6-21-56-5-56 6 0 10 10 10 22 0 17 3 19 12 10 10-10 10-17 0-33-7-11-11-30-8-42s3-16 0-9c-3 6-10 12-15 12-12 0-12-47 0-54 12-8 12-94 0-101-11-7 0-213 13-237 5-10 14-18 22-18 7 0 18-26 26-67 12-61 11-67-6-80-17-12-17-13 4-13 12 0 22-5 22-11 0-5 4-7 10-4 6 4 10-15 10-50 0-32-4-54-9-50-20 11-24-23-22-159 2-149 0-141 54-180 28-21 13-73-24-81-38-8-39-42-3-55 39-15 44-13 44 21 0 31 1 31 36 26 19-3 47-2 61 4 22 8 25 14 20 39-8 35-1 40 61 44l48 4 12-44 12-44h50c44 0 52-3 62-25 14-31 19-31 56 0 27 22 39 25 111 25 80 0 81 0 87-27 3-16 7-32 9-38 1-5 8 2 15 18 9 18 21 27 36 27 23 0 23-1 22-104-1-58-4-103-6-101s-14-8-26-22c-18-20-21-33-16-57 6-31 6-31 73-31 64 0 69 2 93 33 22 28 31 32 73 32h48l16-92c9-51 19-103 23-116 6-22 4-21-72 14-44 19-97 43-119 52-22 8-49 21-60 29-11 7-32 13-48 13-15 0-77 18-137 41-61 23-117 39-125 35-8-3-15 0-15 7s-24 25-54 39c-41 20-56 24-65 15-10-9-16-7-30 9-24 30-61 49-61 32 0-8-5-5-11 5-7 13-7 22 0 31 9 10 7 15-5 20-22 8-34-10-34-49 0-30 4-33 197-122 109-51 317-148 463-216s432-202 635-296c204-95 762-356 1240-579l870-407 145-2c80-1 170 1 200 5l54 7-104 44c-130 54-148 62-234 100-38 17-75 31-83 31s-85 33-172 73c-86 41-173 79-193 86s-42 19-48 27c-7 7-19 14-27 14-15 0-84 29-93 39-3 4-12 7-20 9s-30 10-47 19c-26 12-31 19-24 31 13 23-134 88-157 69-13-10-15-9-10 3 6 16-7 24-126 75l-59 26 6 92c6 102 20 152 63 224l29 48 9-67 9-68h123 123l16 31c9 16 15 40 13 52-2 14 5 25 21 33 19 10 34 8 85-8 71-24 86-34 86-57 0-14 17-19 101-29 109-13 143-24 1609-524l615-210 80 6c44 3 105 6 135 6 55 1 55 1 24 14-17 8-55 19-85 25s-83 22-119 35-132 45-215 71c-82 26-240 78-350 116-110 37-225 75-255 84s-71 23-90 30-102 34-185 60c-205 64-295 95-325 111l-25 13 31 1c17 0 96-21 175-46s200-63 268-85 128-38 132-37c5 2-257 90-581 197-325 107-590 199-590 203 0 13 80 156 95 172 10 10 29 10 90 2 76-11 77-11 92-48 12-30 21-39 49-44 19-3 39-15 45-25 5-11 20-19 33-19 27 0 36-17 36-66v-35l68 6c141 12 152 15 152 36 0 11 5 29 10 40 7 13 7 19 0 19-5 0-10 7-10 15s5 15 10 15c6 0 10-5 10-11 0-5 5-7 10-4 6 3 25-10 44-29 18-20 42-36 52-37 11 0 49-3 86-7 37-5 64-4 62 0-3 4-12 8-20 8-9 0-14 11-14 30v30l73 1c65 1 68 2 37 11-19 5-47 12-62 15-35 7-36 29-1 56l27 21-25 7c-20 6-18 7 11 7 19 0 55 9 80 21l45 21 28-31 28-31 156-8c125-8 161-7 182 4l26 14-45 20c-25 11-52 23-61 26-13 3-18 23-24 84-4 43-10 85-15 92-5 8-28 12-66 11-33-1-66-2-74-1-8 0-76 0-150 0-144 1-200 11-200 38 0 12 3 13 12 4 7-7 44-12 94-12 86 0 114 5 114 22 0 6-7 8-14 5-10-4-13-1-9 9 3 7 12 14 20 14 7 0 13 7 11 16s4 18 14 19c9 2 24 8 35 14 16 9 14 11-12 12-25 1-26 2-7 6 25 5 27 9 36 65 7 39 34 61 31 25-3-33 15-77 32-77 8 0 11-5 7-12-5-8 0-9 14-6 12 4 22 2 22-3s8-9 18-9c14 0 15 2 2 10-12 8-12 10 4 16 11 4 21 2 26-6 5-7 10 1 14 24 6 32 10 35 30 30 25-6 40 13 27 35-6 10-12 9-24-4-15-15-17-14-23 10-8 33-1 40 25 25 17-9 22-8 27 5 10 26-13 43-54 38l-38-4-2 80c-2 83 7 98 36 69 10-10 14-10 21 0 6 10 10 10 20-1 6-8 11-19 10-23-1-5 3-20 9-34 11-22 12-20 9 24-2 45 0 49 21 51 12 1 22-2 22-6s6-9 14-12c10-4 14 7 15 45 0 28 3 54 7 57 3 3 4-14 3-38-3-32 1-46 14-56 9-7 17-24 17-39 0-14 5-26 11-26s9-6 6-12c-2-7 0-24 5-37 9-26 19-99 22-179 2-29 6-56 11-60 4-4 5 36 1 88-3 52-6 167-7 255-1 100-4 145-9 120-7-39-7-39-9-7 0 17-5 32-11 32-5 0-10 5-10 10 0 6 8 10 18 10 15 0 17 11 16 98-1 136-23 172-104 172h-48l-15 68c-9 37-21 93-27 124-6 32-15 58-20 58s-8 12-8 28c0 15-5 40-11 57-9 20-10 64-5 143 6 98 9 112 23 107 37-15 71-17 71-6 0 8 6 7 16-3 20-21 31-14 39 26 4 17 19 41 33 53 22 19 24 25 15 51-10 30-23 33-83 23-20-3-24 0-22 16 4 21 8 93 11 158l1 38 83-2c65-1 81 1 77 12-2 8-6 44-8 82-3 61-1 69 20 88l23 20-24-12c-32-15-134-6-167 16-30 19-86 96-95 130-9 30 14 137 35 170 23 35 61 58 86 50 11-3 20-10 20-14 0-16-41-50-54-45-33 13-33-131-1-149 16-8 17-6 13 17-3 14-1 26 3 26 5 0 9-6 10-12 1-7 7 5 13 27 14 44 48 57 54 20 4-19 26-46 46-56 5-2 15 10 22 26l13 30v-35c1-38-19-82-51-117-24-26-44-21-53 15-5 20-8 23-16 11-9-15-12-7-10 26 1 14-3 10-15-12-22-43-13-60 33-65 55-7 95 7 134 47 30 30 35 32 36 14 2-28-58-85-104-97l-38-10 36-1c19-1 56 10 82 22 25 13 44 20 41 15-4-5 4-4 15 4 13 8 20 20 17 31-2 9-1 15 3 12 10-6 41 123 41 171 0 51-57 136-107 159-20 10-64 20-97 22-55 5-67 2-129-31-72-39-77-40-77-28 0 33 94 92 146 92 13 0 33 9 44 20 29 29 50 26 50-7 0-21 3-24 9-14 12 18 6 80-9 95-8 8-10 7-5-6s0-20-20-28c-33-13-38-13-30 0 3 6 1 10-5 10-8 0-8 6 0 20 6 11 18 20 26 20 9 0 14 5 12 12-6 17-29 23-26 7 2-10-6-13-25-11-21 3-29-2-35-19-8-21-9-21-15 9-9 45 1 65 28 58 15-4 25-1 29 9 3 9 0 15-9 15-8 0-15 7-15 15s-6 15-14 15c-28 0-46-12-46-31 0-10-3-19-7-20-5 0-16-2-26-4-14-3-18 1-14 16 3 10 1 21-4 24-4 3-6 12-2 20 3 9-1 15-11 15-9 0-16-6-17-12 0-7-9 5-20 27l-18 40-1-72c0-42 4-73 10-73 14 0 13-57-1-66-6-3-15-1-19 6-6 9-12 1-19-26-24-86-73-188-84-173-10 12-37 132-32 140 4 5 0 9-9 9-19 0-41 97-26 115 7 9 7 21-2 41-6 16-12 37-13 47-3 23-15 35-15 14 0-22-16-22-29 1-9 16-10 16-16-1-4-9-2-24 5-32 10-12 9-15-4-15-8 0-18-10-20-22-26-129-49-217-56-213-4 3-10-1-13-9s1-17 9-20c7-3 13-2 12 2s2 14 5 22c4 8 13 33 21 55 11 33 15 37 21 21 5-10 3-21-2-25-6-3-18-29-27-58l-17-51-36 10c-19 5-45 7-58 4-19-5-22-2-17 19 6 34-21 43-50 15l-23-21 24-20c22-18 22-19 2-19s-46 32-35 43c3 3 3 11-1 17-5 8-13 6-27-7-19-17-20-17-38 5-22 26-104 33-94 8 7-19-16-32-26-15-5 7-6 17-4 21 3 4-13 8-35 8-21 0-46 3-55 6-12 4-16 0-16-15 0-27-30-28-37-1-4 15-14 20-39 20-26 0-32 4-28 15 5 13 40 15 225 15h218l10 33 9 32 1-37c1-20 6-40 12-44 17-10 30 17 23 49-3 16-1 27 5 27s11-18 11-40c0-40 15-55 23-22 4 16 5 16 6 0 0-10 5-18 10-18 12 0 20 100 9 122-12 25-10 128 2 106 6-9 11-35 12-57 1-24 5-38 11-34 6 3 7 1 3-6-9-14 3-53 14-46 5 3 6 24 3 48-3 23-6 67-7 97-2 30-6 63-10 72-10 21-4 53 9 53 6 0 16 4 23 8 8 6 12 2 12-12 0-12 4-21 10-21 5 0 7 6 5 13-3 7-1 33 3 58 5 25 5 54 1 64-6 15-8 10-10-20-2-39-2-39-6-6-3 18 0 45 6 60 7 17 8 36 1 56-10 30-10 30-7-8 4-46-17-45-21 1-3 29-22 47-22 21 0-5-5-7-12-3-8 5-9 0-6-14 4-15 2-22-8-22-12 0-14 12-12 53 2 35 7 51 16 49 8-1 12 10 12 32 0 19 3 42 7 52 4 12 2 15-8 12-9-3-13-16-11-37 2-22-2-33-14-38-10-4-19-2-22 5-2 7-8 10-13 6-5-3-10 5-10 18-1 17-3 18-6 6-5-21-8-21-34-8-15 8-19 7-19-5 0-19-34-20-54 0-8 8-22 15-30 15-9 0-16 5-16 11 0 5-4 7-10 4-5-3-10-15-10-25 0-15-5-18-27-13-37 7-45 7-67-2-15-7-17-5-11 13 4 16 2 22-8 22-9 0-17 6-20 13-3 8-7 5-12-7-6-13-3-23 8-31 22-16 10-27-15-14-10 5-54 8-98 6l-80-4v48c0 26-4 50-9 53-4 3-115 6-247 6-131 1-251 4-266 7-45 9-32 23 21 23 46 0 49 1 55 31 3 17 6 35 6 40s-27 9-60 9h-60v-50-50h-235c-218 0-235-1-235-18 0-9-10-22-22-27-12-6-25-21-29-35l-6-25-11 27c-11 27-39 34-58 15-14-14-24-6-24 18 0 19-4 23-17 18-16-5-15-4 1 9 17 13 17 15 2 21-14 6-13 11 9 43 26 38 33 74 14 74-6 0-9 7-5 15 3 9 0 15-8 15-19 0-67-76-60-95 7-17-13-48-26-40-8 5-28-14-29-28 0-4-12-28-27-52-28-48-43-101-44-148 0-16-8-36-17-45-15-16-16-15-10 8 3 14 9 53 13 87 3 34 11 61 16 60 6-1 14 9 19 22 8 20 7 22-5 12-11-10-11-2 3 36 23 60 17 87-10 46l-19-28v31c0 17 5 46 11 63 9 25 14 30 21 19 10-13 7 0-8 37-7 17 4 19 25 6 28-18 99 86 81 119-19 36-10 45 12 10 12-19 21-39 20-43s7-2 19 5 30 18 40 24 28 19 39 29c26 23 43 9 42-35 0-20 3-28 11-24 7 3 1-3-12-14s-32-17-42-15c-9 3-25 1-34-5-16-8-15-10 4-15 11-3 21-2 21 2 0 3 20 6 44 5 35-1 49 3 64 21 11 13 16 27 12 31-5 5-11 36-15 69-5 43-3 56 4 45 9-13 11-13 11 3 0 9 6 18 13 18 6 1 19 2 27 3s22-2 31-6 21-2 27 4c16 16 15 29 0 27-12-2-26 2-75 21-16 7-27 5-36-5-12-12-21-8-63 27-27 22-53 46-57 54-5 8-12 12-17 9s-12 4-15 15c-5 17-10 19-21 9-11-9-14-8-14 4 0 26-37 7-51-26l-13-31-8 24c-7 24-7 23-6-5 1-47-13-95-28-95-27 0-34-35-13-69 10-17 24-29 29-26 19 12 10-4-48-82-144-192-219-366-239-553-6-62-6-62 15-51 17 9 22 21 22 49 0 47 24 136 41 154 21 23 59 10 60-21 1-14 1-29 0-33 0-5 6-8 14-8 9 0 15 9 15 24 0 14 5 28 11 32 7 4 9-11 4-51-7-50-5-57 7-52 19 7 38-11 38-35 0-30 31-37 126-30 49 4 114 5 144 2 72-7 110-1 110 16 0 8 4 14 10 14 5 0 7-7 4-15-5-12 2-15 31-15 26 0 34 3 29 13-6 9-4 9 7 2 11-8 126-11 189-4 17 2 299-8 470-17 63-3 165-7 225-9 61-1 147-6 193-10 74-7 82-6 76 8-3 9-14 19-25 22-10 4-19 11-19 17s7 5 17-3c11-9 14-10 10-2-5 7-1 27 8 45 14 28 14 30 1 14-9-11-19-17-22-13-4 4-13 2-21-4-10-9-13-7-13 10 0 11-5 21-11 21s-9 7-6 15c4 8 2 17-3 20-6 4-10-3-10-14 0-12-7-21-15-21s-15-4-15-10c0-5-5-10-11-10-5 0-8 4-5 9s-1 12-10 15c-13 5-14 1-9-23s2-29-17-34c-12-4-27-2-32 3-6 6-17 10-26 10-13 0-17 14-19 76l-2 77 93-7c51-3 129-8 173-11s102-9 130-13l49-7 12-60c19-92 22-271 4-260-5 3-10-1-10-9 0-19-13-27-28-17-15 9-3 51 15 51 8 0 12 4 9 9-3 4-17 6-31 3-14-2-33 2-42 9-15 12-16 12-9-6 5-13 4-16-2-10s-12 19-14 30c-3 18-14 21-93 27-281 20-601 31-1097 34l-557 4-17-36c-20-43-14-156 11-180 8-9 15-30 14-47-1-31-1-31-9-7-6 18-8 20-9 7-1-10-5-16-10-13-10 7-32-73-24-88 3-6 0-5-8 2-18 17-40 15-33-3 4-8 4-15 0-15-3 0-13 25-21 55-9 30-21 55-26 55s-9 6-9 14c0 7-6 19-14 25-15 12-46 5-46-11 0-5 5-6 10-3 6 3 10 1 10-4 0-6-9-11-21-11-14 0-19 5-16 14 4 10 0 14-13 13-10-1-16-5-14-9 3-4-2-21-11-37-16-32-11-61 11-61 10 0 13-10 12-32-3-27 1-34 18-36 14-2 24 6 33 25 13 26 14 27 22 8 14-36 10-81-10-99-18-16-18-16-13 11 5 26 4 27-11 11-21-21-22-54-2-62 8-3 15-13 14-23 0-15-2-15-7-3-4 8-12 16-18 17-16 3-2-74 22-119l19-37v54c0 30 3 57 6 60 13 12 39-8 38-29-1-16-2-17-6-4-2 9-10 15-17 12-10-4-11-18-5-56 8-50 5-68-9-68s-84 132-74 139c5 3 6 15 1 26-5 13-8 15-9 5 0-8-10 2-21 23s-19 43-18 50c3 26-1 38-13 31-8-5-9 0-6 14 4 12 2 20-2 17-7-5-40 82-40 105 0 4 19 27 43 52 40 43 87 70 87 50 0-5 16-7 37-5 20 2 39-1 43-7s22-14 40-17c25-3 37 0 47 13 21 28 16 34-27 34-45 0-56 14-46 54 4 15 14 26 29 28 18 2 22 10 23 38 1 55 2 56 44 69 45 13 47 17 24 42-15 17-19 17-45 3-16-8-29-19-29-24 0-6-4-9-9-8-5 2-9-1-9-7 0-5 4-9 10-7 5 1 8-3 6-10-7-19-38-22-38-4 0 9-4 16-9 16-13 0-35-29-27-37 3-3 6 0 6 7s3 10 7 7c10-11-38-56-53-50-8 3-14-1-14-8 0-11-2-11-9 1-6 8-7 18-5 22 3 4 0 8-5 8-6 0-11-5-11-10 0-7-7-7-21 1-17 9-24 7-40-10-10-11-19-24-19-30 0-14-34-71-42-71-5 0-8 13-8 29 0 31 36 85 51 76 5-4 9-1 9 4 0 6-15 11-33 11-27 0-35-5-44-27-9-26-11-26-18-9-6 13-4 21 3 24 7 2 12 16 12 30 0 22-2 24-10 12-17-25-2 162 25 296 43 224 159 456 309 619 50 55 67 85 31 55-9-7-18-10-22-7-13 13 25 42 114 85 53 26 93 51 93 59s6 13 13 10c6-2 28 6 47 17 61 37 253 116 282 116 32 0 19-17-24-29-23-7-65-24-94-37s-56-24-59-24c-4 0-31-16-61-36-39-26-52-40-45-47 6-6 11-18 10-27 0-10-3-9-9 5-7 16-9 17-9 3-1-11-7-15-21-11-16 4-20 0-20-20 0-14-2-32-5-39-4-9 2-14 14-14 20 0 23 18 8 44-5 7-4 12 2 12s11-5 11-11c0-5 4-8 9-4 5 3 16-4 24-15 7-11 17-17 21-12 4 4 7 3 5-3-5-21 13-44 29-38 11 5 14 2 9-10-10-28 27-41 66-23 17 8 48 17 67 20 28 5 31 4 13-4-34-14-30-32 4-19 20 7 30 6 40-4 11-11 11-19-2-50-19-45-17-46 94-8 76 26 218 49 316 52 34 0 195-33 240-51 17-6 67-30 113-52 90-44 103-66 61-104-12-10-28-36-36-56-8-21-19-38-24-38s-9-4-9-10c0-17 15-11 50 20 18 17 37 30 42 30 4 0 8 5 8 10 0 6 11 22 24 35l24 24 43-49c45-51 66-63 91-49 12 7 14 4 11-14-3-14 6-33 25-54 17-18 32-36 34-40 1-5 19-34 38-66 29-48 39-57 63-57 17 0 26 4 22 10s-12 10-18 9c-36-4-39 2-14 34 14 18 27 44 29 58 2 20 9 12 38-44 19-38 40-73 46-78 16-13 184-17 185-4 1 5 1 33 0 60-1 37 1 46 8 34 13-20 57-188 66-251 4-26 11-46 15-43 17 11 22-166 6-233-7-31-9-32-21-15-13 17-14 17-12-4 1-18 7-23 28-23 25 0 28 4 34 48 9 71-3 221-31 382-29 160-25 150-93 256-58 91-77 82-32-15 24-52 29-75 24-104-4-27-10-36-19-33-17 7-17 1-2-24 14-22 8-33-13-25-10 4-14 23-14 65-1 32-3 62-7 65-3 3-17-5-31-17-19-18-27-36-29-69-2-36-6-44-23-44-12 0-30 14-43 34-28 41-47 85-32 76 6-3 10-1 10 5s10 8 25 4c26-7 31 1 15 26-7 10-10 11-10 2 0-21-68-9-85 15-8 11-13 22-12 24s-4-2-10-10c-11-13-13-11-13 11 0 19 8 29 30 38 42 17 74 6 96-35 18-33 34-46 34-26 0 5 3 17 6 25 5 12 2 15-11 10-14-6-16-3-10 17 4 13 12 26 16 27 20 8 8 70-23 119-39 62-170 201-166 176 2-10-7-22-20-29-13-6-37-24-54-40-25-24-29-25-19-7 14 28 15 55 1 33-8-12-10-10-11 10l-1 25-8-25c-8-24-8-24-9-2-1 12-5 22-9 22-12 0-32-46-32-74 0-13-10-30-22-39-13-8-35-26-49-41-23-23-28-24-39-11-7 8-9 22-6 31 5 13 3 14-6 6-21-17-63 26-61 63 2 29 2 29-7 5l-8-25-1 25c-1 20-3 22-11 10-8-13-10-13-10 2s-25 30-55 33c-21 2-65 25-65 33 0 5-19 15-41 22-23 8-44 22-46 31-5 17-67 41-87 33-7-3-23-1-36 4l-25 9 33 17c17 9 32 13 32 8s42-21 93-37c50-15 97-31 102-34 25-15 79-29 91-24 8 3 14-1 14-9 0-19 84-50 99-35 7 7 17 5 32-9 13-10 19-13 15-7-4 7-2 21 3 32 9 17 20 19 75 16 55-2 64 0 59 13-4 10-2 13 5 8 8-5 11-1 9 12-4 29-28 54-44 48-8-3-12-2-9 3 5 7-45 51-58 51-3 0-27 13-53 29-41 24-124 61-195 85-10 3-18 10-18 16 0 12 52 7 110-11 61-20 250-130 258-151 2-4 8-6 13-2 5 3 9 0 9-5 0-6 4-10 8-9 4 2 23-14 41-35 22-25 41-37 54-35 22 3 71-56 64-76-3-6 15-33 38-61 23-27 57-76 75-107 17-32 36-58 41-58 13 0 11 14-3 28-9 9-8 12 6 12 9 0 14-4 11-10-6-9 7-14 27-11 4 0 27-9 50-22 42-21 42-22 16-25-16-2-28-6-28-9 0-4 14-31 32-62 45-80 86-256 101-437 13-150 24-184 56-184 6 0 11-7 11-15 0-20 14-19 35 1 9 9 18 14 20 12 3-3-6-15-20-28-35-33-33-58 4-52 25 3 29 9 35 49 3 25 4 57 1 71-3 16 2 10 10-13l15-40-5 40c-3 22-10 76-14 120-5 44-11 87-13 95-1 8 3 14 10 12 6-1 12 2 12 7s-10 11-22 13c-17 2-23 11-25 38-2 19-4 42-5 50-4 38 3 58 22 63 16 4 19 1 15-16-4-15 1-26 16-35 18-11 23-11 33 4 12 16 13 15 19-5 7-28-29-202-44-212-9-5-8-20 2-60 7-30 12-58 10-64-1-5 1-7 5-3 10 10 16 51 17 118 0 40 2 48 8 30l7-25 1 25c1 14 4 36 8 49 4 17 3 22-5 17-16-10-15 15 2 37 11 14 15 15 20 5 3-7 3-3 0 10s-1 22 6 22c6 0 9 4 6 9s1 12 9 15c21 8 29-16 21-59-6-31-4-35 14-35 15 0 20-6 20-28 0-15 5-33 12-40 14-14 0-20-61-24-42-3-45-5-53-37-5-18-8-35-6-36 2-2 19 4 38 13s53 21 75 27l40 11-2 203c-1 128-6 208-12 214-14 14-14 30-1 22 15-9 13 112-2 122-16 10-128 11-128 1 0-5 13-8 29-8 43 0 91-11 91-21 0-5-10-9-22-9-17 0-19-3-10-12 7-7 12-18 12-25 0-16-42-17-58-1-9 9-12 8-12-7-1-19-1-19-11-2-6 10-8 25-5 33s1 14-3 14c-11 0-21-25-21-51 0-15 7-19 39-19 34 0 38-3 34-20-4-14 0-20 11-20 9 0 16-7 16-15 0-18-1-18-34-5-32 12-34-2-4-22l21-14-21-70c-27-84-42-111-42-73 0 27-62 104-74 92-11-11-6 7 8 30 8 12 13 32 12 45-3 26-124 147-176 174l-35 19 63-5c60-5 72-1 53 20-10 12-2 94 10 94 5 0 9-6 9-14 0-19 25-27 39-13 8 8 11 8 11-1 0-7-7-15-15-18-17-7-20-42-4-64 9-13 10-13 6 2-3 9 3 33 13 54 16 31 21 34 26 19 4-10 2-33-5-51-7-19-9-38-6-44s-1-13-9-16c-18-7-22-34-6-34 6 0 10 7 10 15 0 9 11 20 24 26 21 10 24 17 19 45-5 29-3 33 16 31 11-1 23-7 25-14 3-7 12-10 21-7 8 4 21 1 29-5 11-9 15-8 20 5 9 23 7 36-3 30-5-3-15 1-22 10-11 14-11 18 4 29 11 8 17 26 17 49 0 40-6 43-36 21-10-8-23-14-29-15-14 0-72 89-79 123-4 15-11 27-16 27-13 0-60-45-60-59 0-6-7-11-15-11s-15 7-15 15-9 15-20 15c-18 0-20 7-20 56 0 59-14 66-25 11-4-17-14-49-23-69-16-36-19-37-68-38h-52l-6-45c-5-33-12-45-24-45-14 0-14-2-3-9 7-5 11-13 7-19-3-5 2-13 11-16 15-6 15-8 3-16-21-14-40-12-38 2 2 7-4 13-12 13s-14-7-12-15c2-10 0-11-6-5-18 19-112 164-112 173 0 35-159 169-302 254-71 42-83 56-32 38 27-9 28-9 9 5-10 8-34 21-52 27-20 7-33 18-31 27 2 11 20 14 82 12 61-2 87 2 113 16 34 18 40 28 23 38-5 3-10 20-10 36 0 19-6 32-17 36-10 3-27 16-38 28-11 11-31 29-45 38-17 12-19 17-9 17 9 0 35-14 58-31 24-17 45-28 48-26 3 3-43 37-100 76-87 58-106 67-110 53-4-15-5-15-6 1 0 10-5 16-10 13s-14 1-21 9-9 15-6 15c4 0-4 10-18 23-25 22-25 23-11 73 20 76-2 158-61 223-104 116-281 91-376-54-19-28-19-22-1 22 16 39-21-3-42-49-12-27-24-48-27-46-2 2-10-3-19-11-12-12-14-26-7-74 4-33 7-62 5-63-2-2-16 3-31 11-36 19-34 20-39-17-3-22-4-16-4 17-1 75 5 94 28 88 13-4 19 0 19 11 0 10-9 16-25 16-17 0-25 5-25 18 0 25 37 82 54 82 8 0 22 7 30 16 15 14 16 14 16 0 0-9 5-16 10-16 6 0 10 9 10 21s4 17 11 13c11-6 58 42 59 61 0 5-7-1-16-13-9-13-23-22-32-20-10 1-23-1-29-5-7-5-13-4-13 2 0 13 35 32 43 24 4-3 14 0 22 7 65 54 186 75 268 46l38-14-3 314-3 314h-26c-15 0-41 3-58 6-30 6-31 6-31-30 0-39-21-50-38-20-11 19-136 52-239 62-72 8-72 8-76-18-2-15-6-3-11 33l-8 57h-39c-36 0-38-1-30-24zm88-418c-1-46-3-11-3 77s2 125 3 83c2-42 2-114 0-160zm162 50c1-20-3-40-9-43-6-4-10 17-9 57 0 68 17 56 18-14zm-703-176c-12-11-16 6-9 39l8 34 3-33c2-19 1-36-2-40zm-66-62c0-5-5-10-11-10-5 0-7 5-4 10 3 6 8 10 11 10 2 0 4-4 4-10zm885-29c3-5 1-12-5-16-5-3-10 1-10 9 0 18 6 21 15 7zm-114-57c-9-28-9-29-10-3-1 14 2 29 6 32 11 12 13 2 4-29zm104-124c-3-5 1-10 11-10 13 0 14-3 4-15-7-8-10-21-7-28 3-8 1-20-3-27s-3-24 3-37l10-23 18 30c21 34 49 40 49 10 0-13-7-20-20-20-15 0-20-7-20-27 1-24 2-25 11-10 7 12 17 15 33 11 17-4 25 0 30 12 4 10 3 20-2 23s-12 17-16 31c-6 19-5 21 3 10 6-8 11-12 11-8 0 13 41-25 51-47 8-17 9-16 6 7-3 16 0 25 6 21 17-10 2-112-22-144-32-43-18-48 29-10 37 30 70 35 53 8-4-7-8-23-8-36-1-23-1-23 22 5 13 16 23 35 23 42s7 20 15 28c26 27 19-27-9-65-45-61-149-118-167-90-3 6-17 7-30 4-34-8-67 7-113 52-47 45-76 105-75 153 0 29 2 31 9 15 8-19 9-18 9 4 1 14 11 44 22 68 16 33 26 43 37 38 9-3 13-3 9 1s-2 13 4 21c13 15 23 18 14 3zm-839-13c3-3-8-8-25-12-34-7-51-29-44-55 4-16-32-40-61-40-8 0-18-17-24-37-10-37-10-38-12-8l-2 30-9-33c-8-28-7-36 8-47 17-13 17-14-2-20-11-4-32-13-47-21-28-15-28-15-18 10 5 14 7 33 3 42-3 10 1 17 13 20 26 7 57 89 39 104-8 7-21 7-36 2-13-5-61-15-106-22-67-11-85-11-97 0-22 17-20 37 4 50 11 6 20 8 20 5s12 1 28 8c15 7 59 14 99 16 39 1 84 6 100 11 28 9 160 7 169-3zm746-59c-8-8-9-4-5 13 4 13 8 18 11 10 2-7-1-18-6-23zm-32 2c0-5-2-10-4-10-3 0-8 5-11 10-3 6-1 10 4 10 6 0 11-4 11-10zm-1381-102c11-34 3-86-14-90-6-2-11 24-13 60-3 68 10 82 27 30zm1388-30c-3-8-6-5-6 6-1 11 2 17 5 13 3-3 4-12 1-19zm-937-87c0-6-4-13-10-16-5-3-10 1-10 9 0 9 5 16 10 16 6 0 10-4 10-9zm7-43c-3-8-6-5-6 6-1 11 2 17 5 13 3-3 4-12 1-19zm969-35c-3-16-8-52-11-81-7-55-23-72-65-72-17 0-21 4-15 18 4 9 11 44 16 77 13 83 14 85 49 85 29 0 31-2 26-27zm-1416-9c0-8-4-14-10-14-5 0-10 9-10 21 0 11 5 17 10 14 6-3 10-13 10-21zm510 6c0-5-4-10-10-10-5 0-10 5-10 10 0 6 5 10 10 10 6 0 10-4 10-10zm1164-146c12-12 42-29 67-37 63-21 135-60 120-65-6-2-17 0-24 5-7 6-41 20-77 33s-72 29-81 37c-8 7-26 13-40 13-82 0-130 29-51 31 34 0 35 1 15 11-29 14-29 22 2 36 14 6 25 17 26 24s6-5 12-27c5-21 19-49 31-61zm-1942-14c2-22 0-40-4-40-5 0-8 18-8 40s2 40 4 40 6-18 8-40zm2120-32c-9-9-15-9-24 0s-7 12 12 12 21-3 12-12zm-267-18c3-5 2-10-4-10-5 0-13 5-16 10-3 6-2 10 4 10 5 0 13-4 16-10zm-105-26c-11-13-11-17-1-24 18-10-2-22-24-14-9 4-15 13-13 21s7 13 11 11c5-2 13 5 19 15 5 10 12 16 15 13s0-13-7-22zm40 5c0-5-4-9-10-9-5 0-10 7-10 16 0 8 5 12 10 9 6-3 10-10 10-16zm-1013-11c-3-8-6-5-6 6-1 11 2 17 5 13 3-3 4-12 1-19zm-818-75c-1-44-3-51-8-28-4 20-9 26-14 18-12-19-34-16-42 4-4 13 2 25 22 40 15 13 31 23 36 23 4 0 6-26 6-57zm-732-25c-2-13-4-5-4 17-1 22 1 32 4 23 2-10 2-28 0-40zm2573 11c0-5-4-9-10-9-5 0-10 7-10 16 0 8 5 12 10 9 6-3 10-10 10-16zm-43-41c-3-8-6-5-6 6-1 11 2 17 5 13 3-3 4-12 1-19zm-1918-11c16-12 106-15 118-3 3 3 14 6 24 6 9 0 19 6 22 13 8 21 42-7 45-37 2-14 7-24 12-21s5 16 0 31c-14 35-13 36 10 24 11-6 20-19 20-30 0-10 8-24 18-30 13-8 6-10-31-8-31 1-51 7-57 17-8 14-9 14-10 1 0-13-16-14-100-12-55 2-114-1-130-7-26-8-30-7-30 7-1 15-2 15-15-2-8-10-12-23-9-27 3-5 1-9-4-9-18 0-23 61-7 77 8 8 15 19 15 24 0 14 89 2 109-14zm1978-9c-3-8-6-5-6 6-1 11 2 17 5 13 3-3 4-12 1-19zm-1130-9c-9-6-17-20-17-32 0-18-2-19-10-7-6 10-3 21 12 37 12 13 24 20 27 17s-2-10-12-15zm-1537-9c0-11-4-20-9-20s-7 9-4 20 7 20 9 20 4-9 4-20zm3013-9c4-1 7-5 7-11 0-5-7-7-15-4-8 4-15 1-15-5 0-15-25-14-39 2-15 18-5 26 27 22 15-2 30-4 35-4zm-2953-22c0-4-7-9-15-13-9-3-15 0-15 8 0 7 7 13 15 13s15-4 15-8zm37 5c-3-3-12-4-19-1-8 3-5 6 6 6 11 1 17-2 13-5zm2690 0c-3-3-12-4-19-1-8 3-5 6 6 6 11 1 17-2 13-5zm-1368-67c-32-28-80-80-108-114-51-62-71-76-71-49 0 20 207 216 228 216 4 0-18-24-49-53zm151 38c-7-8-17-15-22-15-6 0-5 7 2 15s17 15 22 15c6 0 5-7-2-15zm-993-47c-3-7-5-2-5 12s2 19 5 13c2-7 2-19 0-25zm939 21c3-6-4-21-16-33-22-20-22-20-16-1 8 23 3 18-49-50l-38-50 41 45c23 25 42 40 42 33 0-6-4-15-10-18-5-3-15-15-20-25-20-37 14-11 59 45 24 30 48 55 54 55 10 0 6-6-54-80-61-77-138-194-165-256-24-51-64-116-64-102 0 2 14 33 31 69 47 97 80 172 76 175-6 6-114-209-156-311-54-128-68-150-86-135-11 9-25 7-64-12-40-18-50-28-51-48-1-25-1-25-12-3-19 39-38 37-38-5 0-35 0-36-15-15-11 16-14 34-9 62l7 41-31-16c-23-11-33-24-38-50-3-19-10-34-15-34-15 0-22 28-14 58l8 27 7-25c7-23 8-23 9-3 1 22 15 36 40 40 8 1 17 5 20 10 9 11 61 14 61 2 0-5-4-9-10-9-5 0-10-4-10-8 0-5 13-7 30-4 25 4 30 10 35 41 9 56 37 147 42 133 3-6 10-9 16-5 7 4 8 0 3-13-18-43-43-144-36-144 17 0 40 43 75 145 41 118 69 180 85 190 5 3 3-10-5-29-27-65-15-72 15-9 41 89 90 159 209 294 35 41 45 46 57 28zm-1476-21c0-19-2-20-10-8-13 19-13 30 0 30 6 0 10-10 10-22zm70 2c0-5-7-10-15-10s-15 5-15 10c0 6 7 10 15 10s15-4 15-10zm447-12c-3-8-6-5-6 6-1 11 2 17 5 13 3-3 4-12 1-19zm43-22c0-3-4-8-10-11-5-3-10-1-10 4 0 6 5 11 10 11 6 0 10-2 10-4zm239-46c0-10-3-8-9 5-12 27-12 43 0 25 5-8 9-22 9-30zm692-3-34-32 28 38c15 21 30 35 33 32s-9-20-27-38zm-921 9c0-7-7-19-15-26-16-13-20-3-9 24 8 20 24 21 24 2zm160-6c0-5-7-10-15-10s-15 5-15 10c0 6 7 10 15 10s15-4 15-10zm186-47c-3-7-10-13-16-13-11 0-14 53-3 64 9 9 25-34 19-51zm-48 14c2-19-1-27-12-27s-16 10-16 31c0 38 24 35 28-4zm-260-10c3-21 0-26-12-21-11 4-16 0-17-12 0-11-3-14-6-7-6 16-33-8-33-29 0-10 3-9 11 2 8 12 9 10 5-10-3-14-6-28-6-32 0-18-16-6-28 22-15 34-4 65 28 75 11 4 20 15 20 26 0 32 34 19 38-14zm44 3c-5-33-16-39-26-14-11 28-6 44 12 44 15 0 18-6 14-30zm1228 8c0-6-3-9-6-5-4 3-15-4-24-16-23-28-35-18-14 11 16 23 44 30 44 10zm-1364-30c-9-14-27-31-40-38-14-7-27-24-31-38-5-19-9-22-15-13-6 11-20 7-64-18-69-40-74-34-7 8 40 24 48 34 44 51-4 15-2 19 10 14 8-3 18-1 22 5 3 6 17 11 30 11 14 0 32 10 42 24 23 31 30 26 9-6zm242 15c2-9-7-13-27-13-30 0-39 9-24 24 11 10 46 3 51-11zm3115-16c22-18 22-30-2-51-18-17-19-16-18 15 2 39-19 50-33 17-10-21-10-20-5 6 6 26 4 28-9 17-10-9-16-9-16-3s8 15 17 21c18 9 31 5 66-22zm-4458 3c3-5 1-10-4-10-6 0-11 5-11 10 0 6 2 10 4 10 3 0 8-4 11-10zm4505-31c0-11-4-18-10-14-5 3-7 12-3 20 7 21 13 19 13-6zm-2032-91-43-36-23 40c-23 38-25 39-43 22-12-11-19-13-19-5 0 18 50 61 71 61 10 0 21 5 25 11 4 7 19-2 41-23l34-33zm1299 29c18-16 38-38 44-49 10-18 9-19-13-7-13 6-26 17-31 23-5 7-12 5-21-7-8-10-17-14-20-8-3 5 0 12 6 15 7 4 3 4-9 2-19-3-21-1-13 14 7 13 6 20-2 22-7 3-9 14-4 33 7 27 9 28 18 11 6-10 26-32 45-49zm73 48c16-19 9-48-12-51s-23 7-6 24c9 9 8 12-5 12-9 0-17-5-17-12 0-6-2-9-5-7-2 3-2 15 2 27 6 25 25 29 43 7zm-2430-11c0-8-5-12-10-9-6 4-8 11-5 16 9 14 15 11 15-7zm-553 0c-3-3-12-4-19-1-8 3-5 6 6 6 11 1 17-2 13-5zm869-88c-20-46-33-92-30-100 4-11 0-16-12-16-16 0-17 2-4 11 11 8 8 9-15 5-16-4-25-3-18 1 10 7 53 108 53 125 0 4-7 5-15 2-8-4-15-1-15 5s6 11 13 11c6 0 26 11 42 24 17 13 32 23 34 20 2-2-13-41-33-88zm-887 58c2-2-21-5-52-5-31-1-62-2-69-3-6-1-13 5-16 12-3 11 9 13 64 7 38-3 70-8 73-11zm-925-26c3-13 7-40 9-61 3-36 2-38-21-34-20 4-23 2-17-17 13-39 18-236 6-236-7 0-11 32-12 93-1 50-5 103-9 117s-7-73-7-195c2-161-1-226-11-242-18-32-40-18-46 30-9 79-15 377-7 377 4 0 6-13 3-30-3-18 0-30 7-30 6 0 11 11 11 25s7 28 16 32c12 4 14 14 9 41-4 22-2 38 5 42 8 5 7 9-4 13-10 4-16 1-16-9 0-8-4-12-10-9-5 3-10 0-10-8 0-14-28-32-37-23-2 2 17 27 43 55s54 60 61 71c18 26 32 25 37-2zm2020-25c-15-27-32-52-37-58-11-12 31 75 45 93 22 26 18 10-8-35zm-784 18c0-5-9-13-20-16-13-4-20-16-21-33s-3-20-6-10c-4 15-14 12-69-23-62-40-94-45-94-15 0 7 11 16 25 18 14 3 25 1 25-3 0-13 100 51 113 72 12 19 47 26 47 10zm476-27c-4-9-9-15-11-12-3 3-3 13 1 22s9 15 11 12c3-3 3-13-1-22zm2239-13c3-5 1-12-5-16-5-3-10 1-10 9 0 18 6 21 15 7zm-2403-22c-37-24-37-38 0-18 12 7 32 14 43 16s24 8 29 13 16 5 27 0c13-7 17-20 14-50-1-22-7-46-12-53-18-22-22-59-10-78 8-14 9-22 1-27-6-4-14-16-18-27-7-18-9-18-19-4-7 9-19 14-27 12-10-3-11-2-4 4 13 9 37 139 29 153-4 6-13 6-23 0-87-46-192-75-192-52 0 4 21 18 48 32 35 19 48 32 50 51 3 26 35 46 77 48 15 0 12-4-13-20zm178 7c0-2-7-7-16-10-8-3-12-2-9 4 6 10 25 14 25 6zm2147-18c-3-8-6-5-6 6-1 11 2 17 5 13 3-3 4-12 1-19zm-2134-8c-6-24-23-37-23-18 0 12 18 38 26 38 1 0 0-9-3-20zm2355-5c-3-3-9 2-12 12-6 14-5 15 5 6 7-7 10-15 7-18zm-2662-22c-10-10-19 5-10 18 6 11 8 11 12 0 2-7 1-15-2-18zm257 2c-21-16-28-12-20 9 4 9 13 13 22 10 14-6 13-8-2-19zm-675-23c2-13-4-25-17-32-18-9-21-8-21 9 0 49 31 68 38 23zm915-77c-36-91-66-144-39-70 21 59 68 166 72 162 2-1-13-43-33-92zm-1914 0c0-29-2-36-9-25-5 8-9 38-9 65 1 40 3 45 9 25 4-14 8-43 9-65zm-187 40c0-5-5-11-11-13s-11 4-11 13 5 15 11 13 11-8 11-13zm-54-50c-12-19-29-35-36-35s1 19 20 44c38 50 52 42 16-9zm992 37c0-5-3-12-7-16-5-4-7-159-6-344 1-214-2-307-7-254-4 45-10 86-14 89-4 4-4-18-1-48 11-115 26-623 31-1046l5-442-33-5c-18-3-42-5-53-3-17 2-20-5-23-43-2-25-7-49-12-54-6-5-8 3-7 20l2 29-215-3c-172-2-211 0-195 10 13 8 87 13 218 16 108 3 197 8 197 13 0 9-21 13-50 11-29-3-60 21-60 45 0 35-34 26-38-10-3-22 0-26 15-21s16 4 3-5c-8-6-28-11-45-10-37 0-165-8-264-17l-73-7 5-47c4-34 2-53-9-66-14-18-15-18-9 4 11 38 7 255-5 286-6 16-8 42-5 57 7 29-8 69-18 52-3-5-24-7-46-5-35 4-41 7-41 28 0 20 5 24 33 25 17 1 38 1 45 0 6-1 12 3 12 8 0 6 7 8 15 5 9-4 15-19 15-40 0-27 3-32 16-27 11 4 22-1 30-12 9-12 14-14 14-6 0 11 3 11 15 1s15-10 15 4c0 25 34 73 48 68 11-3 12 33 7 189-10 335-13 357-46 390-26 26-32 27-57 17-15-7-32-16-38-20-7-5-23-3-37 3-52 24-57 12-57-135 0-113-2-135-16-140-9-3-20-4-25-1-12 8-11 623 1 630 6 3 16 3 23-2 12-7 17-9 36-12 5 0 12-9 15-18 3-10 3 36 1 102-3 65-10 124-15 129-6 6-10 34-10 63 0 42 3 51 15 47 11-5 14-17 10-48-4-35-3-37 4-11 15 51 13 92-4 92-21 0-49-34-50-59 0-12-6-23-12-25-7-3-13 2-13 11s-6 16-13 16c-11 0-13-45-12-227 1-126-1-212-4-193-4 25-11 35-23 34-10-1-25-2-33-3-12-1-15-15-15-61 0-54-3-62-22-70-23-9-22-9 3-9 14-1 42 10 61 23 35 23 35 23 33 2-1-11-3-24-4-27 0-4-15-12-31-19-17-7-29-15-26-17 2-2 18 2 34 11l30 15 7-377c7-343 2-789-10-800-2-2-25-1-52 3-37 5-44 9-30 16 18 11 23 39 7 39-5 0-10 16-10 35s5 35 10 35c6 0 9 3 9 8-1 4-1 16 1 27 1 20 2 20 9 1 7-18 9-16 19 11 8 24 8 33-2 36-10 4-13 28-7 56 3 13 31-25 34-47 3-21 4-18 6 11 0 20-2 36-6 35-5 0-16 2-25 6-24 11-26 116-3 116 8 0 16 8 17 18 1 9 5-12 8-48 4-36 6 106 4 315-3 404-4 416-16 409-5-3-12 5-17 18-7 17-10 2-12-62-2-73-3-79-9-40-6 37-7 40-10 15-1-16-4-48-6-70-3-22-5-62-5-90 0-34-3-45-9-35-6 8-10 22-10 31s-7 19-15 23c-12 4-15-4-16-42-1-26 0-57 0-69 1-11-3-24-8-28-6-3-11-11-11-16 0-6 7-3 16 5 8 9 22 16 30 16 10 0 13 7 8 28l-6 27 17-30c14-25 15-37 5-67-12-40-40-52-40-17 0 11-4 17-10 14-6-4-10-66-10-154 0-158-7-222-21-199-6 9-9 5-9-13 0-15-7-32-15-39-13-11-15-6-15 32 0 24 5 49 11 55 8 8 7 17-3 33-11 18-11 23 0 27 9 3 10 9 3 17-10 12-13 106-11 376 1 127 3 151 13 134 17-30 37-18 37 22 0 19 5 34 10 34 6 0 10-18 10-41 0-22 4-38 9-35s7 15 4 26c-3 12 1 22 11 26 9 3 16 10 16 16 0 5-4 7-9 4s-12 35-15 84c-6 65-12 92-23 98-12 7-13 17-7 43 5 19 9 39 9 46 0 6 4 15 8 19s7 49 7 100 4 96 10 99c6 4 10-5 10-20 0-14 4-24 9-21 4 3 6 18 3 33-5 26-5 26 15 7 11-10 23-32 27-48 4-15 14-35 21-43 13-13 15-5 15 57v70l-25-16c-14-9-25-12-25-6 0 5 11 17 25 26 23 15 25 23 25 84 0 38-4 62-8 54-5-7-16-10-24-7-11 4-18 0-21-12-4-14-5-14-6-2 0 9 8 26 19 39 21 24 25 42 21 98-2 18 3 40 10 49 7 8 16 36 20 62 7 47 7 44 13-136 1-13 3-23 6-25 6-2 43 22 215 141 253 174 418 286 466 316 27 17 56 38 66 48 19 18 33 22 33 9zm29-92c1-20-1-22-9-10-5 8-9 38-9 65l1 50 9-40c4-22 8-51 8-65zm3729 44c2-11-4-27-13-34-13-11-15-9-15 8 0 15-5 20-15 16-15-6-21 16-8 30 14 14 48 1 51-20zm-4669-1c0-10 2-130 5-268 4-157 3-240-3-222-5 15-11 129-12 252-2 179-6 225-16 221s-10-1 0 14c15 25 26 26 26 3zm1281-23c10-18 8-20-20-20-32 0-38 8-18 28 17 17 26 15 38-8zm284 5c3-8 12-15 20-15s38-5 66-11c52-11 56-24 10-32-21-4-20-4 8-6 33-1 43-15 17-25-8-3-32-3-53-1-62 7-295 19-319 17-12-1-24 2-28 8s20 10 69 10c44 0 76 4 76 10s-10 10-22 11c-70 2-88 19-22 20 74 1 138 9 149 20 13 13 22 11 29-6zm460-12c-4-16-29-86-56-158-49-128-49-132-46-227 2-76 7-100 20-110 19-15 37-85 19-74-6 4-11 1-12-6-2-37-6-74-8-83-7-21-1-34 13-29 10 4 12-6 8-48-3-29-9-56-13-59-10-6 25-84 46-106 11-10 14-10 18 0 3 6 2-7 0-31-4-31-1-47 11-61 26-29 48-109 35-132-19-36-69-17-69 26 0 18 2 17 13-5 14-28 40-33 45-8 4 23-17 98-28 98-5 0-11-12-13-27-2-16-5-2-6 29-2 103-62 196-149 234-49 21-146 21-197 0-55-23-82-51-116-119-17-32-36-60-45-64-8-3-14-10-13-17 3-23-1-36-11-36-7 0-9 14-5 38l6 37-14-30c-8-16-11-37-7-45s5-22 2-30 4-4 16 10c24 29 29 27 34-19 3-31 0-35-27-43-41-11-55 11-55 81 0 73 8 101 26 94 8-3 21 0 29 7s21 10 28 7c8-3 23 15 40 47 26 50 26 51 2 24-28-33-35-35-35-10 0 26-53 52-93 45-44-7-67 16-67 68 0 28 4 39 15 39 8 0 15-5 15-11 0-5 16-17 36-25s33-18 30-21c-9-9 47-35 66-30 9 3 19 0 22-7 2-6 5 1 5 16 1 25-1 26-41 22-25-2-38 0-32 5 5 5 22 11 38 13 56 6 39 25-25 27-91 3-125 36-59 56 14 4 31 16 38 26 13 19 42 15 42-6 0-13 45-26 66-18 6 2 16 14 22 26 7 15 11 17 11 6 1-13 16-15 89-15 69 1 94-3 115-17 29-18 31-23 41-67 6-29 44-56 57-43 5 5 10 36 12 69 2 56 1 59-20 57-21-3-23 2-23 42 0 31-5 47-17 54-16 8-14 10 10 16 33 9 36 19 39 155 3 92 7 114 34 175 17 39 44 103 59 143 27 73 41 94 29 45zm-1716-1c2-7-3-12-12-12s-16 7-16 16c0 17 22 14 28-4zm-151-14c-3-8-6-5-6 6-1 11 2 17 5 13 3-3 4-12 1-19zm1013 1c0-6-10-19-22-30l-23-18 30-1h30l-30-20c-16-11-33-20-38-20-15 0 1 71 19 85 23 17 34 19 34 4zm-1282-292c-1-155-4-255-7-222l-5 60-7-65c-3-36-5 66-3 225 1 160 3 291 3 293 1 2 6 0 11-3 6-4 9-109 8-288zm79 216c-2-16-4-3-4 27s2 43 4 28c2-16 2-40 0-55zm190-40c-2-16-4-3-4 27s2 43 4 28c2-16 2-40 0-55zm2719 62c9-24-5-37-22-20-15 15-11 35 7 35 5 0 12-7 15-15zm-2298-21c3-15 1-16-9-7-8 8-18 9-31 2-23-12-24 0 0 17 22 17 36 13 40-12zm1863-5c-9-22-10-22-10-3-1 11 2 24 6 27 12 12 14 0 4-24zm1359 10c0-5-7-9-15-9-15 0-20 12-9 23 8 8 24-1 24-14zm-1193-36c-3-10-5-2-5 17s2 27 5 18c2-10 2-26 0-35zm382 20c35-29 36-78 4-158-19-46-34-71-47-73-15-3-18 0-12 21 3 14 9 32 12 40 4 11-2 16-23 19-36 4-69 61-59 101 15 60 81 86 125 50zm186-8c33-32 32-79-2-160-20-46-33-65-47-65-18 0-18 16 0 63 3 10-4 16-24 20-21 4-34 16-46 41-15 31-15 39-2 70 25 59 79 74 121 31zm305 7c0-25-85-242-95-242-24 0-23 15 10 106l33 94h-44c-38 0-44 3-44 20 0 11 9 24 19 28 23 8 121 3 121-6zm-3352-59c-1-67-1-67-7-18-3 28-5 58-2 68 7 35 11 15 9-50zm809 5c-2-13-4-3-4 22s2 35 4 23c2-13 2-33 0-45zm2818 52c11-18-15-40-46-40-16 0-29-3-29-6s16-20 35-38c28-26 35-41 35-70 0-45-36-86-75-86-28 0-75 40-75 65 0 19 34 20 50 0 32-38 83 3 54 43-11 16-26 22-51 22-29 0-34 3-28 18 4 9 14 36 22 60 14 41 16 42 58 42 24 0 47-5 50-10zm-185-120c0-113-1-120-20-120-18 0-20 7-20 86 0 47-4 83-9 80s-15 1-22 10c-12 14-9 20 16 40 52 41 55 36 55-96zm-2340-102c0-211-4-258-21-258-10 0-13 429-3 454 18 47 24-4 24-196zm1140 202c0-5-5-10-11-10-5 0-7 5-4 10 3 6 8 10 11 10 2 0 4-4 4-10zm345 0c3-5 1-10-4-10-6 0-11 5-11 10 0 6 2 10 4 10 3 0 8-4 11-10zm102-27c-3-10-5-4-5 12 0 17 2 24 5 18 2-7 2-21 0-30zm-287 1c0-8-4-12-10-9-5 3-10 10-10 16 0 5 5 9 10 9 6 0 10-7 10-16zm-2210-15c0-6-4-7-10-4-5 3-10 11-10 16 0 6 5 7 10 4 6-3 10-11 10-16zm1250-3c0-12 4-36 9-52 18-54 38-249 25-241-5 3-10-13-12-36-1-23-5-44-8-47s-35-5-71-5c-52 0-67 4-78 19-11 14-11 24-4 38 6 11 8 26 5 33-3 8 2 56 11 107 11 64 12 93 5 96-6 2-8 10-5 18 3 7 9 12 13 9 5-3 7 3 6 12-6 37 10 58 50 64 21 3 42 7 47 8 4 0 7-10 7-23zm1156-37c1-36-1-47-7-34-6 15-8 16-8 4-1-23-31-78-31-58 0 19-26 33-35 18-4-5-3-18 0-29 4-14 2-18-7-15-9 4-13 27-14 70-1 35 3 62 7 59 5-3 9 4 9 15 0 31 36 27 55-6l16-28-4 33c-2 20 0 31 7 29 6-2 12-28 12-58zm-116-37c0-5-11-14-24-20-21-9-25-8-31 11-7 21-8 20-12-6-3-22-7-25-17-15-20 21-27 48-12 48 7 0 18 12 24 26l12 25 30-30c17-16 30-34 30-39zm-2633-114c-2-35-3-9-3 57s1 94 3 63c2-32 2-86 0-120zm360 150c-3-8-6-5-6 6-1 11 2 17 5 13 3-3 4-12 1-19zm4310-20c-3-7-5-2-5 12s2 19 5 13c2-7 2-19 0-25zm-3360-30c-2-13-4-5-4 17-1 22 1 32 4 23 2-10 2-28 0-40zm552-65c-2-115-2-116-12-56-8 54-3 173 9 173 2 0 3-53 3-117zm-28 76c-9-22-10-22-10-3-1 11 2 24 6 27 12 12 14 0 4-24zm2556-46c-2-16-4-3-4 27s2 43 4 28c2-16 2-40 0-55zm-2606-44c-1-46-6-87-10-91-3-4-5 9-3 30s-1 53-6 72c-9 30-10 19-11-63-1-69 2-96 10-91 7 4 10-1 7-12-2-10-11-20-21-22-15-3-17 6-17 86 0 49 3 109 6 134 5 37 10 44 27 43 20-2 21-6 18-86zm-834-1c-2-18-4-6-4 27s2 48 4 33 2-42 0-60zm1900 13c-2-23 1-41 5-41 5 0 6-5 3-10-14-23-25 5-25 63 1 45 3 57 10 45 6-9 9-35 7-57zm1853 40c0-11 3-26 6-35 9-24-22-31-59-12-17 8-26 16-19 16 6 0 12 8 12 18 0 14 2 15 10 2 9-13 10-13 11 0 1 8 1 18 0 23 0 4 8 7 19 7 13 0 20-7 20-19zm-4400-12c0-5-11-9-25-9-15 0-25-6-25-15 0-16-34-37-67-41-19-2-22 2-21 32 1 40 18 58 18 20 0-36 29-34 69 4 29 28 51 32 51 9zm2277-21c-3-7-5-2-5 12s2 19 5 13c2-7 2-19 0-25zm1782-188c1-139-3-220-9-220s-10 82-10 220c0 132 4 220 9 220 6 0 10-88 10-220zm-3058 92c1-61-1-115-4-119-4-3-7 49-7 117s2 121 4 119c3-3 6-55 7-117zm1602 95c3-8 2-20-3-27-6-10-9-9-13 1-4 12-7 11-16-1-14-19-14-5-1 21 12 22 26 25 33 6zm917-22c0-9-6-12-15-9-8 4-15 10-15 15s7 9 15 9 15-7 15-15zm574-42c-9-65-14-67-14-5 0 30 4 52 11 52s8-16 3-47zm-384 7c0-5-5-10-11-10-5 0-7 5-4 10 3 6 8 10 11 10 2 0 4-4 4-10zm-3063-252c-1-46-3-9-3 82s2 128 3 83c2-46 2-120 0-165zm-880 170c-3-7-5-2-5 12s2 19 5 13c2-7 2-19 0-25zm1584-25c-9-16-10-14-11 12 0 21 3 26 11 18s8-16 0-30zm36-10c-3-10-5-2-5 17s2 27 5 18c2-10 2-26 0-35zm1703 28 25-2-25-19c-14-11-29-24-35-28-5-5-20 2-34 16-26 26-17 41 22 37 12-1 33-3 47-4zm-3370-48c0-5-5-15-10-23-8-12-10-11-10 8 0 12 5 22 10 22 6 0 10-3 10-7zm4387-15c-3-8-6-5-6 6-1 11 2 17 5 13 3-3 4-12 1-19zm-200-46c-6-8-11-23-9-34 2-10-2-18-7-18-6 0-11-9-11-19 0-11-4-22-8-25-4-2-1 29 7 71 13 66 16 73 28 58 10-15 10-21 0-33zm-4227-31c0-5 3-18 6-28 5-17 5-17-6 0-14 21-32 13-23-11 6-16 6-16-10 0-20 20-22 34-4 41 20 9 37 8 37-2zm2630-38c51-108 90-207 86-217-2-6-9 2-15 17-6 16-36 78-66 138-35 71-49 109-41 109s24-21 36-47zm1777 15c-3-8-6-5-6 6-1 11 2 17 5 13 3-3 4-12 1-19zm-3039 0c15-15 16-28 2-28-5 0-10 8-11 18 0 14-2 14-9-3-8-19-9-19-9 3-1 24 9 28 27 10zm3582 2c0-5-7-10-16-10-8 0-12 5-9 10 3 6 10 10 16 10 5 0 9-4 9-10zm-4870-16c0-8-4-12-10-9-5 3-10 10-10 16 0 5 5 9 10 9 6 0 10-7 10-16zm1196-79-16-30v38c0 20 6 46 13 58 11 19 12 18 15-9 2-15-4-41-12-57zm-1314 23c-9-9-12-4-11 23 0 32 1 33 11 11 8-17 8-26 0-34zm1965 17c1-31-1-34-18-24-19 10-18 19 6 46 5 7 10 12 11 13 0 0 0-16 1-35zm2633-6c0-39-17-29-18 11 0 17 4 28 9 25 5-4 9-20 9-36zm-33 17c-3-8-9-31-13-51-9-51-17-36-9 19 4 25 12 46 17 46 6 0 8-6 5-14zm-2207-22c0-8-4-14-8-14s-8 9-8 19c0 11 4 17 8 15 4-3 8-12 8-20zm185 17c3-5 1-12-5-16-5-3-10 1-10 9 0 18 6 21 15 7zm1902-43c-3-7-5-2-5 12s2 19 5 13c2-7 2-19 0-25zm486 25c13-13-14-30-39-25l-27 5 24 13c28 15 33 16 42 7zm-20-50c11 29 22 19 21-19-2-36-24-75-24-42 0 8-6 21-14 27-8 7-12 21-8 33 5 20 6 21 12 3 6-17 7-17 13-2zm-328-40c-6-32-9-35-15-18-12 28-12 47 0 40 6-3 10 2 10 11 0 10 3 15 6 11 4-3 3-23-1-44zm-138 15c-3-8-6-5-6 6-1 11 2 17 5 13 3-3 4-12 1-19zm-4440-10c-3-8-6-5-6 6-1 11 2 17 5 13 3-3 4-12 1-19zm4831-59c-3-38-10-64-19-70-26-17-33-9-11 14 16 17 22 36 22 70 0 26 3 47 6 47 4 0 4-27 2-61zm-2908 41c13-8 13-10-2-10-9 0-20 5-23 10-8 13 5 13 25 0zm2720-96c-15-81-53-204-62-204-5 0-6-5-2-12 4-6 3-8-3-5-6 4-14 0-17-9-3-8-10-12-16-9-5 3-7 0-5-8 7-17-52-100-65-92-6 3-10 1-10-6s-3-10-6-6c-3 3 5 21 19 39 42 56 55 91 52 138-2 39-2 40 4 10l6-35 8 34c4 18 7 44 7 56 0 21-3 22-40 15-36-7-40-5-40 13 0 16 2 17 15 7 13-11 18-10 28 4 12 16 14 16 32-2 20-19 20-19 32 12l13 31-6-35c-3-19-15-62-25-94-10-33-17-61-15-63 5-5 43 84 52 122 4 17 11 36 17 43s11 39 12 70c3 74 5 82 15 51 4-15 4-44 0-65zm-65 39c-4-10-8-35-9-56-2-21-7-41-11-45s-4 8 0 27c5 26 4 32-6 26-9-6-10-3-5 11 5 10 11 27 13 37 3 9 10 17 15 17 6 0 7-8 3-17zm-2744-34c55-19 87-56 100-115 10-45 10-60-4-95-9-22-14-46-11-54 3-7-5-20-18-29-28-20-18-21 25-2 35 14 82 57 108 96l17 25-5-26c-3-15-27-48-53-74-62-61-124-80-208-63-48 10-65 20-109 64-29 29-53 60-53 69 0 10 5 13 12 9 6-4 8-3 5 3-10 17 11 134 28 153 40 45 104 59 166 39zm899-8c0-6-4-13-10-16-5-3-10 1-10 9 0 9 5 16 10 16 6 0 10-4 10-9zm1270-15c0-3-4-8-10-11-5-3-10-1-10 4 0 6 5 11 10 11 6 0 10-2 10-4zm-4017-122c3-55 1-107-4-115-5-9-9 29-9 105 0 66 2 117 4 115s6-49 9-105zm4482 51c0-38-4-55-13-55-12 0-10 38 5 93 7 26 8 21 8-38zm-1717-23c4-23-4-27-27-13-17 11-7 45 12 39 6-3 13-14 15-26zm1393 6c20-37 51-57 71-47 37 20 18-18-22-43-37-25-39-25-45-7-4 10-4 23 0 29 9 14-17 50-37 50-11 0-18 8-18 20 0 28 36 26 51-2zm929-7c15-29 12-39-5-17-9 12-15 15-15 7 0-7-6-11-14-8s-17 1-19-6-7-9-11-6c-10 10 4 37 22 42 29 8 31 7 42-12zm-3440-15c0-14-4-28-10-31-6-4-10 7-10 24s5 31 10 31c6 0 10-11 10-24zm695-5c3-5 1-12-5-16-5-3-10 1-10 9 0 18 6 21 15 7zm1962-8c-2-10-8-25-11-34-6-13-1-15 24-14 36 2 37-3 9-49-20-35-39-47-39-26 0 6 4 10 10 10 5 0 14 9 20 20 10 18 9 19-15 10-17-7-24-7-20 0 3 6 1 10-6 10s-9-10-7-25c4-20 3-23-8-14-19 15-17 36 6 87 18 41 48 60 37 25zm-1628-2c10-7 9-16-10-50-13-22-27-41-30-41s-14 9-24 20c-18 20-18 21 10 50 31 33 34 34 54 21zm-2610-47c-4-63-19-67-19-5 0 29 5 51 10 51 7 0 10-19 9-46zm1947-1c-20-39-55-75-67-67-5 3 1 14 14 24 12 10 32 34 42 54 11 20 21 32 23 27s-3-22-12-38zm453-39c-5-16-4-26 6-34 9-8 13-21 9-36-7-28 19-74 41-74 16 0 20-12 9-23-8-8-84 51-84 65 0 6-9 19-21 29-26 23-28 78-3 112l18 24 17-21c12-14 14-27 8-42zm1631 48c0-9-10-23-22-31-22-13-23-13-5 6 9 11 17 25 17 31 0 7 2 12 5 12s5-8 5-18zm690 8c0-5-4-10-10-10-5 0-10 5-10 10 0 6 5 10 10 10 6 0 10-4 10-10zm-1971-108c36-33 59-62 53-66-6-3-20 7-32 24s-29 29-37 28c-9-2-17 5-19 15-3 23-34 46-51 40-13-5-18 18-6 30 7 8 8 8 92-71zm-2652 6c-2-13-4-3-4 22s2 35 4 23c2-13 2-33 0-45zm4075-23c20-8 42-10 59-5 26 8 27 7 19-15-5-13-17-33-26-44l-18-20-18 21-18 21v-24c-1-23-2-22-15 6-10 23-14 25-14 11-1-20-1-20-16 0-12 16-12 21 0 30s12 14-1 38c-16 31-19 59-4 36 8-13 10-12 11 5 1 11 4 5 6-13 3-26 11-36 35-47zm-242 50c-7-9-15-13-17-11-7 7 7 26 19 26 6 0 6-6-2-15zm-1471-53c-5-2-9-13-9-25-1-19-2-20-10-5-6 9-8 27-6 40 3 13 5 28 6 33 0 6 7-1 15-15 7-14 9-26 4-28zm150 8c0-10-3-8-9 5-12 27-12 43 0 25 5-8 9-22 9-30zm-604-61c10-44 25-83 32-86 19-7 16-31-5-42-10-5-42-13-70-17-35-4-52-12-55-23-7-28-27 36-26 82l2 42 6-35 6-35 50 3c28 2 54 7 59 12 4 5 0 48-11 99-11 49-16 88-13 86 4-2 15-41 25-86zm1977 66c3 3 13-4 22-14 17-18 17-21 1-45-22-33-31-27-39 25-6 35-9 39-19 26-16-21-49-26-55-8-3 9 1 11 15 7 12-4 25 0 33 9 9 11 16 12 25 5 6-5 14-8 17-5zm-1395-17c-3-8-6-5-6 6-1 11 2 17 5 13 3-3 4-12 1-19zm-2490-20c-3-8-6-5-6 6-1 11 2 17 5 13 3-3 4-12 1-19zm2416 6c17-6 24-34 8-34-5 0-11-9-14-21s-10-18-15-15c-6 3-8 16-4 28 3 14 1 19-6 14-6-3-14-2-17 4-10 16 3 43 18 36 6-3 20-9 30-12zm1572-12c-8-8-25 10-19 20 4 6 9 5 15-3 4-7 6-15 4-17zm-2500-2c-5-15-3-18 8-14s15-13 21-87c4-50 5-93 3-95s-18-7-37-10c-31-7-33-6-26 17 4 13 9 60 12 104 6 85 10 105 19 105 4 0 4-9 0-20zm2775 10c0-5-7-10-16-10-8 0-12 5-9 10 3 6 10 10 16 10 5 0 9-4 9-10zm-1738-15c4-5 7-21 7-35 0-23-1-23-9-5s-9 18-10-5l-2-25-7 25c-5 18-14 25-29 24-25-2-28 6-10 24 14 14 49 12 60-3zm1208 6c0-5-7-11-14-14-10-4-13-1-9 9 6 15 23 19 23 5zm473-17c-4-12-8-13-14-3-9 15-2 32 11 24 5-3 6-13 3-21zm227 11c0-10-10-15-30-15s-30 5-30 15 10 15 30 15 30-5 30-15zm-1814-20c4-8 10-12 15-9s6-2 3-10c-8-21-9-20-28 9-9 14-12 25-6 25s13-7 16-15zm-609-312c1-193-2-293-7-268-5 22-9 110-9 195-2 346-2 342-22 347-33 9-19 30 22 32 14 1 16-33 16-306zm1663 296c0-6-9-13-20-16s-20-8-20-12-9-7-20-8c-30-3-24 13 13 31 38 19 47 20 47 5zm-1560-27c-13-9-41-25-62-34-39-18-39-18-36 4 2 17 15 26 58 39 62 19 75 16 40-9zm770-6c7-9 19-16 26-16 8 0 14-7 14-15 0-11-4-13-12-8-7 5-30 19-50 32-21 12-35 27-32 32 6 11 35-3 54-25zm1201-3c-12-20-14-14-5 12 4 9 9 14 11 11 3-2 0-13-6-23zm599 17c0-5-9-10-20-10s-20 5-20 10c0 6 9 10 20 10s20-4 20-10zm-334-86c24-3 44-10 44-15 0-32-211 38-218 72-2 13 11 10 63-17 37-18 87-36 111-40zm-282 18c-6-14-8-13-14 8-9 31 0 48 12 26 5-10 6-25 2-34zm-2294 3c0-19-4-35-10-35-11 0-14 53-3 63 11 12 13 8 13-28zm757-12c3-7 26-26 52-40 25-15 48-30 51-33s22-14 43-25c46-24 52-32 37-50-13-16 1-28 35-30 17 0 21 4 18 20-2 13-1 15 3 5 8-18 64-70 76-70 4 0 11 0 14 1 4 0 11-5 15-13 6-9 9-9 9-1 0 6-4 15-10 18-5 3-10 11-10 16 0 11 49 1 68-14 8-6 27-10 42-9 17 1 30-4 34-13 3-8 16-15 29-15s29-6 35-12c10-10 15-10 22 2 8 12 10 11 10-5-1-11-7-28-14-37-14-20-36-24-36-8 0 6 5 10 10 10 6 0 10 3 10 8 0 4-26 8-58 9-31 1-70 7-87 13-16 7-41 14-54 16-13 3-48 13-78 24-29 10-53 15-53 12 0-4-4-2-8 4-12 20-91 52-112 47-14-4-20 0-20 11 0 10-4 14-10 11-5-3-10 1-10 9s-10 20-22 27c-44 22-88 72-88 99 0 15 3 29 6 32 9 10 45-4 51-19zm843 12c10-12 10-19 2-27-15-15-48 14-38 31 10 15 21 14 36-4zm112-7c-7-7-12-8-12-2s3 14 7 17c3 4 9 5 12 2 2-3-1-11-7-17zm558 12c0-5-4-10-10-10-5 0-10 5-10 10 0 6 5 10 10 10 6 0 10-4 10-10zm-980-20c0-5-8-10-17-10-15 0-16 2-3 10 19 12 20 12 20 0zm390 6c0-3-4-8-10-11-5-3-10-1-10 4 0 6 5 11 10 11 6 0 10-2 10-4zm1400-41c0-13-4-27-10-30-6-4-10 8-10 30s4 34 10 30c6-3 10-17 10-30zm-1670 10c-10-12-10-15 4-15 9 0 16 5 16 10 0 14 37 12 44-2 3-10 9-8 19 5 14 17 37 23 37 10 0-5-7-16-15-26-13-18-49-19-187-8-5 1-8 5-8 10 0 6 16 7 35 4 28-4 35-2 35 11 0 9 7 16 16 16 14 0 14-3 4-15zm909-4 22-19-35-36c-20-19-36-40-36-46 0-13-17-13-25 0-4 6-11 8-16 5-11-8-11 43 1 70 5 11 9 16 9 12 1-5 13 1 27 12 32 25 26 25 53 2zm588-28c-3-10-5-2-5 17s2 27 5 18c2-10 2-26 0-35zm-270 0c-3-10-5-4-5 12 0 17 2 24 5 18 2-7 2-21 0-30zm-1024 13c6-16-19-30-28-16-7 11 2 30 15 30 4 0 10-6 13-14zm-1430-63c7-64-13-185-38-233s-26-32-3 35c15 43 21 88 22 162 1 110 10 127 19 36zm2429 34c7-12 3-85-6-94-2-3-10 16-18 42-14 50-30 60-38 24l-6-22-15 24c-25 38-14 52 34 45 23-4 45-12 49-19zm-2627-85c-4-31-10-51-12-44-3 7-2 39 2 70s10 51 12 44c3-7 2-39-2-70zm2444 37c-21-12-35 7-19 26 12 15 14 15 23-1 6-11 5-19-4-25zm107-37c-7-22-35-37-47-25-4 4-11 21-14 36-6 21-4 27 6 25 8-2 13 5 12 16-1 16 2 16 24-6 17-18 23-32 19-46zm531 46c-3-8-6-5-6 6-1 11 2 17 5 13 3-3 4-12 1-19zm-4604-13c-7-21-13-19-13 6 0 11 4 18 10 14 5-3 7-12 3-20zm-256-27c-3-8-6-5-6 6-1 11 2 17 5 13 3-3 4-12 1-19zm4245-20c-9-9-12-7-12 12s3 21 12 12 9-15 0-24zm505 26c-3-3-12-4-19-1-8 3-5 6 6 6 11 1 17-2 13-5zm-1117-14c0-5-5-10-11-10-5 0-7 5-4 10 3 6 8 10 11 10 2 0 4-4 4-10zm220 0c0-12-69-42-84-37-6 2 6 10 27 17 20 8 37 18 37 22s5 8 10 8c6 0 10-4 10-10zm370-6c0-8-4-12-10-9-5 3-10 10-10 16 0 5 5 9 10 9 6 0 10-7 10-16zm-199-21c-8-15-10-15-11-2 0 17 10 32 18 25 2-3-1-13-7-23zm409 17c0-5-4-10-10-10-5 0-10 5-10 10 0 6 5 10 10 10 6 0 10-4 10-10zm290-14c0-3-4-8-10-11-5-3-10-1-10 4 0 6 5 11 10 11 6 0 10-2 10-4zm-1385-24c39-2 97 1 129 7 34 6 62 7 65 2s14-10 24-12 19-8 20-13c1-4-80-9-181-10-151-1-184-4-192-16s-10-9-10 11c0 28 34 52 60 42 8-4 47-8 85-11zm615 9c0-10-56-67-87-88-18-12-23-25-23-59 0-24-4-44-8-44-5 0-6 14-4 31 3 23 1 30-7 25-6-4-11-13-10-19 1-7-1-28-5-48l-8-36-56 5c-31 2-58 5-59 6s-4 32-5 69c-2 37-6 67-10 67-5 0-8 16-8 36 0 21 4 33 10 29 6-3 10-1 10 4 0 12 61 15 97 5 16-4 23-15 25-38 5-51 38-47 89 13 40 48 59 62 59 42zm290-11c0-5-4-10-10-10-5 0-10-13-10-30 0-29 1-30 50-30h50v34c0 45 17 55 22 13 3-17 8-40 13-49 6-16-1-18-91-18-83 0-95 2-80 13 10 7 19 26 19 43 2 27 12 43 30 44 4 0 7-4 7-10zm481-23c-13-13-26-3-16 12 3 6 11 8 17 5 6-4 6-10-1-17zm-1101-22c0-12-7-25-15-29-8-3-15-13-15-23-1-16-2-16-12 1-9 16-7 23 11 37 14 11 19 23 14 35-4 12-3 15 5 10 7-4 12-18 12-31zm536-1c9-35-10-53-26-24-12 23-7 50 9 50 6 0 14-12 17-26zm284-4c0-5-9-10-21-10-11 0-17 5-14 10 3 6 13 10 21 10s14-4 14-10zm305-11c-8-12-45-12-45 0 0 10 30 20 43 14 4-3 5-9 2-14zm-2971-30c7-46 44-89 78-89 17 0 19-3 10-12-17-17-77 16-91 51-16 43-23 91-13 91 5 0 12-18 16-41zm1423-16c-3-10-5-2-5 17s2 27 5 18c2-10 2-26 0-35zm103 22c0-9-6-12-15-9-8 4-15 10-15 15s7 9 15 9 15-7 15-15zm200-5c0-5-7-7-15-4-8 4-12 10-9 15 6 11 24 2 24-11zm930 0c0-5-4-10-10-10-5 0-10 5-10 10 0 6 5 10 10 10 6 0 10-4 10-10zm50 0c0-5-5-10-11-10-5 0-7 5-4 10 3 6 8 10 11 10 2 0 4-4 4-10zm280-10c12-7 12-12 2-22-9-9-12-9-12 1 0 8-7 11-20 8-20-5-26 3-13 16 9 10 25 8 43-3zm-2247-45c9-8 21-32 27-52 7-21 23-48 37-59 21-18 23-25 14-42-9-18-4-46 29-154 40-130 42-134 101-193 46-46 59-65 57-85-3-26-11-28-60-15l-28 7v-82-82l60 5c35 3 63 1 66-5 12-19-31-48-74-50-27-1-47-7-53-17-7-12-8-8-4 14 6 32-26 229-49 305-8 25-27 86-42 135-15 50-30 95-34 100-4 6-15 34-24 63-11 33-23 52-33 52s-14 6-10 20c3 11-1 44-9 73-7 28-14 58-14 65 0 17 25 15 43-3zm1877-6c0-5-4-9-10-9-5 0-10 7-10 16 0 8 5 12 10 9 6-3 10-10 10-16zm83 14c-7-2-19-2-25 0-7 3-2 5 12 5s19-2 13-5zm257-3c0-5-4-10-9-10-6 0-13 5-16 10-3 6 1 10 9 10 9 0 16-4 16-10zm-4793-52c-3-8-6-5-6 6-1 11 2 17 5 13 3-3 4-12 1-19zm4462-14c2 18 31-18 31-38 0-12 14-35 30-51 17-16 30-35 30-42s5-13 10-13c6 0 10-7 10-16 0-11-5-14-16-10-9 3-20 6-25 6s-8 5-6 11c1 7-20 12-55 13-32 1-60 5-63 8s1 21 9 39c8 19 18 57 22 84 6 43 8 46 15 25 4-14 7-21 8-16zm81 26c0-5-4-10-10-10-5 0-10 5-10 10 0 6 5 10 10 10 6 0 10-4 10-10zm-1032-23c2-10-3-17-12-17-18 0-29 16-21 31 9 14 29 6 33-14zm-3260-132c-3-33-2-69 2-80 5-14 2-22-9-26-25-10-51 2-51 23 0 10 5 16 10 13 6-3 10 0 10 8s7 21 16 28c16 14 16 20-1 144l-6 40 17-45c11-31 15-63 12-105zm-254-4c-4-36-9-57-12-46-2 11-9 23-16 28-8 5-6 11 7 21 11 9 17 28 18 57 1 24 4 35 6 25 3-10 2-49-3-85zm3558 50c4-24 14-54 23-67 14-22 13-24-6-34-26-15-29-12-33 37-4 54-32 95-60 87-11-3-27-14-35-25-14-20-31-25-31-10 0 5 10 20 21 33 17 19 31 24 67 23h46zm168 42c0-16-75-74-79-62-2 7 11 26 30 41 33 28 49 35 49 21zm-3883-80c-2-16-4-3-4 27s2 43 4 28c2-16 2-40 0-55zm380 45c-3-7-5-2-5 12s2 19 5 13c2-7 2-19 0-25zm4003 19c0-14-20-37-32-37-4 0-8 11-8 25 0 18 5 25 20 25 11 0 20-6 20-13zm17-24c-3-10-5-4-5 12 0 17 2 24 5 18 2-7 2-21 0-30zm162-5c-27-54-28-55-39-38-8 13-4 52 7 73 2 4 15 7 29 7h24zm-129 11c0-6-4-7-10-4-5 3-10 11-10 16 0 6 5 7 10 4 6-3 10-11 10-16zm-2350 6c0-3-13-19-29-35-22-23-30-27-34-16-6 16 11 41 33 49 20 7 30 8 30 2zm1690-15c0-5-6-10-14-10-21 0 3-57 26-63 17-5 26-37 11-37-16 0-29 16-46 52-23 48-22 68 3 68 11 0 20-4 20-10zm1024-12c8-32-10-47-29-22-20 26-19 44 4 44 11 0 21-9 25-22zm-4674-13c-7-9-15-13-17-11-7 7 7 26 19 26 6 0 6-6-2-15zm4750-55c0-44-4-70-11-70-18 0-81 68-76 82 2 7 14 12 25 10 16-2 22 2 22 16 0 22 8 32 27 32 10 0 13-18 13-70zm-3380 40c0-5-5-10-11-10-5 0-7 5-4 10 3 6 8 10 11 10 2 0 4-4 4-10zm290 6c0-3-4-8-10-11-5-3-10-1-10 4 0 6 5 11 10 11 6 0 10-2 10-4zm460-66-11-25 6 25c2 14 5 34 6 45 2 19 2 19 6 0 2-12-1-32-7-45zm-2130 40c0-5-4-10-10-10-5 0-10 5-10 10 0 6 5 10 10 10 6 0 10-4 10-10zm4455-9c3-5 1-12-5-16-5-3-10 1-10 9 0 18 6 21 15 7zm-3091-16c-4-8-10-15-15-15-4 0-6 7-3 15 4 8 10 15 15 15 4 0 6-7 3-15zm1219-32c5-25 3-33-8-33-16 0-20 26-9 55 8 20 10 18 17-22zm-753 17c8-5 12-11 10-13-10-7-100 5-100 14 0 12 71 11 90-1zm1892-32c-9-9-12-7-12 12s3 21 12 12 9-15 0-24zm-3618 10c-3-4-9-8-15-8-5 0-9 4-9 8 0 5 7 9 15 9s12-4 9-9zm1866-78c-6-4-8-15-5-26 5-16 3-15-11 4-20 27-34 28-34 3 0-10-7-24-16-32-13-11-14-9-8 16l7 28-43-7c-43-7-44-7-26 13 18 19 17 20-22 30-22 6-46 9-53 7-8-2-27-7-42-11-20-4-27-10-23-20 8-21-13-29-40-15-21 12-28 10-61-15-58-43-114-105-125-137-16-46-22-23-8 28 10 34 29 63 69 104 71 72 142 100 262 104 101 4 109 1 110-33 1-17 3-20 6-8 5 20 29 23 36 5 3-7 3 3 1 22l-5 35 21-44c13-30 17-47 10-51zm-2053-2c-2-18-4-6-4 27s2 48 4 33 2-42 0-60zm133 72c0-5-5-10-11-10-5 0-7 5-4 10 3 6 8 10 11 10 2 0 4-4 4-10zm1300-10c0-11-7-20-15-20-18 0-19 12-3 28s18 15 18-8zm2310 1c0-12-9-20-26-24-19-3-24-1-20 10 3 8 6 19 6 24s9 9 20 9c13 0 20-7 20-19zm714-2c-10-12-37-35-59-53l-39-31 24 33c20 27 75 71 89 72 2 0-4-9-15-21zm-786-3c-2-1-16-10-33-20l-30-19 24 26c13 15 28 24 33 21s8-7 6-8zm120-56-3-25-13 23c-8 15-11 34-7 50l7 27 10-25c5-13 8-36 6-50zm-201 38c-3-8-6-5-6 6-1 11 2 17 5 13 3-3 4-12 1-19zm1017-3c3-9 0-15-9-15-16 0-27 14-18 24 10 10 21 7 27-9zm180 8c4-4 15-8 23-8 9 0 18-6 21-14 3-10 0-11-9-5-8 4-23 8-33 9-11 0-21 6-23 13-5 13 9 16 21 5zm-3726-27c11-14 26-44 33-68s18-50 24-58c7-8 15-31 19-50 16-95 51-238 69-285 16-41 38-56 105-68 22-5 32-3 32 6 1 8 5 7 13-3 7-9 39-22 72-29 72-17 87-25 191-113 45-37 87-68 94-68 8 0 23 8 34 18l21 17-20-23c-24-29-12-53 31-58 17-2 44-10 60-19 31-16 130-20 153-6 14 9 10 86-9 172-13 64-13 64 217 65 167 1 213-1 232-13 17-11 20-18 12-26-6-6-11-19-11-29 0-11-7-18-19-18-17 0-20-8-23-52l-3-53-44 4c-25 1-51 9-58 17-8 8-18 14-21 14-10 0-33-80-27-91 4-5-2-9-12-9-15 0-15-2-3-9 8-6 19-7 24-3 12 7 142 4 169-4 9-3 17-12 17-20 0-11-4-12-19-4-28 14-44 12-37-5 3-8 1-15-4-15-6 0-10 6-10 13 0 8-17 12-55 11-55-2-74-8-62-21 9-8 92-24 135-25 51-1 39-24-17-31-63-7-100 3-165 47-55 38-106 56-106 37 0-6-9-11-20-11s-20-5-20-11c0-5-4-7-10-4-5 3-10 15-10 26 0 14-4 18-12 12-7-4-56-6-108-5-70 2-99 7-112 19-11 10-18 12-18 5s-4-12-10-12c-5 0-10 6-10 13 0 9-10 12-31 9-24-4-31 0-36 17-3 11-10 21-15 21s-6-6-2-12c3-7-5 1-20 17-14 17-25 33-26 37 0 4-8 9-17 12-10 3-32 19-50 36-18 16-36 30-40 30-5 0-14 9-20 19-7 11-20 19-30 19-21-1-139 28-168 42-11 5-37 13-58 19l-38 10 5-77c3-42 3-67 0-55-3 13-11 20-19 17-11-5-14 15-17 93-3 66-12 120-27 168-13 39-25 82-28 98-3 15-8 27-12 27-3 0-7 17-8 38 0 20-12 77-27 127-19 66-33 95-54 112-25 20-25 22-6 23 11 0 30-11 42-24zm2308-19c-6-25-28-57-72-104-53-55-58-37-8 25 26 31 54 72 63 90 16 35 27 28 17-11zm-3249 1c-3-7-5-2-5 12s2 19 5 13c2-7 2-19 0-25zm2623 1c6-10 10-25 10-34 0-15-3-14-30 2-30 18-39 33-19 33 6 0 9 7 6 14-8 21 21 8 33-15zm-2280 1c0-11-4-20-9-20s-7 9-4 20 7 20 9 20 4-9 4-20zm3280 10c0-5-12-10-27-9-25 0-26 1-8 9 27 12 35 12 35 0zm934-11c14-11 26-25 26-31 0-7-10-2-23 10s-31 22-40 22-17 5-17 10c0 16 26 11 54-11zm-3439 1c3-5-1-10-9-10-9 0-16 5-16 10 0 6 4 10 9 10 6 0 13-4 16-10zm348-22c-32-35-65-98-87-169-8-25-14-35-15-23-3 60 86 224 122 224 6 0-3-15-20-32zm-303 12c0-5-5-10-11-10-5 0-7 5-4 10 3 6 8 10 11 10 2 0 4-4 4-10zm813-15c10-14 13-25 7-25-20 0-10-21 25-51l35-31-1-167c-2-155-2-160-9-73-8 92-26 188-40 207-10 14-50 136-50 152 0 20 13 15 33-12zm920 14c48-1 84-5 81-10s-20-9-38-9c-24 0-36-6-45-22-6-13-10-16-7-6 5 17-19 28-66 28-19 0-28 5-28 16 0 8 4 13 9 10 4-3 47-6 94-7zm-1632-58c-8-2-17 2-19 8s-8 9-13 5c-17-10-9 19 8 31 15 11 19 10 29-13 9-22 8-28-5-31zm1874 49c-3-5-22-10-41-10s-34 5-34 10c0 6 18 10 41 10 24 0 38-4 34-10zm1026-23c-5-14-15-28-21-32-5-3-3 10 7 29 19 40 29 42 14 3zm-4203-2c-3-3-9 2-12 12-6 14-5 15 5 6 7-7 10-15 7-18zm36 10c3-8 2-23-1-32-6-15-7-15-14 3-11 27-11 44 0 44 5 0 11-7 15-15zm2555-37c0-29-3-46-6-38-4 8-12 20-20 25-11 8-11 15-1 37 19 42 28 34 27-24zm-2622 10c-3-7-5-2-5 12s2 19 5 13c2-7 2-19 0-25zm880 0c-3-8-6-5-6 6-1 11 2 17 5 13 3-3 4-12 1-19zm2796-80c17-11 35 2 46 33l10 30 21-21c12-12 33-20 55-20 19 0 35-4 35-9 0-12 98-13 120-1 24 13 52-10 56-45 2-16 9-32 16-36 12-8 132-14 186-9 16 1 22-4 22-19 0-24 0-24-34-12-18 7-28 6-36-5-10-11-9-14 4-14 10 0 16-8 16-21 0-19-4-20-47-14-54 7-86 22-78 36 4 5-4 9-17 10-21 0-349-1-553-2-118-1-187 3-211 12-12 4-25 5-28 1-10-9-78-10-103-1-13 5-23 5-23 0s17-13 37-18c24-6 39-15 41-27 4-17-2-18-52-14-67 6-75 12-51 38 17 18 14 25-9 21-5-1-40-4-77-6-68-5-69-5-69 20 0 23 4 25 43 25 50 0 87 9 87 21 0 5-7 9-16 9-29 0-8 25 24 28 18 2 32 7 32 13 0 5 5 9 11 9 5 0 7-4 4-10-5-8 220-17 272-11 6 1 14-3 18-9s-8-10-32-10c-40 0-72-14-60-26 13-13 322-15 350-1 28 13 38 33 12 23-23-8-80 5-63 15 10 7 10 11 0 21-6 6-12 21-11 33 0 20 0 20 9 0 7-16 9-10 10 25l2 45 11-50c5-27 14-53 20-57zm908 80c1-7 1-16 0-20-1-7 14-12 30-10 9 2 20-58 13-69-12-19-44-8-59 21-20 38-20 90 0 90 8 0 16-6 16-12zm76-10c-3-8-6-5-6 6-1 11 2 17 5 13 3-3 4-12 1-19zm-3267-9c0-15-18-19-23-6-3 8 1 14 9 14s14-4 14-8zm61-12c-10-9-11-8-5 6 3 10 9 15 12 12s0-11-7-18zm385-4c-2-9-8-19-14-21-14-4-15 0-6 22 8 21 23 20 20-1zm1253 6c168-3 110-29-92-42-21-1-41-8-46-15-7-11-9-11-14 2-4 9-10 15-14 14-19-4-63 15-63 28 0 16 36 19 45 4s41-12 55 5c7 8 15 13 19 10 4-2 53-5 110-6zm1181-51c0-64-5-60-14 10-5 37-4 52 4 47 5-3 10-29 10-57zm510 47c0-8-4-15-10-15-5 0-7 7-4 15 4 8 8 15 10 15s4-7 4-15zm-3513-17c-3-8-6-5-6 6-1 11 2 17 5 13 3-3 4-12 1-19zm3443 12c0-5-4-10-10-10-5 0-10 5-10 10 0 6 5 10 10 10 6 0 10-4 10-10zm-4312-17c-8-10-21-27-27-38-11-18-11-18-5 5 3 14 13 31 22 38 23 17 28 15 10-5zm251-200c1-76-3-123-9-123s-10 63-9 173c1 122 4 158 9 122 5-27 9-105 9-172zm1033 175c-5-43-32-88-32-52 0 9-8 22-17 29-14 11-20 10-31-4-10-12-15-13-18-3-3 6-14 12-25 12-10 0-19 6-19 14 0 19 23 33 28 18 2-7 19-12 37-12 19 0 37-4 40-10 10-16 28-11 21 6-5 13 8 44 18 44 1 0 0-19-2-42zm58 21c0-11-4-17-10-14-5 3-10 13-10 21s5 14 10 14c6 0 10-9 10-21zm38-10c-3-8-7-3-11 10-4 17-3 21 5 13 5-5 8-16 6-23zm2972 4c0-20-24-11-28 10-2 12 1 15 12 11 9-3 16-13 16-21zm-2817-29c-11-23-25-39-35-39s-23-6-30-13c-9-9-7-12 14-12 24 0 38-16 38-42 0-18-82 1-97 22-8 11-20 17-29 13-9-3-20 0-25 8-8 12-12 11-24-5-8-11-15-14-15-8 0 7 13 26 29 42 21 23 30 27 34 16 3-7 0-19-6-25-7-7-7-11 0-11 13 0 56 40 70 64 8 15 79 38 91 30 2-1-5-19-15-40zm92 2c-24-17-30-13-20 11 5 10 7 23 6 28-1 6 6 2 15-7 17-17 17-18-1-32zm692 22c-3-8-6-5-6 6-1 11 2 17 5 13 3-3 4-12 1-19zm-726-11c-13-13-26-3-16 12 3 6 11 8 17 5 6-4 6-10-1-17zm-1808-6c9-1 17-6 17-12 0-8-18-10-57-6-32 4-63 6-70 7-7 0-10 6-7 13 4 10 16 12 52 6 26-4 55-8 65-8zm4512 5c17-17 9-26-22-26-21 0-22 3-13 20 13 24 17 24 35 6zm-3271-32c-6-25-8-26-14-9-4 11-3 26 3 33 14 18 19 9 11-24zm294-10c-12-12-14-10-12 13 2 39 3 40 15 19 9-14 8-22-3-32zm-388-12c0-15 5-34 11-42 7-11 9-2 7 35-2 41 0 50 15 53 13 3 17-3 17-26 0-66-11-93-41-99-16-3-30-12-30-19-1-8-3-18-4-24-1-5-3-18-4-27-1-16-3-16-11-3-13 21-13 107 1 116 7 4 9 21 5 46-6 37-5 38 14 28 12-7 20-21 20-38zm-1080 28c0-5-5-10-11-10-5 0-7 5-4 10 3 6 8 10 11 10 2 0 4-4 4-10zm1036-28c-10-10-29 15-21 28 6 9 10 8 17-4 6-10 7-20 4-24zm1431 16c-3-8-6-5-6 6-1 11 2 17 5 13 3-3 4-12 1-19zm2063-3c17-20-2-43-33-40-36 4-37 4-37 18 0 34 48 49 70 22zm-4790-9c0-11-19-15-25-6-3 5 1 10 9 10 9 0 16-2 16-4zm180-22c0-2-7-4-15-4s-15 4-15 10c0 5 7 7 15 4 8-4 15-8 15-10zm60 4c18 3 30 0 30-7 0-6-11-11-24-11-23 0-24-3-24-72 0-40 4-82 10-93 9-20 9-20-6-1-12 14-16 42-16 98 0 48-4 78-11 78-5 0-7 5-3 12 5 7 9 8 11 2s17-8 33-6zm2091-98c112-114 132-147 82-137-18 3-37-2-55-15-32-22-35-18-11 18l17 26-87 84c-77 74-104 114-79 114 5 0 47-39 94-87 90-94 146-143 88-78-39 43-41 46-120 128-98 102-42 60 71-53zm427 62c-2-8-19-20-38-25s-40-13-47-19c-8-6-15-3-22 9-13 25 0 44 41 58 38 13 71 2 66-23zm1743-18c77-48 112-100 105-156-5-43 0-49 14-15 6 16 9 3 9-50 1-71-10-96-32-74-6 6-10 41-10 78 0 40-5 78-13 93-17 30-50 70-59 70-3 0-21 11-38 24-27 20-46 25-115 28-48 2-84-1-86-7-3-5-5 6-5 25l-1 35 84-5c75-5 89-10 147-46zm-3271-21c0-71-15-81-16-12-1 32 2 59 7 59s9-21 9-47zm764-12c7-46 0-69-28-95l-21-18 25 7c24 7 25 7 7-12-21-24-63-20-78 8-7 15-6 17 6 13 8-4 15-3 15 0 0 4-11 11-25 16-34 13-31 23 9 43 28 13 35 23 41 56 6 35 9 39 25 31 10-5 20-26 24-49zm2807-64 3-117h58c69 0 79-20 11-21-66-1-117 2-123 8-3 3 5 13 18 23 14 12 19 21 11 25-6 4-9 16-6 26 9 35-19 49-94 49-52 0-69 3-69 14 0 15 52 28 112 27 32 0 40 4 53 29 8 16 15 37 15 46 0 10 2 15 4 13 3-2 6-57 7-122zm-3149 8c-3-5-7-4-10 3-2 7-10 12-17 12s-16 7-19 16c-5 12-10 14-20 5-7-6-16-8-19-4-4 3-7 3-7-1 0-3 11-11 25-16 30-11 32-21 6-37-24-15-39 1-51 52-8 35 5 60 16 31 6-16 10-14 52 24 16 14 18 11 33-30 9-25 14-49 11-55zm423 95c3-5 1-10-4-10-6 0-11 5-11 10 0 6 2 10 4 10 3 0 8-4 11-10zm-914-32c2-31 2-31 6-5 7 44 23 31 23-18 0-57-22-61-38-6-15 47-15 61-2 61 6 0 11-15 11-32zm-768-18c3-11 1-20-4-20s-9 9-9 20 2 20 4 20 6-9 9-20zm4507-6c0-16-9-18-29-5-7 5-11 14-7 19 9 15 36 4 36-14zm-4642-19c-3-3-9 2-12 12-6 14-5 15 5 6 7-7 10-15 7-18zm1840-37c-2-4-14-1-27 8-23 17-23 18-5 31 16 12 19 11 26-8 5-12 7-26 6-31zm2169 20c-3-7-5-2-5 12s2 19 5 13c2-7 2-19 0-25zm-3245-26c-3-25-7-28-33-24-36 5-37 14-4 32 14 7 25 17 25 22s4 7 8 4c5-3 7-18 4-34zm3149 1c-9-17-10-17-17 1-4 11-2 21 7 27 18 11 24-5 10-28zm-964 5c-3-8-6-5-6 6-1 11 2 17 5 13 3-3 4-12 1-19zm1076-15c9 3 21-1 28-9 8-10 27-14 54-13 42 3 65-5 65-22 0-6-18-8-45-5-34 3-49 0-62-12-16-16-16-16-10 1 6 16-7 25-16 10-4-7-43-8-102-4-10 1-15 11-15 31 0 32 9 37 28 18 10-9 16-8 29 5 12 12 19 13 24 5 4-6 14-8 22-5zm-1593 3c0-2-7-6-15-10-8-3-15-1-15 4 0 6 7 10 15 10s15-2 15-4zm558-28c2-19-1-26-12-24-23 3-29 12-21 36 9 28 29 20 33-12zm-238-4c0-8 8-14 17-14 15 0 14-2-3-15-27-20-36-18-29 5 4 12 1 28-6 36-10 12-9 13 5 8 9-3 16-12 16-20zm968-6c3-16-24-32-39-22-5 3-9 14-9 25 0 13-4 18-12 13-6-4-8-3-4 4 9 15 60-1 64-20zm88-45c-11-12-36 7-36 28 0 15-5 19-15 15-11-4-15 1-15 17 1 20 4 18 36-16 20-21 33-41 30-44zm-4026 57c0-5-7-10-15-10s-15 5-15 10c0 6 7 10 15 10s15-4 15-10zm3272-9c8-10 22-21 29-25 11-5 11-7 2-12-7-3-13-10-13-16s6-8 13-5c8 3 12-11 13-49 1-30 7-61 14-69 9-10 9-15 1-15-6 0-11-18-11-43 0-28-5-44-12-44-88-4-108-8-104-20 7-16-32-53-56-53-12 0-17 6-15 20 4 25 17 38 17 17 0-25 15-21 28 8 11 23 10 25-13 25-27 0-41 16-37 43 2 10-3 17-13 17s-3 11 21 32c29 25 35 37 32 60-4 25-1 28 23 28 18 0 28 6 32 20 3 12 14 20 25 20s23 7 26 16c9 23 9 23-21 21-22-2-29 3-31 21-4 28 26 30 50 3zm1423 9c-3-6-13-10-22-10s-13-6-9-15c3-9 0-15-8-15s-12 9-11 23c1 12 3 22 4 22 22 6 51 2 46-5zm-2015-19c42-3 53-12 44-34-6-17-40-22-81-11-18 5-23 14-23 36 0 23 3 28 13 21 6-5 28-10 47-12zm1950-16c0-5-5-3-10 5s-10 20-10 25c0 6 5 3 10-5s10-19 10-25zm200 26c0-13-26-32-33-24-14 13-6 33 13 33 11 0 20-4 20-9zm-2673-43c-3-7-5-2-5 12s2 19 5 13c2-7 2-19 0-25zm1664 11c26-41-12-109-62-109-22 0-27-4-22-16 4-12 1-15-13-12-12 2-18 11-17 23 2 11 3 46 4 77l1 58 50-3c29-2 53-9 59-18zm-2891 1c4 7 15 10 23 8 14-3 14-7-5-36-23-36-38-29-37 18 0 14 3 19 6 11 4-10 7-10 13-1zm1125-9c-3-6-15-11-26-11s-18 4-14 10c3 5 12 7 20 3 8-3 15 1 15 8s3 10 6 6c3-3 3-10-1-16zm75 1c0-10-7-19-15-19-18 0-19 9-3 25s18 15 18-6zm-319-5c-1-12-15-9-19 4-3 6 1 10 8 8 6-3 11-8 11-12zm409 3c0-5-7-10-15-10s-15 5-15 10c0 6 7 10 15 10s15-4 15-10zm2799-34c-26-12-33-3-19 24 11 21 12 21 25 3 12-16 11-19-6-27zm-3117 16c8-8 5-10-8-7-11 2-29 4-41 4-13 1-23 4-23 9 0 11 59 7 72-6zm-1955-14c-3-8-6-5-6 6-1 11 2 17 5 13 3-3 4-12 1-19zm383 15c0-5-4-15-10-23-11-18-25-7-17 15 6 15 27 21 27 8zm1630-3c0-5-5-10-11-10-5 0-7 5-4 10 3 6 8 10 11 10 2 0 4-4 4-10zm-1695-126c-4-41-11-74-16-74-9 0-6 57 8 140 10 59 16 13 8-66zm125 51c-17-32-24-25-15 15 5 23 10 29 18 21s7-18-3-36zm4580 7c0-4-5-13-12-20-9-9-9-12 1-12 9 0 12-10 9-30-2-16 0-32 6-34s1-5-11-5c-27-1-51 35-34 52s13 33-11 45c-21 10-20 11 15 11 20 1 37-3 37-7zm-4582-100c-9-16-14-43-12-64 1-21-1-40-7-43-10-7-13 106-3 142 6 20 8 21 22 7s14-18 0-42zm4192 17c0-22-5-29-20-29-17 0-19 4-14 28 9 36 14 43 25 37 5-4 9-19 9-36zm-973-11c0-21-5-42-11-45-6-4-61-8-123-10-110-4-112-3-128 21-9 14-15 33-13 43 3 16 17 19 108 23 187 9 167 13 167-32zm-1807 18c0-20-11-46-19-46-4 0-6 14-3 30 4 30 22 43 22 16zm2950-11c0-14-4-25-10-25-5 0-10 11-10 25s5 25 10 25c6 0 10-11 10-25zm-487 3c13-14 17-168 5-168-5 0-8 11-8 24 0 14-10 32-22 42l-23 16 22-5c18-4 21-1 21 23-1 15 2 32 6 39 5 7-3 11-23 11-30 0-46 11-34 24 11 10 44 7 56-6zm-96-48c1-25 0-40-3-33s-11 10-19 7c-7-3-16-1-20 5-3 7 2 11 14 11s21 4 21 9-28 8-62 7c-35-1-74 2-87 8-22 10-17 12 40 21 111 18 114 17 116-35zm-1650-2c-3-8-6-5-6 6-1 11 2 17 5 13 3-3 4-12 1-19zm1388 4 70-7-55-5c-74-7-142 2-148 19-4 11 3 12 29 7 19-4 66-10 104-14zm-1261-17c-3-7-12-16-20-19s-14-11-14-17c0-8 4-8 15 1 13 11 15 8 15-14 0-28-9-33-28-14-9 9-12 7-13-12l-1-25-8 25c-11 36-12 62 0 55 5-3 17 6 26 20 16 25 38 26 28 0zm1383 0c10-27-6-30-29-7l-22 22h22c12 0 25-7 29-15zm-1274-18c3-8 1-20-4-28-6-10-9-7-9 14 0 29 5 35 13 14zm1843-43c6-27 7-47 2-50-13-8-78 5-78 16 0 5 7 7 15 4 10-4 15 0 15 14 0 11 7 22 15 26 8 3 15 10 15 16s-4 8-10 5-7 1-4 10c9 22 16 12 30-41zm-1640 15c12-19-16-27-59-16-39 10-40 11-17 18 39 11 68 10 76-2zm2081-21c-3-7-5-2-5 12s2 19 5 13c2-7 2-19 0-25zm-3912-20c-8-44-21-62-39-51-5 3-1 12 9 20 14 9 16 16 8 24-14 14-4 49 14 49 12 0 13-9 8-42zm2444-2c54-38 86-122 62-163-9-14-9-12-5 15 6 27 4 32-13 32-10 0-28 7-39 15-12 8-24 12-26 10-3-3-26 4-52 15-50 23-73 20-100-9-17-18-19-18-47-3-40 24-39 35 13 80 62 55 135 58 207 8zm-2309 4c0-16-4-30-10-30-5 0-10 14-10 30 0 17 5 30 10 30 6 0 10-13 10-30zm-443-25c1-18-5-36-11-38-9-4-13 8-14 38 0 30 4 42 12 39 7-3 12-20 13-39zm1923-26c0-37-4-49-15-49-8 0-15-4-15-10 0-18-18-11-25 9-8 25 14 61 33 54 11-5 13 1 7 27-5 23-4 30 4 26 6-4 11-29 11-57zm-210 21c-6-12-14-19-17-17-2 3 1 15 7 27s14 19 17 17c2-3-1-15-7-27zm120 20c0-5-4-10-10-10-5 0-10 5-10 10 0 6 5 10 10 10 6 0 10-4 10-10zm531-7c40-24 36-37-8-30-41 7-59 20-49 36 10 15 23 14 57-6zm1069-43c0-27 0-53 1-57 0-4-5-9-11-11-7-3-9 6-6 22 3 14 1 26-3 26s-7 10-5 23c1 12 3 28 3 35 1 6 6 12 11 12 6 0 10-22 10-50zm790 29c0-6-4-7-10-4-5 3-10 11-10 16 0 6 5 7 10 4 6-3 10-11 10-16zm-3975-43c-4-25-10-44-14-41-4 2-3 24 3 49 13 57 20 52 11-8zm506 8c-12-21-21-46-22-54 0-9-2-11-5-3-6 14 34 109 42 101 3-3-4-23-15-44zm1041 21c3-14 1-25-3-25-5 0-9 11-9 25s2 25 4 25 6-11 8-25zm328 11c0-16-37-28-46-15-3 5 0 9 6 9s8 5 5 10c-3 6 3 10 14 10 12 0 21-6 21-14zm-440-16c0-4-8-11-17-14-19-8-38 7-29 22 7 11 46 4 46-8zm170-25c0-8-4-15-9-15-13 0-22 16-14 24 11 11 23 6 23-9zm267-20c-2-28-6-35-23-35s-21 6-20 28c1 24 15 39 38 41 5 1 7-15 5-34zm63 19c0-8-5-12-10-9-6 4-8 11-5 16 9 14 15 11 15-7zm237-16c-3-8-6-5-6 6-1 11 2 17 5 13 3-3 4-12 1-19zm1537 6c3-8 2-12-4-9s-10 10-10 16c0 14 7 11 14-7zm-2359-16c17-1 36 1 43 6 16 10 54-3 46-15-3-6-12-8-20-5s-14 0-14-7c0-8-16-14-42-15-24-2-51-5-61-8s-20 1-23 10c-9 25 4 48 23 42 10-3 32-6 48-8zm892-10c-3-8-6-5-6 6-1 11 2 17 5 13 3-3 4-12 1-19zm1316 2c4-4 9-19 10-35 2-23-3-29-24-35-22-6-30-2-53 27-27 33-27 35-9 48 17 13 59 11 76-5zm-3813-32c0-25-3-29-10-18-13 20-13 50 0 50 6 0 10-15 10-32zm3617-10c-3-7-5-2-5 12s2 19 5 13c2-7 2-19 0-25zm340 10c2-17 0-19-7-8-5 8-6 18-4 22 8 12 10 10 11-14zm-717-33v-45l43-1c81-2 110 3 130 22 12 10 16 19 10 19-7 0-11 9-10 20 1 12 8 20 19 20s15-5 12-15c-4-8-1-15 4-15 6 0 13-9 17-19 3-11 16-21 27-23 12-2 23-9 26-15 3-10-29-13-137-13h-141v-41c0-68-39-110-54-56-11 40-7 57 13 57 31 0 43 61 19 99-12 20-5 51 12 51 5 0 10-20 10-45zm-1105 26c-3-5 3-12 12-14 14-4 12-5-5-6-19-1-22-5-18-27 3-15 8-29 11-32 3-4 36-8 73-9 90-5 92-5 92-15 0-4-64-8-142-8-96 0-138 3-128 10 8 5 22 10 30 10 16 0 22 20 22 73 0 23 4 27 30 27 16 0 27-4 23-9zm375-17c0-8-4-14-10-14-5 0-10 9-10 21 0 11 5 17 10 14 6-3 10-13 10-21zm-1872-11c3-17-2-20-25-17-15 1-33-2-40-8-10-8-13-6-13 6 0 11 9 16 30 16 23 0 28 3 23 16-4 12-2 15 8 12 8-2 15-14 17-25zm1223-43-7-45-5 48c-4 49-1 64 12 50 4-5 4-28 0-53zm339 41c0-11-4-22-9-25-11-7-20 14-13 32 7 19 22 14 22-7zm-1710-26c0-6-7-12-15-12-9 0-15 10-15 25 0 21 2 22 15 12 8-7 15-18 15-25zm2404-7 10-38h88 89l6 30c4 22 9 28 18 20 6-5 14-7 17-4s5-8 3-23c-1-16-18-44-39-67-49-51-101-58-166-24-48 26-90 85-90 126 0 20 4 23 28 20 22-2 29-10 36-40zm326 3c0-11-4-23-10-26-6-4-10 5-10 19s5 26 10 26c6 0 10-9 10-19zm-2905-12c13-5-1-8-42-8-34-1-65 4-68 9-7 12 79 11 110-1zm918-19c14-11 34-20 45-20 12 0 24-5 27-10 4-6 10-8 14-5 5 2 18-4 30-14 14-12 18-22 11-26-5-3-10-12-10-18 0-8 3-7 9 2 7 11 11 8 16-10 15-47 38-68 75-69 22 0 30 3 22 9-10 6-7 12 12 25 14 9 26 26 27 39 0 12 3 16 6 10 3-9 28-13 76-12 65 1 69 2 37 11-19 5-50 7-67 5-18-3-33-4-33-2s-3 11-6 20c-5 13-2 15 17 10 13-3 58-7 100-8 41-2 80-7 87-11 6-3 20-1 31 6 26 16 30 11 38-52 5-47 4-52-13-48-14 3-24-6-36-32-23-46-22-50 6-50 18 0 26 7 29 23l4 22 2-23c1-15-7-26-21-32-20-8-11-15 15-11 4 0 7-3 7-9 0-20-43-31-122-30-46 0-165-1-265-4-150-3-183-1-183 10 0 8 10 15 23 15 12 1-5 5-38 9s-64 4-70 1c-5-3 7-8 28-11 56-7 45-25-15-25-34 0-52 4-51 11 4 23 3 81-3 142-4 43-3 62 5 62 6 0 11 11 11 25s5 25 10 25c6 0 10 8 10 17 0 14 3 13 16-5 21-31 37-17 29 24-5 29-3 34 13 34 11 0 31-9 45-20zm1175 8c-4-11-11-14-68-25-40-7-38 10 3 24 45 14 69 15 65 1zm-1764-59c2-24 8-55 14-69 7-20 6-30-5-45-13-17-15-17-10-2 4 10 1 17-6 18s-19 2-27 3c-8 0-18-3-22-9s-8-2-8 8c0 11 8 17 23 17 13 0 26 3 30 6 9 9-4 35-14 28-5-3-9-1-9 5 0 5 5 13 10 16 21 13 10 43-19 53-24 9-33 7-50-9-12-11-21-16-21-11 0 24 84 58 103 42 4-4 9-27 11-51zm2870 15c10-25-1-29-14-5-6 12-7 21-1 21 5 0 12-7 15-16zm-1653-37c-15-15-24-2-16 24 7 20 8 21 17 5 7-12 7-21-1-29zm629-12c9-11 10-19 2-27s-18-3-36 16c-23 25-24 26-19 5 4-15 3-20-5-15-7 4-12 23-12 42v35l28-20c16-11 35-27 42-36zm-2604-2c-10-10-19 5-10 18 6 11 8 11 12 0 2-7 1-15-2-18zm2054 11c0-8-4-12-10-9-5 3-10 10-10 16 0 5 5 9 10 9 6 0 10-7 10-16zm-1342-19c-3-3-9 2-12 12-6 14-5 15 5 6 7-7 10-15 7-18zm-192-9c-9-36 3-56 33-56 15 0 33-6 40-12 9-8 12-9 7-1-3 6-3 19 1 29 6 16 7 16 14-2 6-14 8-9 9 21 2 39 3 39 10 10 13-50 11-63-10-70-11-3-20-13-20-21 0-17-55-20-66-3-4 8-9 7-15-2-7-11-9-10-9 4s-5 17-20 12c-21-7-26 8-13 41 6 16 7 16 15-2 6-14 7-12 4 11-4 28 8 65 20 65 4 0 3-11 0-24zm164 4c0-5-2-10-4-10-3 0-8 5-11 10-3 6-1 10 4 10 6 0 11-4 11-10zm1970-10c0-5-4-10-10-10-5 0-10 5-10 10 0 6 5 10 10 10 6 0 10-4 10-10zm-1970-20c0-5-4-10-10-10-5 0-10 5-10 10 0 6 5 10 10 10 6 0 10-4 10-10zm2405-8c-3-3-11 0-18 7-9 10-8 11 6 5 10-3 15-9 12-12zm-149-33c3-5 1-9-4-9s-7-12-4-28c5-39-45-125-156-265-61-76-100-117-113-117-10 0-19 3-19 6 0 4 34 52 76 108 42 55 90 128 106 161 17 33 39 73 50 88s17 35 14 43c-3 9-4 19-1 24 6 10 43 1 51-11zm-2262-4c3-8 1-15-4-15-6 0-10 7-10 15s2 15 4 15 6-7 10-15zm2863-17c-3-7-5-2-5 12s2 19 5 13c2-7 2-19 0-25zm-2757-7c0-10-8-12-31-7-17 3-38 6-45 6-8 0-14 3-14 8 0 4 20 7 45 7 32 0 45-4 45-14zm293-32c-13-22-22-26-54-23-21 1-43 5-48 8s-12-2-16-12c-7-15-9-13-15 8-11 40 5 49 80 47l68-2zm948-17c0-14 2-14 7-2 10 21 46 19 50-3 3-13-3-17-27-17-16 0-33 5-36 10-3 6-15 10-26 10-18 0-26 20-13 33 11 10 44-13 45-31zm1999-46c0-19 3-41 6-50 4-10 1-16-7-16-10 0-15 16-16 50-1 28 2 50 7 50 6 0 10-15 10-34zm27-38c-2-13-4-5-4 17-1 22 1 32 4 23 2-10 2-28 0-40zm54-11c-13-13-26-3-16 12 3 6 11 8 17 5 6-4 6-10-1-17zm-977-103c21-21 21-48 0-40-9 3-22 6-29 6-18 0-28 32-13 42 18 11 25 10 42-8zm-2067-78c5-5-28-8-144-10-30-1-44 21-16 26 25 5 152-8 160-16zm1343-16c0-5-11-10-25-10s-25 5-25 10c0 6 11 10 25 10s25-4 25-10zm890-11c0-6-4-7-10-4-5 3-10 11-10 16 0 6 5 7 10 4 6-3 10-11 10-16zm80-39c0-11-4-20-9-20s-11 9-14 20c-3 13 0 20 9 20 8 0 14-9 14-20zm208 14c24-7 31-34 8-34-25 0-46 12-46 26 0 16 5 16 38 8zm-288-48c0-14-4-28-10-31-5-3-10-3-10 2 0 4-3 18-6 31-5 16-2 22 10 22 10 0 16-9 16-24zm-2360 4c0-5-4-10-10-10-5 0-10 5-10 10 0 6 5 10 10 10 6 0 10-4 10-10zm2466-37c-10-10-19 5-10 18 6 11 8 11 12 0 2-7 1-15-2-18z"/><path d="m4506 6415c-9-26-7-32 5-12 6 10 9 21 6 23-2 3-7-2-11-11z"/><path d="m4480 6355c0-9 5-15 11-13s11 8 11 13-5 11-11 13-11-4-11-13z"/><path d="m4666 6334c-3-8-10-12-16-9-5 3-10 1-10-4 0-17 15-13 35 9 10 11 13 20 8 20-6 0-14-7-17-16z"/><path d="m2670 5839c0-5 5-7 10-4 6 3 10 8 10 11 0 2-4 4-10 4-5 0-10-5-10-11z"/><path d="m3249 5593c-13-16-12-17 4-4 9 7 17 15 17 17 0 8-8 3-21-13z"/><path d="m3111 5423c-22-43-71-164-71-172 1-11 34 54 66 132 34 82 37 102 5 40z"/><path d="m3044 5349c-11-14-35-101-30-106 2-2 13 19 25 47 22 52 25 84 5 59z"/><path d="m3025 5229c-4-6-5-12-2-15 2-3 7 2 10 11 7 17 1 20-8 4z"/><path d="m2321 5534c0-11 3-14 6-6 3 7 2 16-1 19-3 4-6-2-5-13z"/><path d="m1198 5450c2-16 8-30 13-30s9 14 9 30c0 18-5 30-13 30-9 0-12-10-9-30z"/><path d="m1121 5170c1-18 3-20 6-7 3 11 11 16 19 13s14 1 14 9-9 13-20 12c-15-1-20-8-19-27z"/><path d="m1120 5055c0-27 2-46 5-44 7 8 9 78 2 85-4 4-7-14-7-41z"/><path d="m1574 4895c-5-16-9-133-9-259 0-205 2-229 16-231 11-2 19 6 22 24 8 40-2 431-12 466l-8 30z"/><path d="m1410 4845c0-14-3-16-12-7-7 7-17 8-30 1s-18-6-18 3-3 9-12 0-12-42-10-105c1-51-2-116-7-144-9-46-8-59 11-100 13-30 21-68 20-100 0-29 4-53 9-53s9 20 9 43c0 35 4 44 18 44 9 0 20-4 23-10 4-5 10 8 14 30 4 21 12 44 17 51 7 8 8 44 4 102-4 60-3 90 4 90 5 0 10 22 10 51 0 31-4 48-10 44-6-3-10 4-10 17s-7 32-15 42c-15 19-15 19-15 1z"/><path d="m1806 4575c-10-8-23-16-29-18s-7-9-3-15c5-9 12-9 28-1 17 9 24 8 34-5 11-15 12-15 18 0 4 9 4 19 1 22s-5 1-5-4c-1-5-6 1-13 13-11 19-14 20-31 8z"/><path d="m1517 4573c-4-3-7-11-7-17s5-5 12 2c6 6 9 14 7 17-3 3-9 2-12-2z"/><path d="m1130 4415c-7-9-11-18-8-20 3-3 11 1 18 10s11 18 8 20c-3 3-11-1-18-10z"/><path d="m1799 4113c-24-4-26-8-25-46 1-23 5-48 9-55 12-18 84-12 102 9 15 16 11 49-6 49-5 0-9 7-9 15 0 12-32 38-42 34-2-1-15-4-29-6z"/><path d="m1529 4078c-6-32-5-89 2-94 9-5 10-1 13 58 0 21-2 38-6 38-5 0-8-1-9-2z"/><path d="m1581 3983c1-72 2-74 10-33 11 64 11 110-1 110-6 0-9-32-9-77z"/><path d="m1680 4031c0-15 16-22 34-15 25 9 19 24-9 24-14 0-25-4-25-9z"/><path d="m1964 3900c0-80 2-112 3-72 2 39 2 105 0 145-1 39-3 7-3-73z"/><path d="m1030 3949c0-5 5-7 10-4 6 3 10 8 10 11 0 2-4 4-10 4-5 0-10-5-10-11z"/><path d="m1000 3889c0-11 5-17 10-14 6 3 10 13 10 21s-4 14-10 14c-5 0-10-9-10-21z"/><path d="m1793 3849c14-8 22-8 30 0s3 11-18 11c-26-1-28-2-12-11z"/><path d="m1816 3717c-7-30 1-54 14-40 4 4 10 22 14 38 4 19 3 25-2 16-8-11-10-11-14 0-3 8-8 1-12-14z"/><path d="m1590 3637c0-59-19-63-21-4-2 40-2 39-11-18-10-62 4-151 22-140 4 3 10-1 13-7 11-33 21 11 21 97 1 62-3 98-11 106-11 10-13 4-13-34z"/><path d="m1963 3615c0-33 2-45 4-27s2 45 0 60-4 0-4-33z"/><path d="m1025 3480c-3-5-1-10 4-10 6 0 11 5 11 10 0 6-2 10-4 10-3 0-8-4-11-10z"/><path d="m1364 3356c-8-21 3-66 16-66 6 0 10 5 10 12 0 6 6 3 14-8 12-15 17-16 27-7 10 10 10 18-1 38-12 23-14 23-26 7s-13-15-14 5c0 27-18 40-26 19z"/><path d="m1494 3297c-8-22 11-46 26-31 7 7 5 17-4 30-14 18-15 18-22 1z"/><path d="m1850 3279c0-24 23-21 28 4 2 10-3 17-12 17-10 0-16-9-16-21z"/><path d="m1387 3264c-4-4-7-14-7-23 0-11 3-12 11-4 6 6 10 16 7 23-2 6-7 8-11 4z"/><path d="m2700 4561c0-5-3-16-6-24-4-12 9-17 63-26 157-24 181-18 128 34-22 22-32 25-105 25-44 0-80-4-80-9z"/><path d="m3989 5074c-19-23 1-49 37-49 20 0 30 6 32 18 8 40-43 63-69 31z"/><path d="m4169 5074c-19-23 1-49 37-49 20 0 30 6 32 18 8 40-43 63-69 31z"/><path d="m2768 4190c2-16 6-30 8-30s4 14 4 30c0 17-4 30-8 30-5 0-7-13-4-30z"/><path d="m2741 4194c0-11 3-14 6-6 3 7 2 16-1 19-3 4-6-2-5-13z"/><path d="m2776 4095c-9-26-7-32 5-12 6 10 9 21 6 23-2 3-7-2-11-11z"/><path d="m4810 3589c0-5 5-7 10-4 6 3 10 8 10 11 0 2-4 4-10 4-5 0-10-5-10-11z"/><path d="m4827 3541c-3-14 0-21 9-21 16 0 18 9 5 28-6 10-10 9-14-7z"/><path d="m3651 3444c0-11 3-14 6-6 3 7 2 16-1 19-3 4-6-2-5-13z"/><path d="m3814 2988c3-13 6-26 6-29 0-9 51-22 57-15 6 6-51 66-62 66-4 0-5-10-1-22z"/><path d="m3332 2581c45-25 48-25 48-6 0 8-8 15-17 15-10 0-29 3-43 6-18 4-15 0 12-15z"/><path d="m3220 2580c0-5 14-10 31-10s28 4 24 10c-3 6-17 10-31 10-13 0-24-4-24-10z"/><path d="m2975 2570c-4-6-3-16 3-22s12-6 17 2c4 6 3 16-3 22s-12 6-17-2z"/><path d="m3052 2540c0-14 2-19 5-12 2 6 2 18 0 25-3 6-5 1-5-13z"/><path d="m3220 2530c-23-5-27-8-12-9 27-1 29-21 2-28-21-6-26-18-11-27s81 23 81 39c0 8-5 15-11 15-5 0-7 5-4 10 7 11 7 11-45 0z"/><path d="m3070 2417c-27-12-42-28-34-36 3-3 9 1 14 9 8 12 10 11 10-6 0-15 8-23 24-26 19-4 25 0 29 19 7 36-12 54-43 40z"/><path d="m3086 2970c8-43 14-51 14-19 0 13-5 31-10 39-7 11-8 5-4-20z"/><path d="m4728 3023c6-2 18-2 25 0 6 3 1 5-13 5s-19-2-12-5z"/><path d="m4160 2970c0-5 5-10 11-10 5 0 7 5 4 10-3 6-8 10-11 10-2 0-4-4-4-10z"/><path d="m4250 2594c0-9 7-14 17-12 25 5 28 28 4 28-12 0-21-6-21-16z"/><path d="m4215 2530c-3-5 1-10 10-10s13 5 10 10c-3 6-8 10-10 10s-7-4-10-10z"/><path d="m4228 2503c7-3 16-2 19 1 4 3-2 6-13 5-11 0-14-3-6-6z"/><path d="m4820 2690c0-5 5-10 11-10 5 0 7 5 4 10-3 6-8 10-11 10-2 0-4-4-4-10z"/><path d="m3057 2095c3-22 7-42 9-44 8-9 2 45-6 64-7 14-8 8-3-20z"/><path d="m3000 2050c0-5 5-10 11-10 5 0 7 5 4 10-3 6-8 10-11 10-2 0-4-4-4-10z"/><path d="m3363 1995c0-14 3-28 8-31s9 6 9 20-4 27-9 30-8-6-8-19z"/><path d="m3326 1961c-4-6-2-19 4-30 5-11 7-27 3-37-4-12-2-15 8-12 9 3 13 16 11 39-4 38-16 56-26 40z"/><path d="m3220 1928c0-29 2-31 15-17 9 9 13 23 9 32-10 28-24 19-24-15z"/><path d="m3267 1924c-8-9 11-44 23-44 6 0 10 11 10 25 0 23-18 34-33 19z"/><path d="m3540 1870c0-5 7-7 15-4 8 4 15 8 15 10s-7 4-15 4-15-4-15-10z"/><path d="m3118 1853c7-3 16-2 19 1 4 3-2 6-13 5-11 0-14-3-6-6z"/><path d="m3035 6630c-3-5-2-10 4-10 5 0 13 5 16 10 3 6 2 10-4 10-5 0-13-4-16-10z"/><path d="m2801 6213c1-43 2-45 9-18 11 44 11 65 0 65-5 0-9-21-9-47z"/><path d="m4101 6237c-13-21-12-21 5-5 10 10 16 20 13 22-3 3-11-5-18-17z"/><path d="m5000 5941c0-5 7-12 16-15 24-9 28-7 14 9-14 17-30 20-30 6z"/><path d="m5054 5912c1-17 19-17 24 0 3 10 1 10-6-1-9-12-11-12-14 0-3 9-5 10-4 1z"/><path d="m5087 5896c-6-15 16-40 26-30 3 3 10-4 16-15 7-12 17-18 26-15 9 4 15 0 15-9 0-8 10-21 23-30 12-8 34-26 50-40 15-14 27-21 27-15 0 14-154 168-168 168-5 0-12-6-15-14z"/><path d="m3720 5780c0-19 3-21 12-12s9 15 0 24-12 7-12-12z"/><path d="m5098 5757c6-7 9-23 5-35-4-19-1-22 21-22 32 0 33 12 4 45-22 25-50 36-30 12z"/><path d="m4700 5715c0-8 4-15 8-15 5 0 9 7 9 15s-4 15-9 15c-4 0-8-7-8-15z"/><path d="m3563 5709c-19-7-40-38-120-182-13-23-9-37 12-37 11 0 12-7 5-32-9-30-8-31 5-14 8 11 16 34 16 50 1 25 3 27 6 8 4-23 5-23 39 12 19 19 34 43 34 53 0 15-2 16-10 3-7-12-10-8-10 15 0 31 20 70 47 92 22 18 4 43-24 32z"/><path d="m4984 5690c-19-7-70-90-55-90 13 1 69 59 76 79 3 12 5 21 3 20-2 0-12-4-24-9z"/><path d="m4365 5638c-11-37-25-124-25-161 1-33 6-46 26-60 33-24 54-15 54 22 0 17 5 54 11 83 9 39 9 53 0 56-6 2-11 12-11 21 0 17-29 51-44 51-3 0-8-6-11-12zm45-60c-1-38-25-119-35-119-17 1-17 64 0 104 17 41 35 49 35 15z"/><path d="m4841 5617c-13-21-12-21 5-5 10 10 16 20 13 22-3 3-11-5-18-17z"/><path d="m992 5407c-39-40-72-77-72-82 0-6 3-6 8 0 4 6 33 34 66 63 43 39 62 50 71 42s12-3 11 20c-1 16-3 30-6 30s-38-33-78-73z"/><path d="m5730 5400c0-5 5-10 10-10 6 0 10 5 10 10 0 6-4 10-10 10-5 0-10-4-10-10z"/><path d="m3689 5383c-9-2-21-15-28-29-6-14-16-22-21-19-6 3-10-1-10-9 0-19 17-30 25-16 4 6 10 8 15 5s12 0 16 6c4 8 3 9-4 5-23-14-12 13 13 32 36 28 34 36-6 25z"/><path d="m5810 5330c-13-8-12-10 3-10 9 0 17 5 17 10 0 12-1 12-20 0z"/><path d="m3767 5303c-4-3-7-12-7-20 0-11 5-11 20-3 11 6 20 15 20 20 0 11-23 13-33 3z"/><path d="m3616 5283c-3-10-9-25-12-33s4-4 16 10c15 17 20 19 16 8-8-26-1-22 20 10 15 23 15 25 1 13-11-9-17-10-17-2 0 17-17 13-24-6z"/><path d="m5829 5272c-6-36 12-55 34-33 8 8 7 11-5 11-11 0-18 10-20 28-3 26-4 26-9-6z"/><path d="m3581 5172c-17-31-13-40 5-14 9 13 14 26 11 29-3 2-10-4-16-15z"/><path d="m4950 5111c0-27 14-33 36-16 17 13 18 14 2 15-10 0-18 5-18 10 0 6-4 10-10 10-5 0-10-9-10-19z"/><path d="m5400 5120c-13-8-12-10 3-10 9 0 17 5 17 10 0 12-1 12-20 0z"/><path d="m5303 4938c4-12 2-18-9-18-25 0-34-41-13-63 10-11 21-33 24-48 7-30 19-37 30-18 5 6 12 4 21-8 12-16 13-15 14 19 0 20-5 40-11 43-11 8-33 56-30 68 1 4-6 16-16 25-16 16-16 16-10 0z"/><path d="m3373 4855c0-22 2-30 4-17 2 12 2 30 0 40-3 9-5-1-4-23z"/><path d="m3481 4774c0-11 3-14 6-6 3 7 2 16-1 19-3 4-6-2-5-13z"/><path d="m5333 4763c-15-5-17-23-4-23 5 0 11 7 15 15 3 8 4 15 3 14-1 0-8-3-14-6z"/><path d="m5920 4713c0-18 5-33 10-33 13 0 13 30 0 50-7 11-10 7-10-17z"/><path d="m5526 4711c-4-7-5-15-2-18 9-9 19 4 14 18-4 11-6 11-12 0z"/><path d="m5677 4669c-10-34-8-46 3-29 8 13 10 12 10-2 0-10-4-18-10-18-5 0-10-11-10-25s4-25 9-25 9-10 8-22c0-13 5-52 11-88 7-36 12-85 13-110l1-45 28 60c32 69 73 210 67 228-2 7-8-6-12-28-9-43-35-81-35-50 0 12-5 15-16 11-12-4-15-2-10 9 7 18-10 20-20 3-12-19-23 29-17 72 2 19 0 46-5 59l-9 25zm43-169c0-5-2-10-4-10-3 0-8 5-11 10-3 6-1 10 4 10 6 0 11-4 11-10z"/><path d="m5802 4665c0-16 2-22 5-12 2 9 2 23 0 30-3 6-5-1-5-18z"/><path d="m5781 4624c0-11 3-14 6-6 3 7 2 16-1 19-3 4-6-2-5-13z"/><path d="m5510 4601c0-6 5-13 10-16 6-3 10 1 10 9 0 9-4 16-10 16-5 0-10-4-10-9z"/><path d="m5718 4604c-3-5-2-18 2-28 3-11 9-15 12-10s2 18-2 28c-3 11-9 15-12 10z"/><path d="m3400 4546c0-9 5-16 10-16 6 0 10 4 10 9 0 6-4 13-10 16-5 3-10-1-10-9z"/><path d="m891 4509c-1-14-4-47-7-73-8-55 8-62 24-10 8 27 7 44-3 72-12 33-14 34-14 11z"/><path d="m893 4083c-19-7-17-111 2-129 8-9 16-30 16-47 1-24 4-20 10 18 8 52 1 166-10 164-3 0-12-3-18-6z"/><path d="m5871 2265c1-40 1-40 10-10 5 18 5 33-1 39-7 7-10-4-9-29z"/><path d="m5952 2260c0-19 2-27 5-17 2 9 2 25 0 35-3 9-5 1-5-18z"/><path d="m6018 2265c2-14 6-25 8-25s4 11 4 25-4 25-9 25c-4 0-6-11-3-25z"/><path d="m5841 2244c0-11 3-14 6-6 3 7 2 16-1 19-3 4-6-2-5-13z"/><path d="m5910 2208c0-5 5-8 11-8 8 0 9-11 5-31-3-19-1-38 5-46 7-7 9-28 6-47-3-21-1-38 6-44 12-9 93-10 100-2 2 3 7 22 10 43 4 29 2 37-9 37-12 0-13-8-8-35l6-35h-46c-46 0-46 0-46 34 0 18 3 48 6 65 5 25 10 30 25 26 14-5 19-1 19 14 0 12 5 21 10 21 6 0 10 3 10 8 0 4-25 7-55 7s-55-3-55-7z"/><path d="m6030 2160c0-22 5-40 10-40 6 0 10 18 10 40s-4 40-10 40c-5 0-10-18-10-40z"/><path d="m5870 2055c-11-13-8-15 13-15 19 0 25 4 21 15-4 8-10 15-14 15s-13-7-20-15z"/><path d="m5731 2001c-21-14 49-25 91-15l33 8-30 7c-44 10-78 10-94 0z"/><path d="m6019 2001c-4-50-2-66 12-66 9 0 13 8 11 23-2 12 2 22 7 22 6 0 11 5 11 12 0 6-3 8-7 5-3-4-12-2-20 4-9 9-13 8-14 0z"/><path d="m6072 1955c-1-19 3-35 8-35 6 0 10 16 10 35s-4 35-8 35c-5 0-9-16-10-35z"/><path d="m5765 1941c-3-5-1-12 5-16 5-3 10 1 10 9 0 18-6 21-15 7z"/><path d="m6020 1910c-12-8-10-10 8-10 13 0 20 4 17 10-7 12-6 12-25 0z"/><path d="m5938 1903c12-2 30-2 40 0 9 3-1 5-23 4-22 0-30-2-17-4z"/><path d="m5700 1107c0-9 378-132 386-125 2 3-78 31-179 63-100 32-188 60-194 63-7 2-13 2-13-1z"/><path d="m6345 894c71-24 134-44 140-43 5 0-48 20-120 45-71 24-134 44-140 43-5 0 48-20 120-45z"/><path d="m6510 840c8-5 22-9 30-9 10 0 8 3-5 9-27 12-43 12-25 0z"/><path d="m6590 816c0-6 251-88 256-83 3 3-50 23-118 46-120 40-138 45-138 37z"/></g></svg>