<svg height="342pt" preserveAspectRatio="xMidYMid meet" viewBox="0 0 512 342" width="512pt" xmlns="http://www.w3.org/2000/svg"><g transform="matrix(.1 0 0 -.1 0 342)"><path d="m555 2436c-14-24-25-47-25-52s-6-20-13-35c-8-14-17-50-20-81-6-45-4-57 8-62 13-5 15-60 15-413 0-224-4-413-8-420s-16-12-27-12-44-1-74-3c-41-3-55 0-59 12-8 20-23 35-44 43-22 8-38-44-38-120 0-48 2-53 35-73 43-26 55-20 55 29 0 38 1 39 45 45 63 10 116-2 140-31 15-18 34-26 70-30 56-7 65-14 65-59 0-59 17-64 209-64 209 0 224 5 209 75-5 24-8 55-6 68l3 25 75-44c52-31 80-54 92-78 12-23 29-38 52-46 27-9 80-50 65-50-51-1-972-72-991-76-16-4-28-13-28-22 0-13 17-14 128-8 127 7 607 39 842 56 157 11 801 73 1105 105 476 52 625 66 1205 115 687 58 1171 108 1185 121 5 5-1 9-16 9-26 0-397-25-497-34l-54-5 16 22c9 12 23 37 31 55l15 32h85c69 0 86 3 94 18 10 15 10 15 11-4 0-37 19-44 128-44 90 0 103 2 93 14-7 8-26 18-42 21-24 5-29 12-29 35 0 20-6 31-20 35-25 8-25 18 0 69 17 37 19 66 22 289l2 247h30l31 1-40 36c-58 52-115 74-198 78-40 2-144 6-232 10-88 3-218 11-290 16-71 6-166 12-210 15-44 2-170 11-280 21-110 9-222 16-249 15-26-1-74 5-106 13s-70 15-85 15c-22 0-25 3-20 20 5 16 2 20-19 20-16 0-26-6-26-15 0-18 18-18-296 0-586 34-797 46-1379 80-335 19-634 37-663 39l-52 5zm880-191c353-9 1358-48 1815-70 162-8 444-22 625-30 252-12 669-33 693-35 1 0 2-72 2-160s-1-160-2-160c-3-1-1070-14-2008-25-278-3-527-8-555-10-27-3-241-5-475-5l-425-1-3 223c-2 123 0 237 3 255l6 32 62-4c34-3 152-7 262-10zm-863-142 2-88 3 88c3 68 7 87 18 87 13 0 15-29 15-181 0-167-1-180-16-168-9 8-24 14-33 14-14 0-16 21-19 168-2 144 0 167 13 167 12 0 15-17 17-87zm80 68c19-19 20-26 13-175-7-143-9-156-26-156-18 0-19 10-19 175 0 96 2 175 5 175s15-9 27-19zm217-3c5-13 7-35 5-50-2-19 1-25 10-22 8 3 15-4 18-20 6-31 5-31-17-9-16 15-17 15-14-3 1-10-1-35-4-54s-9-70-12-112l-7-78-41 7c-23 3-45 11-49 17s-8 41-8 78c0 87-12 118-45 118-24 0-25 2-25 68 0 38 3 72 7 75 3 4 44 7 90 7 78 0 84-2 92-22zm112-121c-2-116 4-142 29-127 10 6 11 12 3 22-12 15-10 43 6 78 10 22 11 18 8-27-2-29 0-53 4-53 5 0 8-21 7-47-1-43-2-44-5-11-3 27-8 35-19 31-8-3-14-11-14-18s-7-16-16-19c-21-8-24-8-24 4 0 6 7 10 15 10s15 5 15 10c0 6-6 10-14 10-11 0-14 16-11 78 1 42 3 101 4 131 0 30 4 51 8 48 3-4 6-58 4-120zm62 83c-3-11-13-20-22-20-14 0-14 2-1 10 11 7 11 10 2 10-7 0-10 5-7 10 12 19 33 11 28-10zm-136-12c-3-8-6-5-6 6-1 11 2 17 5 13 3-3 4-12 1-19zm3743-178c0-160-9-196-31-131-6 16-17 32-25 35-11 4-14 31-14 131v125h35 35zm-3920 68c0-13 3-47 6-76 8-69-1-102-26-102-18 0-20 7-20 78 0 42-3 87-6 100-5 19-2 22 20 22 20 0 26-5 26-22zm250-163c0-8-4-15-10-15-5 0-10 7-10 15s5 15 10 15c6 0 10-7 10-15zm-252-212c-2-130-6-177-15-181-10-3-13 24-13 113 0 65-5 125-11 137s-8 38-4 64c5 35 10 44 26 44 19 0 19-7 17-177zm115 50c-5-111-8-131-27-153-15-18-16-21-3-10 20 15 21 14 48-33 16-28 2-37-58-37h-56l19 23c10 12 12 16 4 10-8-7-18-13-22-13-10 0-11 157-2 263l7 77h48 48zm-205 100c-4-22-22-20-26 1-2 10 3 16 13 16s15-7 13-17zm341-40c1-7-3-13-9-13-5 0-10 15-9 33 0 27 2 29 9 12 5-11 9-26 9-32zm60-10c-1-65-5-61-12 10-2 26-1 47 4 47s9-26 8-57zm-429 18c0-10 3-33 6-50 5-25 3-31-10-31-20 0-31 24-21 48 5 9 7 25 6 35-1 9 3 17 8 17 6 0 11-8 11-19zm250-175c-8-8-11 12-9 74 3 122 14 141 17 31 2-59-1-98-8-105zm3570 168c0-33-33-30-38 4-3 17 2 22 17 22 16 0 21-6 21-26zm-3420-4c0-11-2-20-4-20s-6 9-9 20-1 20 4 20 9-9 9-20zm312-24c6 4 8-1 6-11-1-10-8-20-14-22-14-5-27 25-17 40 5 8 8 8 11-1 2-7 8-9 14-6zm186-22c2-22-2-33-14-38-30-11-54 3-54 33 0 35 8 43 40 39 20-2 26-9 28-34zm-260 5c2-12-7-16-35-17-32-1-39 2-40 19-2 18 3 20 35 17 23-3 38-10 40-19zm112 1c0-11-4-20-10-20-5 0-10 9-10 20s5 20 10 20c6 0 10-9 10-20zm-378-4c7 4 8 2 4-5-9-13-26-5-25 12 0 9 2 8 6-1 2-6 10-9 15-6zm2313-31v-40l-62-3-63-3v46 46l63-3 62-3zm-2248-62c-2-16-4-5-4 22 0 28 2 40 4 28 2-13 2-35 0-50zm149 45c-5 8 0 12 13 12 12 0 21-4 21-10 0-5 0-13 0-17 0-5-14-8-30-8-23-1-30 4-30 18 0 17 2 18 17 6 11-10 14-10 9-1zm2360-93c8-34 4-37-53-39-45-1-48 1-48 24 0 19 6 26 30 31 55 12 64 10 71-16zm-2686-20c0-14-4-25-10-25-5 0-10 11-10 25s5 25 10 25c6 0 10-11 10-25zm2390 6c-13-26-13-34 2-25 7 4 8 3 4-4s-20-12-37-12c-26 0-29 3-29 30 0 28 3 30 35 30s35-2 25-19zm46-7c-3-9-6-18-6-20s-4-4-9-4-7 9-4 20 10 20 15 20c6 0 7-7 4-16zm27-4c-3-11-9-20-14-20-11 0-11 3-3 24 9 23 23 20 17-4zm82 10c-17-7-17-9-2-9 33-2 17-21-18-21-19 0-35 5-35 11s7 8 16 5c14-5 15-4 4 9s-8 15 21 14c28 0 31-2 14-9zm-2358-32c-3-7-5-2-5 12s2 19 5 13c2-7 2-19 0-25zm2583 22c0-5-13-10-29-10-17 0-33 5-36 10-4 6 8 10 29 10 20 0 36-4 36-10zm-800-24c0-9 8-12 25-8 15 2 25 0 25-7 0-6-15-11-34-11s-41-3-50-6c-12-5-16 0-16 20 0 21 5 26 25 26 14 0 25-6 25-14zm330 2c0-4-18-8-40-8s-40 3-40 8c0 4 18 7 40 7 22 1 40-3 40-7zm-94-6c-7-12-96-14-96-2 0 5 23 10 51 10 27 0 48-4 45-8zm1574-44c0-22-3-23-60-20-39 3-60 8-60 16 0 22 12 26 67 26 48 0 53-2 53-22zm-4015-133c0-65-2-70-22-73-17-2-23 2-24 15 0 10-2 44-4 76-4 58-4 58 23 55 26-3 27-4 27-73zm360 69c-47-7-163-9-152-2 7 4 48 7 92 6 44 0 71-2 60-4zm2764-10c28-8 55-22 58-30s26-25 52-38l46-24-35-6c-19-3-78-8-130-11s-160-12-240-20-370-35-645-60c-443-40-666-62-815-81l-45-6 34 36c19 20 41 36 48 36 8 0 22 19 32 43 26 61 42 70 130 75 78 4 78 4 85-22 10-42 43-49 208-41l147 7 3 72 3 71 36-1c46-1 109-39 109-65 0-23 18-25 27-3 6 15 8 15 20-2 12-16 13-14 13 20 0 32 3 37 18 31 9-4 44-9 76-12 49-5 61-3 72 12 10 14 18 15 41 8 17-6 77-7 148-2 66 4 164 8 217 8 53 1 100 6 103 11 9 15 125 12 184-6zm351-10c0-9 12-26 27-37l27-22-39-7c-22-4-54-7-71-7l-32-1 22 45c15 33 27 45 44 45 14 0 22-6 22-16zm-3105-84c-3-5-10-10-16-10-5 0-9 5-9 10 0 6 7 10 16 10 8 0 12-4 9-10zm43-87 3-31-98-6c-54-3-129-8-166-11l-68-4 3 37 3 37 150 5c83 3 155 5 160 5 6-1 11-15 13-32zm724-20c2-23 8-29 36-31 17-2 32-8 32-14s7-20 17-30c15-17 14-18-29-18-25 0-99-3-166-7l-122-6 13 26c6 15 17 27 22 27 16 0 65 49 65 65 0 12 15 15 64 15 63 0 65-1 68-27z"/><path d="m1216 2139c-13-19-16-52-16-181 0-211-11-200 197-196 139 3 156 5 169 22 11 15 14 57 14 176 0 205 11 194-195 198-150 4-153 3-169-19zm332-11c7-7 12-39 12-74 0-50-3-63-16-66-9-2-86-2-170 0l-154 3v68c0 37 3 71 7 74 12 13 308 8 321-5zm-303-211c8-55 3-109-11-114-15-5-20 29-16 100 5 67 18 75 27 14zm315 9c0-96-22-153-45-116-11 18-16 83-10 118 5 26 11 32 30 32 22 0 25-5 25-34z"/><path d="m1237 2124c-4-4-7-22-7-40 0-65-1-64 150-64 133 0 138 1 133 20-3 12 1 22 11 26 16 6 22 39 9 47-15 8-288 19-296 11z"/><path d="m1850 2137c-25-13-25-13-28-174-2-137 0-163 14-177 13-13 39-16 149-15 85 0 139 5 149 12 13 10 16 39 17 171 1 143-1 161-17 173-12 9-52 13-125 13-59 0-113 2-121 5-7 3-24-1-38-8zm280-27c6-8 9-40 8-70l-3-55h-150-150l-3 52c-5 93-2 95 154 91 106-2 137-6 144-18zm-101-232c-1-40-4-63-6-51s-11 27-19 33c-8 7-14 30-14 51 0 32 3 39 20 39 18 0 20-6 19-72z"/><path d="m1850 2066c0-31 5-46 16-50 26-10 132-7 139 4 3 6 17 10 31 10 13 0 24-4 24-10 0-5 14-10 31-10 30 0 30 1 27 48l-3 47-132 3-133 3zm210-16c0-5-11-10-25-10s-25 5-25 10c0 6 11 10 25 10s25-4 25-10z"/><path d="m2396 2109c-13-19-16-50-16-157 0-73 5-142 10-153 10-17 22-19 138-19 86 0 132 4 140 12 17 17 17 288 0 310-10 12-41 18-134 23-119 6-122 6-138-16zm258-15c17-16 22-90 8-110-5-7-52-9-139-6l-133 4v45c0 80 5 83 135 83 90 0 117-3 129-16zm-84-214c0-63-2-70-20-70s-20 7-20 70 2 70 20 70 20-7 20-70z"/><path d="m2410 2056c0-29 5-46 15-49 8-4 17-2 20 3 4 6 18 10 33 11h27l-25 12c-22 10-15 12 54 15 93 3 106 0 101-28-2-11 0-20 6-20 5 0 9 20 9 44v43l-46 7c-26 3-80 6-120 6h-74z"/><path d="m2892 2098c-8-8-12-56-12-149 0-176-4-172 136-166 56 3 107 8 113 12 16 9 15 287-1 303-8 8-49 12-118 12s-110-4-118-12zm226-10c7-7 12-36 12-65v-53h-120-120v49c0 82-1 81 114 81 66 0 106-4 114-12z"/><path d="m2916 2082c-11-3-16-15-16-42v-39l103-3c56-2 106 0 110 3 5 4 5 22 2 42l-7 36-88 3c-48 2-95 2-104 0z"/><path d="m3333 2089c-18-18-18-270-1-287 16-16 190-16 206 0 14 14 17 273 4 282-4 2-50 7-102 11-72 5-98 4-107-6zm195-14c8-3 12-24 12-60v-55h-105-105v59c0 38 4 61 13 64 13 5 164-2 185-8zm-148-194c0-55-8-71-36-71-2 0-4 29-4 65 0 58 2 65 20 65s20-7 20-59z"/><path d="m3340 2050c0-11 7-20 15-20s15-9 15-20c0-18 7-20 81-20h80l-3 38-3 37-92 3c-88 3-93 2-93-18z"/><path d="m3717 2073c-13-13-8-260 6-270 13-10 175-8 186 2 12 12 13 232 2 254-11 19-20 21-100 21-48 0-91-3-94-7zm181-15c7-7 12-31 12-55v-43h-95c-69 0-95 3-95 13 0 9 18 11 65 9 60-3 65-2 65 17 0 14 6 21 20 21s20 7 20 21c0 19-5 20-85 17-47-2-85 0-85 5 0 12 165 8 178-5zm-38-139c0-5-4-9-10-9-5 0-10 7-10 16 0 8 5 12 10 9 6-3 10-10 10-16z"/><path d="m4076 2068c-7-4-13-25-14-47l-3-41h61 60v35 34l-57 4c-39 2-32 3 22 3l80-1 3-54 3-54-86 6-86 6 3-77 3-77 79-3c57-2 82 1 87 10 14 22 11 234-3 246-15 12-134 20-152 10zm111-150c-3-8-6-5-6 6-1 11 2 17 5 13 3-3 4-12 1-19z"/><path d="m4440 2053c46-3 69-9 78-20 6-9 12-12 12-7 0 24-27 34-89 32l-66-2z"/><path d="m4376 2025c-3-9-6-25-6-36 0-17 8-19 71-19h70l-3 33c-3 32-3 32-64 35-49 2-63 0-68-13z"/><path d="m4447 1952-78-3 3-72 3-72 72-3c69-3 73-2 78 20 3 13 5 48 3 78l-3 55z"/><path d="m3212 1670c0-14 2-19 5-12 2 6 2 18 0 25-3 6-5 1-5-13z"/><path d="m3230 1686c0-2 7-9 15-16 9-7 15-8 15-2 0 5-7 12-15 16-8 3-15 4-15 2z"/><path d="m3673 2308c2-7 12-13 22-13s20 6 23 13c2 7-6 12-23 12s-25-5-22-12z"/></g></svg>