<svg height="487pt" preserveAspectRatio="xMidYMid meet" viewBox="0 0 730 487" width="730pt" xmlns="http://www.w3.org/2000/svg"><g transform="matrix(.1 0 0 -.1 0 487)"><path d="m2680 4651v-28l-94-11c-108-12-136-23-137-55-1-21-1-21-9 3-4 14-8 42-9 63-1 35-3 37-33 36-18-1-25-3-15-6 16-4 19-8 21-35 1-7 6-16 11-20 6-4-6-8-26-8-31 0-38 4-43 25-5 19-12 24-29 21-12-3-28-5-34-5-10-1-13-28-13-100 0-113 9-131 66-131h34v-113c0-71-4-117-11-124-9-9-6-10 10-6 13 3 20 11 17 19-7 19 0 18 24-3 20-18 27-67 11-77-5-3-11 8-15 24-3 17-11 30-17 30s-9-7-5-15c4-12-3-15-29-15-21 0-35-5-36-12-10-118-10-116 10-111 23 6 37 33 17 33-8 0-16 7-20 15-6 16 3 18 66 15 20-1 46 4 57 10 18 9 21 8 21-12 1-20 2-21 10-6 12 20 3 45-21 59-15 8-19 21-19 65 0 54 0 55 28 52 24-3 28-8 34-53 3-27 7-89 7-136 1-53 7-101 16-123 8-20 18-77 22-128 6-84 5-91-11-85-10 4-23 7-30 7-8 0-13 19-15 52-2 57-15 88-36 88-7 0-15 5-17 10-2 6-15-1-30-15-33-30-40-31-62-6-17 19-17 20 4 31 12 6 19 14 16 17-3 4-15-2-26-12-15-14-17-21-9-32 9-10 8-13-5-13-9 0-16-5-16-11 0-11-36-9-121 6l-36 7-7-50c-8-59-47-114-74-106-13 5-14 4-3-4 19-14-27-43-73-45-22-1-31-6-25-12 13-13 11-79-3-110-6-14-8-28-5-32 4-3 35-9 69-12 79-8 89-29 31-63-21-13-67-42-102-65-68-46-76-50-65-31 8 13 1 9-78-44-74-51-147-131-184-203-16-32-39-62-52-68-18-9-20-12-8-19 22-12-2-71-26-64-23 5-23-3 0-21 15-12 15-13-8-10-14 2-19 2-12 0 6-3 12-10 12-17 0-24-26-45-65-51l-40-7 33 27c17 14 32 30 32 35s-58 8-130 8c-115-1-130-3-130-18 0-9 11-26 25-38 16-14 25-32 25-51 0-42 10-61 31-61 11 0 19-7 19-16s7-22 16-28c16-12 10-46-8-46-6 0-4 8 3 18 11 14 10 13-9-2-19-17-22-17-22-3 0 10-5 17-11 17s-8-9-4-22c7-21 4-20-26 8-47 44-71 54-124 54-39 0-52-5-75-30-32-34-60-108-60-157 0-26 10-44 49-85 45-47 55-53 103-59l53-6-50-2c-37-1-46-4-34-11 13-8 16-22 13-66l-4-57 117 7c165 8 163 7 164 70l1 51 17-53c12-36 16-79 15-140-3-93 2-126 17-117 5 4 9 39 9 80 0 78 6 108 21 99 5-3 7-9 5-13-3-4-7-46-11-93-5-83-4-86 15-81 11 3 17 9 14 14s-1 16 4 26c8 13 10 7 13-24 4-38 3-39-29-41-19-2-39 4-48 13-9 8-20 15-25 15-32 0-163-248-184-350-8-39-15-73-15-76 0-2-4-4-10-4-5 0-10 17-10 37 0 29-3 34-12 25s-9-34 0-110c9-75 20-113 47-167 19-38 36-82 37-97 2-23 13-31 13-10 0 14 35 56 41 49 4-3 16 0 28 8 11 8 33 15 48 15 29 0 33 6 19 29-6 10-20 11-51 6-30-5-38-10-29-16 10-6 7-9-12-9-22 0-31 8-47 43-51 110-59 281-12 284 11 1 27 9 36 17 16 17 35 21 33 8-3-19 2-23 16-12 11 9 19 10 26 3 8-8 7-13 0-17-18-11-13-26 9-26 18 0 19-3 10-21-14-26-9-33 13-16 14 10 18 31 20 110 2 85 0 100-16 108-9 6-17 15-17 20 0 6-9 18-20 27-14 12-17 21-11 32 8 11 12 9 20-13 17-45 38-33 45 25 9 66 26 47 26-29 0-50 1-51 25-47 32 6 33-14 1-22-21-5-25-12-25-42 0-21-1-46-2-57-4-35 3-151 8-132 3 12 15 17 43 17 37 0 39-1 43-37l4-38 1 38 2 37h55c62 0 68-10 40-76-13-33-18-35-42-29-42 12-67 13-78 5-5-4-21-7-35-5-22 1-25 6-22 33 2 19-1 32-8 32s-10-21-8-62c1-35-1-69-5-75-5-8-3-13 3-13s8-5 5-11c-4-6-4-26-1-45 6-31 10-34 42-34 22 0 33 4 29 10s8 2 27-10c18-11 41-20 50-20 28 0 30-17 6-42-13-13-28-33-35-44-12-18-12-18-19 4-3 12-13 22-21 22-11 0-13-5-8-17 4-10 10-28 12-40 5-20 1-23-23-23-16 0-37 7-48 15s-30 12-46 8c-29-5-49 15-44 45 1 6 2 16 3 21 2 15 59 33 91 29 24-4 27-2 18 9-20 24-81 8-120-31-19-19-33-42-32-50 1-9-2-16-8-16s-8 6-5 14 0 22-8 33c-13 17-14 16-20-10-4-15-12-27-17-27-6 0-7-9-3-23 3-12 8-29 9-37 12-64 19-90 26-90 5 0 10-12 12-27 3-29 16-34 123-48l49-7-24-19-25-18 25 5c30 6 38 13-119-91-58-39-135-92-170-118-60-43-82-53-67-28 4 6 68 56 144 113l137 103-119 8c-153 11-150 13-169-143l-14-115 27-55c38-76 60-101 95-106 110-15 136-18 187-18 31-1 54-4 51-9-2-4 13-7 34-7 21 1 103-8 183-18 96-12 153-16 170-10 13 5 124 12 245 15s263 7 315 8 106 3 120 4c24 2 24 3 4 11-11 4-167 5-345 0-178-4-327-5-331-1-3 3-2 31 3 61s11 75 14 100c2 25 10 71 17 102 11 53 13 56 29 42 10-9 30-14 51-12 33 3 33 4 30 48-2 27-10 50-20 58-9 7-16 18-15 23 2 5-3 10-10 10-6 1 20 5 58 9 96 10 552 15 960 12 314-3 342-5 366-22 26-18 27-18 32-1 2 10 1 25-4 32-15 23-10 54 11 77 12 12 25 22 29 22 16 0 33-116 21-141-11-24-97-74-128-74-11 0-17-8-17-22 0-12-4-25-8-29s-7-17-7-28c0-17-2-18-10-6s-10 12-16-3c-4-10-13-16-23-13-18 6-54-20-64-48-5-12-13-16-25-11-9 3-47 9-83 12-60 5-68 3-87-17-21-23-22-23-42-5-19 17-25 18-53 6-18-7-48-19-68-27-20-7-54-25-74-39-21-14-44-25-51-25s-14-4-16-8c-4-12-68-24-68-13 0 5 9 11 20 14 13 3 20 13 19 29 0 12-3 18-5 12-3-6-15-9-28-7-14 3-37-5-60-20-20-14-49-28-65-32-32-7-38-35-7-36 12 0 39-1 61-3 22-1 68-3 103-4 73-2 83-19 15-25l-48-3 51-2c27-1 55 3 60 8 13 13 131 23 138 11 3-4-11-8-31-9s-39-4-42-8c-9-10 109 3 122 14 7 5 39 14 72 20 51 8 61 7 72-7 9-12 9-19 0-27-14-13-617-34-941-34-160 0-201-3-210-14-6-9-75-27-166-45-247-48-330-70-330-91 0-10-7-21-16-24-25-10-66-7-59 4 3 6 17 7 30 4 24-6 43 10 25 21-15 9-151-25-145-36 3-4 18-4 32 2 15 6 30 6 35 1s-33-18-94-30c-168-34-171-34-164-17 3 8 2 15-3 15s-11-9-14-19c-2-11-15-21-28-24-13-2 87-5 223-6 188-1 248 2 252 12 5 9 7 9 12 0 4-10 46-13 161-13 134 0 173 4 291 30 289 62 587 120 624 120 36 0 37-1 26-25-12-27-10-26-113-49-214-47-307-71-285-74 32-4 227 14 304 28 42 8 68 8 91 0 18-6 37-10 41-9 5 1 20-1 34-5s46-3 70 3c28 6 46 7 48 1s61-10 137-10c112 0 134 2 139 16 12 30 6 34-50 29-42-4-53-2-47 8 4 6 6 21 5 32-3 24 25 43 75 51 21 3 39 10 41 14 2 5 29 14 60 20s76 16 99 21 48 9 55 9c19 0 17-45-4-69-21-25-16-28 49-30 52-1 71 9 57 31-5 8-11 6-20-7-16-21-24-7-21 35 2 16-5 29-18 37-20 12-20 12 2 13 12 0 24 4 27 9 3 4 17 6 31 3 14-2 32 1 40 8 7 6 31 13 52 15s55 6 77 10c21 4 48 8 60 9s27 6 34 10c17 11 15-36-3-60-19-26-19-31 6-37 16-4 18-3 8 9-9 11-8 14 5 14 9 0 16-6 16-14 0-11 27-25 50-26 3 0 5 14 5 30 0 17-3 30-7 30-5 0-8-8-8-17 0-15-2-16-10-3-6 9-6 18 0 24 18 18 10 42-17 53s-27 11-3 9c14-2 30-13 36-24 12-24 26-19 17 6-4 10-2 13 5 8 7-4 12-1 12 7s9 17 20 20 20 1 20-3c0-5 7-15 15-24 12-12 22-13 45-5 16 6 39 9 52 7 25-3 62 27 53 42-4 6-1 10 4 10 16 0 13-26-5-45-18-18-12-29 22-39 14-4 27 1 45 21 13 14 18 23 12 19-14-8-17 3-7 28 3 9 12 16 20 16 7 0 11 6 9 13-7 17 60 46 118 50 26 3 50 7 54 11 3 3 15 6 26 6 20 0 20-8 2-67-7-21-4-23 33-23 41 0 65 16 43 29-6 4-9 18-6 31 5 26 25 52 25 32 0-22 26-13 27 9 2 28 11 35 49 43 23 5 33 3 37-8 4-9 2-18-3-21-18-11-10-25 14-25 13 0 29-7 36-15 17-21 44-19 82 6 25 16 28 20 11 16-13-3-23-4-23-3 0 2 5 17 11 34 12 36 39 52 32 19-4-22-4-22 11-3 10 12 16 15 16 7 0-10 11-12 45-7 49 8 82-2 49-15-12-5-1-8 34-8 38-1 54 3 58 14 4 8 16 16 28 16 16 1 17 2 4 6-25 6-22 22 5 27 54 11 77 12 79 4 2-5 24-15 50-22 45-14 46-14 71 13 20 23 36 29 83 35 33 3 74 4 92 0 24-5 38-2 51 10 26 24 115 46 157 39 21-4 34-2 34 5 0 6 12 19 28 27 25 15 25 16 3 11-13-3-20-1-15 4 14 13 56 14 99 2 55-16 65-15 65 8 0 12 7 20 18 20 9 0 24 5 32 10 11 8 7 9-15 5-28-5-28-4 5 9 32 12 38 11 63-6 30-21 51-14 61 20 5 14 18 17 80 15 80-3 97 8 75 49-14 26-12 27 51 33 29 3 57 8 63 12s7-7 3-30c-7-38 9-61 25-36 13 20 11 59-3 59-17 0-1 13 20 17 10 1 45 9 77 18 33 8 67 15 77 15s26 4 36 9c14 7 84 22 157 34 6 1 9-11 8-26-1-18 2-27 10-24 7 2 11 14 9 27-1 12 6 29 15 36 17 13 17 13-2 14-11 0-49-7-84-15-81-20-190-42-266-54-33-6-86-17-117-24-53-13-59-13-77 4-12 11-27 16-37 12-14-5-15-3-5 14 10 20 45 36 55 25 4-3 24-6 46-7l40-2-4 56c-4 60 1 84 16 75 5-3 8-31 7-62l-3-56h40c65 1 173 12 184 19 6 4 8 10 5 14-2 5 9 27 25 50 35 48 36 61 10 119-21 46-61 71-122 74-20 1-8 4 27 8l60 7-64 1c-58 2-63 4-58 22 7 29-24 26-53-5-20-21-32-25-74-23l-51 1 45 6c45 6 100 39 100 59 0 15-24 21-67 15l-39-5-10 93c-5 52-8 110-6 129 3 35 4 35 42 32 22-2 40-9 40-14 0-6 6-5 15 2 10 9 15 9 15 1 0-6 16-11 36-11 19 0 44-5 54-10 21-11 75 4 66 19-3 5 0 14 8 20 7 6 12 21 11 34-1 12-3 32-4 45 0 12-6 22-12 22-7 0-9-12-5-35 6-28 4-35-9-35-11 0-15 11-15 45 0 36-3 45-17 45-10 0 4 14 32 33 29 18 50 40 50 50s7 22 15 27c13 8 15 54 15 305v295h-22c-17 0-23-6-23-22 0-38-18-6-24 45-5 38-4 47 9 47 9 0 15-9 15-25 0-18 5-25 20-25 17 0 20 7 20 50v50h-45-45v95c0 57-4 95-10 95s-10 68-10 183c0 101-3 239-7 306-6 116-7 122-29 127-13 3-22 10-19 14 3 5-3 6-13 3-10-2-34 2-53 11-29 13-30 14-6 10 15-4 27-4 27-1 0 11-114 48-149 48-34 1-215 53-236 69-5 4-21 11-33 15-13 4-33 16-44 27-15 15-23 17-31 9-14-14-64-14-72-1-3 6-15 10-25 10-11 0-55 16-99 35-44 20-103 40-131 45s-56 12-60 15c-5 3-56 15-112 26-147 28-514 27-567-1-10-5 6-12 45-20 32-6 84-18 115-26 75-18 89-18 89 5 0 14 8 18 33 18 63 0 273-18 312-28 22-5 51-10 65-12 47-6 109-30 104-39-3-5 2-8 12-6 23 4 30-25 10-45-8-8-13-17-10-19 5-6-87-20-123-20-13 0-20-5-17-10 4-6-4-5-16 2-18 9-24 9-30 0s-9-9-14 1c-3 8-3 3 0-10 5-20 3-23-11-18-9 4-19 7-21 7-3 0-2 4 1 10 4 6-1 7-11 3-12-4-15-3-10 6 6 9 2 9-15-1-42-23-60-41-49-48 12-7-20-50-37-50-6 0-8-11-5-25 3-18 0-25-12-25-9 0-22-15-29-32-8-18-21-39-30-47-16-12-17-7-17 62 0 42-5 79-10 82-6 4-8 10-5 15 3 4-4 6-15 3-19-5-20-14-20-129 0-68-4-124-8-124-5 0-9 21-10 48-6 144-15 233-24 224-6-6-17-8-25-5-13 5-14-13-11-121 2-94 0-126-9-126-7 0-10 7-7 15 4 8 1 15-6 15s-9 8-5 21c5 15 4 19-4 15-7-5-11 8-11 39 0 26-5 55-10 65-8 15-6 21 7 29 14 8 3 11-47 12l-65 2 56 7c76 10 82 15 75 60l-6 38 75 7c42 4 91 8 109 9 18 0 33 6 32 11 0 6-3 9-6 8-26-8-172-14-167-6 3 5-10 15-29 22s-32 17-29 22-1 6-9 3c-25-10-76 18-76 41 0 15 2 17 9 6 5-8 16-11 24-8 21 8 194-39 213-57 8-8 23-12 36-8 20 5 17 8-20 23-23 10-42 23-42 29s-4 8-10 5c-15-9-288 52-367 82-11 4-14 3-9-5s0-12-13-12c-23 0-28 15-8 23 7 4 6 6-5 6-9 1-23 4-32 7s-16 1-16-6c0-6 4-9 9-5 5 3 12 1 16-5 3-5-1-10-9-10-24 0-19-19 7-31 20-9 20-9 1-6-20 4-22-2-33-122-7-69-14-128-17-130-2-2-4 56-5 130-1 187-7 235-27 202-11-18-79-13-106 8-18 14-40 19-90 19-44 0-66-4-66-12 0-6-6-19-14-27-7-9-16-40-18-68-4-42-2-53 10-53 10 0 12-6 7-22-14-44-23-145-30-313-7-170-26-268-48-246-9 9 7 461 19 513 5 21 2 27-15 33-25 8-28 27-3 23 13-2 16 3 14 22-7 49-18 56-35 23-9-17-13-33-10-37 4-3-20-5-53-5-32 1-49 4-36 6 28 5 39 29 50 106l9 57h-63c-35 0-82-7-104-16l-40-16v-212c0-156 3-216 13-225 10-11 9-13-5-8-12 4-15 2-11-9 3-7 9-14 14-14s9-7 9-15-4-15-10-15c-5 0-10 7-10 15 0 18-12 19-28 3-10-10-12-4-10 28s6 40 18 36c13-4 12-2-1 14-9 10-14 25-12 32 3 6-2 12-11 12s-16 5-16 11c0 5 5 7 10 4 12-7 13 25 2 43-5 7-16 10-25 6-12-4-15-13-11-33 6-25 6-25-9-6-17 21-17 22-21-27-1-7 5-14 12-14 6-1 17-2 23-3 5 0 7-6 4-11-4-6-15-8-25-5-14 4-16 1-13-20 3-13 2-33-2-42-6-17-7-17-16 0-6 9-18 17-27 17-13 0-14-2-3-9 9-6 10-11 2-15-6-4-11-4-11 1-1 4-8-5-17-22l-17-30-6 30-7 30-11-26c-7-19-21-28-44-33-39-7-108-69-108-96 0-13-5-18-16-13-8 3-13 11-11 17 3 7-10 10-39 7-39-3-44-1-44 18 0 17-6 21-35 21-38 0-53 16-76 82-16 46-28 51-79 33-26-9-42-10-46-4-3 6-3 13 0 16 6 6-39 53-51 53-3 0-2-11 1-25 5-21 2-26-20-31-15-4-29-2-33 4-6 10-46 15-108 13-26-1-31-4-27-18 4-12 3-14-3-6-6 9-19 9-52 1-37-9-45-9-52 4-12 21-63 29-124 20l-50-8 44-25c71-39 80-45 101-64 52-47-7-34-104 23-32 19-61 43-63 53-3 11-9 19-14 19s-6 6-4 13c4 8-8 12-38 13-54 1-81 16-116 64-16 22-32 36-36 32-5-4-5-2-1 5 14 24-14 49-50 45-30-4-34-8-34-34 0-22-6-31-21-35-16-4-17-8-7-14 8-6-3-9-31-9-43 0-43 0-37 31 3 17 6 47 6 66 0 34 1 34 36 28 20-3 40-8 45-11s18 0 29 6c16 9 20 8 20-5 0-8 4-15 10-15 8 0 5 42-6 78-2 8 1 12 8 10 7-3 16-21 20-42 18-84 44-106 130-106 44 0 91-37 85-66-4-21-1-24 24-22 28 2 39 21 19 33-5 3-10 14-10 23 0 11 8 6 21-15 18-29 26-33 65-33 40 0 45 3 58 33 8 20 21 34 31 34 14 0 16-8 13-44-2-23 0-43 4-43 5 0 8 5 8 11s9 9 20 6c22-6 56 30 66 70 4 14 14 23 25 23 10 0 19 5 19 10 0 6-13 10-30 10-40 0-38 18 3 23 23 3 17 5-23 7-30 2-63 4-72 3-10 0-18 4-18 9 0 9 14 10 70 9 19 0 29 2 22 5-9 4-6 10 8 22 21 17 33 85 31 164-1 21 5 43 15 52 8 9 11 16 5 16-8 0-10 47-6 152 4 116 2 154-7 160-10 6-9 8 3 8 17 0 19 15 23 233 1 24 6 37 15 37 10 0 11 3 2 14-10 12-8 15 10 18 12 2 24 8 26 15 5 14-43 30-142 48-84 15-37 19 54 5 69-12 83-8 60 15-9 9-55 20-117 27-102 12-102 12-102 40 0 23-4 28-25 28s-25-5-25-29zm-57-72c34 0 55-3 47-6-8-2-22-7-30-9-8-3-48-6-88-7-63-2-69-1-42 8 17 6 28 14 23 19s0 6 10 3c10-4 46-7 80-8zm-223-44c0-19-4-35-10-35-5 0-10 16-10 35s5 35 10 35c6 0 10-16 10-35zm332 6c2-17 1-28-3-25-13 8-22-64-16-129 4-42 3-53-3-34-7 22-15 179-11 210 3 21 29 3 33-22zm5-118c-2-16-4-3-4 27s2 43 4 28c2-16 2-40 0-55zm-79 58c25-15-14-41-51-34-47 9-46 13 4 14 24 1 35 3 24 6s-24 9-29 14c-13 12 34 12 52 0zm-261-90c0-11-5-17-9-15-11 7-10 34 1 34 6 0 9-9 8-19zm29-38c-10-11-36-12-36-2 0 5 10 9 22 9s18-3 14-7zm321-225c-1-46-3-11-3 77s2 125 3 83c2-42 2-114 0-160zm-30-20c-1-40-3-8-3 72s2 112 3 73c2-40 2-106 0-145zm-320 170c-3-8-6-5-6 6-1 11 2 17 5 13 3-3 4-12 1-19zm480-140c-3-8-6-5-6 6-1 11 2 17 5 13 3-3 4-12 1-19zm-120-310c-2-29-3-6-3 52s1 81 3 53c2-29 2-77 0-105zm-424-24c9-9-4-35-14-28-5 3-9 12-9 20 0 14 12 19 23 8zm49-13c-2-8 8-10 33-5 34 6 48-7 24-22-8-4-7-9 2-15 10-6 4-9-18-9-18 0-33-4-33-10 0-5-5-10-12-10-9 0-9 3 0 12 17 17 15 28-5 22-15-5-16-4-3 5 9 7 11 14 5 19-15 11-17 35-3 29 7-2 12-10 10-16zm2581 2c-7-2-21-2-30 0-10 3-4 5 12 5 17 0 24-2 18-5zm64 1c-3-3-12-4-19-1-8 3-5 6 6 6 11 1 17-2 13-5zm57-3c4-5-3-7-14-4-23 6-26 13-6 13 8 0 17-4 20-9zm43-7c-3-3-12-4-19-1-8 3-5 6 6 6 11 1 17-2 13-5zm-560-30c-3-3-12-4-19-1-8 3-5 6 6 6 11 1 17-2 13-5zm981-86c25-13 28-44 7-72-13-17-12-21 3-32 9-7 13-13 7-13-5 0-28 13-49 29-22 17-46 30-53 30-16 0-16 3 2 46 15 38 27 39 83 12zm-3010-28c-1-22-4-40-6-40s-17 12-32 27c-33 31-26 53 17 53 22 0 24-4 21-40zm1502 25c0-18 12-19 28-3 9 9 12 9 12 0 0-7-7-15-15-18-12-5-14-29-12-137 3-202-2-367-11-367-26 0-34 65-40 298l-5 242h22c12 0 21-6 21-15zm760-25c-20-13-33-13-25 0 3 6 14 10 23 10 15 0 15-2 2-10zm881-36c32-20 37-29 41-68 2-26 2-46 2-46-1 0-13 19-27 43-14 23-39 53-56 66-28 22-35 50-8 34 7-3 28-17 48-29zm-2986 16c4-6-7-10-27-9-31 1-32 1-8 9 14 4 26 8 27 9s5-3 8-9zm-108-16c-3-3-12-4-19-1-8 3-5 6 6 6 11 1 17-2 13-5zm3297-35c167-52 337-119 330-130-3-5 2-6 10-3 14 5 16-20 16-224 0-211-2-232-19-253-11-13-23-20-28-16-4 5-11 81-14 170-4 114-11 173-22 199-15 35-20 38-115 67-109 34-122 36-122 20 0-5 5-7 10-4 6 3 10 1 10-5s4-9 9-6c16 11 60-20 81-55 26-47 18-116-22-180-27-45-90-90-105-76-4 4 3 10 14 13 17 5 22 13 20 35-2 33-22 37-66 14-34-17-41-33-41-90 0-63 16-99 40-92 21 5 28-7 10-18-7-4-6-13 1-27 8-15 13-17 19-8 5 8 19 11 39 7 29-6 32-4 37 23 8 36 34 45 127 41 26-1 27-3 26-51-1-27-6-50-11-50-4 0-8 7-8 16 0 11-15 3-47-27-57-52-61-59-34-59 19 0 40-25 30-34-10-10-132 24-143 40-15 20-36 11-36-16 0-21 4-23 118-40 64-11 72-14 72-33 0-17-2-19-9-8-8 12-12 12-26-3-13-13-19-43-25-120-8-113-12-126-39-126-10 0-23-10-29-22-10-22-11-22-13-3-1 11-1 23-1 26 2 10-85 32-97 24-7-4-11 4-11 20 0 14-4 24-9 21-4-3-6 5-4 18 3 13 0 33-6 45-7 11-8 21-2 21 11 0 6 63-8 89-6 11-11 36-11 57 0 28-8 46-35 75-19 22-35 47-34 57 0 14 2 14 9-3 9-24 38-50 46-43 8 9 6 39-4 81-12 47-28 687-17 687 4 0 67-18 139-41zm-724-4c-7-8-17-15-22-15-6 0-5 7 2 15s17 15 22 15c6 0 5-7-2-15zm60-5c0-5-5-10-11-10-5 0-7 5-4 10 3 6 8 10 11 10 2 0 4-4 4-10zm-555-60c3-6-1-7-9-4-18 7-21 14-7 14 6 0 13-4 16-10zm786-37c-9-16-10-14-11 12 0 21 3 26 11 18s8-16 0-30zm846-315c6-166 9-308 6-315-4-11-9-10-19 5-10 14-15 95-20 315-6 259-5 297 8 297 12 0 16-47 25-302zm-4165 270c-7-7-12-8-12-2 0 14 12 26 19 19 2-3-1-11-7-17zm3326-160c1-116-1-168-8-158-5 8-10 47-10 85l-1 70-24-27c-31-36-45-35-45 1 0 16-7 34-15 41s-15 18-15 26c0 18 66 29 85 14 13-11 15-4 15 54 0 36 4 66 9 66 4 0 9-78 9-172zm-2493 114c-8-8-45-10-45-2 0 13 11 18 31 13 11-3 17-8 14-11zm1512-49c-2-16-4-5-4 22 0 28 2 40 4 28 2-13 2-35 0-50zm203 27c0-5-5-10-11-10-5 0-7 5-4 10 3 6 8 10 11 10 2 0 4-4 4-10zm-830-56c0-8-9-14-20-14-19 0-27 19-14 33 10 9 34-4 34-19zm-1193-10 28-26-35 23c-46 29-45 29-32 29 6 0 24-12 39-26zm2023 12c0-7 7-19 15-26 15-12 11-65-6-84-5-5-4-15 2-23 9-10 7-13-11-13-15 0-20 5-17 14 3 7 1 18-4 23-13 13-19 72-8 78 5 4 9 15 9 26 0 10 5 19 10 19 6 0 10-6 10-14zm217-1c0-8-4-12-9-9-4 3-8 9-8 15 0 5 4 9 8 9 5 0 9-7 9-15zm-2127-5c8-5 11-10 5-10-5 0-17 5-25 10s-10 10-5 10c6 0 17-5 25-10zm-168-14c10 6 71-26 64-33-3-3-17 2-30 11-14 9-29 16-33 16s0-5 10-11c17-10 23-40 11-52-7-7-82 42-102 66-11 12-6 13 30 7 24-5 46-6 50-4zm1036-42c31 4 62 12 69 18s16 8 20 4c3-3 1-6-5-6-20 0-13-28 8-35 14-5 20-16 21-41 1-19 3-38 4-44 1-5 3-19 4-30 1-15 8-20 31-20 28 0 29 2 20 26-14 37-12 52 5 30 11-15 26-19 62-18 65 2 82-9 55-36l-20-20 30-6c49-10 78-7 76 7-2 6-14 14-27 17-55 11-11 25 81 25 53 0 100 3 104 8 15 14 104 4 104-13 0-4-18-4-39 0-24 4-50 2-68-5-31-13-73-55-55-55 6 0 13 4 17 10 3 5 12 7 20 3 11-3 13-1 9 10-8 22 11 29 40 15l26-11-22-25-23-25 28 7c15 3 27 2 27-3s11-8 24-7l25 1-21 23c-29 30-12 28 53-8 70-38 153-56 184-40 17 9 34 8 80-4 51-13 62-13 86 0 15 7 39 14 53 14s31 9 40 22c18 25 14 33-11 24-15-6-15-8-3-17 11-7 5-9-20-5-19 2-57 7-85 11-58 7-135 33-135 45 0 4 8 11 17 14 10 4 14 4 10-1-5-4 18-13 50-19s65-14 73-17c25-11 43 9 50 55 7 38 8 39 9 11 1-32 14-43 26-23 3 6 22 10 42 10 26 0 40 7 55 26 16 19 23 23 29 13 10-17 78-12 100 7 12 11 27 12 63 5 26-5 50-12 54-16s-10-4-31 0c-29 6-42 3-57-10-22-20-28-44-6-26 10 9 17 6 29-13 9-13 13-26 10-30-11-11-51-6-55 6s-48-104-48-125c0-17 70 4 94 28l25 25 58-27c69-31 78-37 39-27-25 6-28 5-23-10 4-10 7-26 7-37 0-17 8-19 73-19 68 1 71 2 52 17l-20 16 20-8c51-18 171-45 202-45 18 0 66-9 105-20 40-11 90-20 110-20 21 0 38-5 38-11s-7-9-15-6c-8 4-17 1-21-4-4-7 7-10 32-7 37 3 38 2 37-32 0-19 4-40 8-46 6-7-1-10-19-9-15 1-19 0-10-2 20-5 26-24 30-94 2-34 0-45-9-42-15 6-18-13-3-22 5-3 7-19 3-35-3-17-1-30 4-30 6 0 10-13 11-30 0-21-4-30-15-30s-13 3-5 12c7 9 6 17-3 25-11 10-13 5-10-29 2-24 0-37-5-32-7 7-15 45-19 99-1 6-5 3-11-5-13-21-30 28-30 86 0 25-4 43-9 40-14-9-41 4-41 19 0 8-4 17-10 20-5 3-10-4-10-15 0-13 8-24 20-27 28-7 25-18-4-18-24 0-25 4-31 82-4 45-5 85-2 90 3 4-1 17-9 27-13 18-14 18-20 2-4-10-4-73 0-141 8-138-6-243-36-275-10-10-18-25-18-32 1-8 7-5 16 7 13 17 16 18 24 5 11-17 13-44 4-52-13-14-42 6-51 35l-10 32-8-27c-9-35-25-36-25-3 0 14 4 25 9 25 13 0 2 130-14 165-7 17-16 38-19 48-7 21-30 18-33-4-1-8-5-35-8-62-7-55-25-54-25 3 0 47-8 53-43 35-22-11-28-11-41 4-9 10-16 27-16 39 0 11-4 24-10 27-10 6-14-7-28-100l-9-60-14 33c-8 19-19 30-27 27-7-2-17 6-22 21-16 42-33 18-27-38 5-36 3-48-6-45-7 2-13 25-15 51-3 39-6 47-19 42-17-7-33 9-33 32 0 6 7 12 16 12 12 0 15 6 10 23-3 12-6 25-6 30 0 14-25 6-51-16-14-13-31-37-37-54s-19-40-30-51c-20-20-20-21-1-58 10-21 19-46 19-56s6-18 14-18c9 0 14 11 13 34 0 19-4 33-8 30-9-5-19 21-19 49 0 18 2 19 10 7 7-11 10-5 10 24 0 64 8 37 15-50 5-71 3-86-14-115-12-19-25-44-31-57-14-33-26-20-34 37-7 51-22 73-36 51-5-8-9-7-14 5-4 11-12 14-26 10-15-5-22 1-33 27l-14 33-9-45c-11-51-25-55-38-11-10 34 0 54 14 31 11-17 16-13 25 20 3 15 0 33-8 44-13 18-16 18-44 4l-30-15-11 43c-8 28-19 45-32 49-12 4-28 22-37 40-19 40-43 54-43 25 0-24 32-80 46-80 19 0 26-32 11-49-8-9-12-22-10-28 6-17 6-17-52 11l-49 24-30-21c-26-19-30-19-41-4s-16 15-61-2c-58-21-99-12-108 22-9 35-7 108 5 151 9 33 8 41-10 60-11 12-29 57-39 101-15 61-23 79-35 77-15-2-44 34-39 51 1 4-3 7-9 7-8 0-10-14-6-40 3-22 3-40 1-40-9 0-82 76-92 96-8 15-25 23-54 28-24 3-103 16-176 27-98 16-139 19-156 11-14-6-37-7-57-2l-34 8 33 1c17 1 32 5 32 10 0 8-64 24-100 25-21 1-32 19-17 28 8 5 6 8-5 8-10 0-18-5-18-11 0-5-5-7-10-4-6 4-8 11-5 16 4 5-1 9-9 9-9 0-16 5-16 10 0 13 23 13 36 0s44-2 44 15c0 7-7 18-15 25-20 17-19 37 2 49 13 7 21 4 32-11 12-18 21-20 69-14zm1849-136c-2-35-3-9-3 57s1 94 3 63c2-32 2-86 0-120zm-2382 131c-10-15-22-10-28 11-4 17-2 18 14 9 11-5 17-14 14-20zm175 21c0-5-4-10-10-10-5 0-10 5-10 10 0 6 5 10 10 10 6 0 10-4 10-10zm570 0c0-5-9-10-20-10s-20 5-20 10c0 6 9 10 20 10s20-4 20-10zm1060 6c0-3-4-8-10-11-5-3-10-1-10 4 0 6 5 11 10 11 6 0 10-2 10-4zm-2185-17c11-17-1-21-15-4-8 9-8 15-2 15s14-5 17-11zm-815-3c0-2-11-6-25-8-14-3-25-1-25 3 0 5 11 9 25 9s25-2 25-4zm1457-36c14-16 33-30 42-31 9 0 4-4-10-9-35-10-129 9-129 26 0 15 38 44 57 44 7 0 25-13 40-30zm458 20c3-5 1-10-4-10-6 0-11 5-11 10 0 6 2 10 4 10 3 0 8-4 11-10zm-2012-7c-7-2-19-2-25 0-7 3-2 5 12 5s19-2 13-5zm697-2c0-5-11-11-25-13-24-5-32 2-18 15 9 10 43 8 43-2zm55-1c7-12-2-12-30 0-19 8-19 9 2 9 12 1 25-3 28-9zm233-15c1-14-3-25-8-25-6 0-10 11-10 25s4 25 8 25 9-11 10-25zm-384-2c19-9 33-20 30-25-3-4-15-3-27 3-17 9-20 9-10-1 6-7 9-19 6-27-8-20-23 3-23 34 0 12-6 24-12 26-7 3-10 6-6 6 4 1 23-6 42-16zm753-13c17 0 33 4 35 9 2 4 14 12 27 16 20 6 23 4 18-10-4-9-7-23-7-30 0-9-15-15-42-17-36-3-43-7-48-28l-6-25-7 28c-8 30-41 38-51 12-6-17-36-21-36-4 0 5-5 7-12 3s-8-3-4 4 19 12 33 12c18 0 24 4 19 15-3 9 0 15 10 15 11 0 14 5 10 17-6 16-6 16 12 0 10-9 32-17 49-17zm-1177-45c-16-15-22-17-32-7-8 8-8 12-1 12 6 0 14 12 17 26 7 25 8 26 21 8 12-17 11-21-5-39zm630 45c0-5-2-10-4-10-3 0-8 5-11 10-3 6-1 10 4 10 6 0 11-4 11-10zm2290-15c0-8-4-15-9-15-13 0-22 16-14 24 11 11 23 6 23-9zm1220-51c13-34 12-54-2-29-16 29-42 52-64 57-10 2-20 11-22 21-3 17-1 17 38-3 23-12 45-32 50-46zm-2850 36c0-5-4-10-10-10-5 0-10 5-10 10 0 6 5 10 10 10 6 0 10-4 10-10zm-417-92c12-10 17-18 10-18-15 0-83 80-83 98 0 8 12-3 26-24s36-47 47-56zm-610 75c-7-2-19-2-25 0-7 3-2 5 12 5s19-2 13-5zm1187-1c0-4-9-8-20-8s-20 4-20 8 9 8 20 8 20-4 20-8zm580-2c0-5-4-10-10-10-5 0-10 5-10 10 0 6 5 10 10 10 6 0 10-4 10-10zm1143 3c-7-2-19-2-25 0-7 3-2 5 12 5s19-2 13-5zm-2988-13c3-5-1-10-10-10s-13 5-10 10c3 6 8 10 10 10s7-4 10-10zm147-4c15-8 37-12 50-9 16 4 20 2 13-5-15-16-70-28-61-13 5 7-5 17-26 26-18 8-26 14-18 15 8 0 27-6 42-14zm584-1c-11-8-25-15-30-15-6 0-2 7 8 15 11 8 25 15 30 15 6 0 2-7-8-15zm1788 1c-6-16-29-15-46 2-9 9-5 12 20 12 23 0 30-4 26-14zm-1331-8c10 0 15-4 11-10s-3-8 3-5c6 4 26 0 44-8 33-15 31-16-51-10-87 7-108 14-95 35 4 7 18 9 38 4 18-4 40-7 50-6zm-1223-29c-7-11-14-18-17-15-8 8 5 36 17 36 7 0 7-6 0-21zm2540 1c0-5-7-10-15-10s-15 5-15 10c0 6 7 10 15 10s15-4 15-10zm781-62c-3-75-11-73-11 2 0 35 3 60 7 57 4-4 5-31 4-59zm-2706-28c13-30 24-40 41-40 23 0 64-44 77-83 5-14 2-16-20-12-43 7-74-29-33-38 18-4 18-5-1-3-18 1-25 13-42 69-14 46-25 67-36 67-12 0-13 2-3 9 11 7 11 15-2 45-21 49-4 38 19-14zm2265 30c14-11 21-20 17-20-11 0-67 29-67 35 0 11 27 3 50-15zm-2445 0c3-6-4-10-17-10-18 0-20 2-8 10 19 12 18 12 25 0zm335-48c0-3-9 5-20 18-11 12-17 27-14 32 5 8 34-34 34-50zm-565 28c-3-5-16-10-28-10-18 0-19 2-7 10 20 13 43 13 35 0zm83-7c-10-2-28-2-40 0-13 2-5 4 17 4 22 1 32-1 23-4zm1238-66c2-34 1-56-2-49-3 6-14 12-24 12s-22 5-25 10c-4 6-1 9 6 8 16-4 35 65 19 70-9 3-9 7 1 13 20 12 22 6 25-64zm1821 51c-3-8-6-5-6 6-1 11 2 17 5 13 3-3 4-12 1-19zm-3827 2c0-5-5-10-11-10-5 0-7 5-4 10 3 6 8 10 11 10 2 0 4-4 4-10zm777-16c-3-3-12-4-19-1-8 3-5 6 6 6 11 1 17-2 13-5zm1013-14c20-6 17-7-17-7-23 1-39 5-37 9 6 9 20 9 54-2zm1766-26c18-14 18-14-6-3-31 14-36 19-24 19 6 0 19-7 30-16zm-1741-3 40-9-35-2c-19-1-42-1-49 0-8 1-21-6-28-16-12-16-13-16-13-1 0 12-9 17-27 18l-28 1 30 8c40 10 63 10 110 1zm-140-52c11-17 2-18-19-3-17 12-17 14-4 14 9 0 20-5 23-11zm2795-33c0-8-4-18-10-21-5-3-10 3-10 14 0 12 5 21 10 21 6 0 10-6 10-14zm-4717-3c-18-2-48-2-65 0-18 2-4 4 32 4s50-2 33-4zm1090 0c-7-2-19-2-25 0-7 3-2 5 12 5s19-2 13-5zm407-18c16-19 5-34-12-17-7 7-21 12-32 12-17 0-18 2-6 10 21 14 36 12 50-5zm355-25c28-5 52-15 53-21 3-6 9-6 17 1 20 16 49 4 86-35 18-19 37-31 42-28 6 3 7 1 3-6-4-6-4-21 0-33l6-21 13 24c7 13 11 27 9 31-3 5 0 8 5 8 17 0 13-21-9-57-11-18-27-33-35-33s-15-4-15-10c0-5-13-10-30-10-16 0-30 5-30 11 0 5 4 8 8 5 4-2 14-1 22 5 11 6 2 9-27 9-23 0-45 5-48 10-3 6-17 10-30 10s-25 4-27 10c-1 5-3-16-3-48-1-68-24-116-75-149-35-24-55-30-45-13 6 10-2 13-45 12-16-1-19 1-7 4 9 3 17 10 17 15s8 9 18 9c16 1 16 1 0 10-49 29-42 135 14 190 25 26 38 31 65 28l34-4-35 34c-28 29-44 36-87 40-41 4-49 7-34 13 23 10 97 5 170-11zm842-2c-3-8-6-5-6 6-1 11 2 17 5 13 3-3 4-12 1-19zm2061-54c-12-11-25 16-20 41l6 30 8-34c5-18 8-35 6-37zm-51 34c-3-8-6-5-6 6-1 11 2 17 5 13 3-3 4-12 1-19zm-4782 2c3-5 2-10-4-10-5 0-13 5-16 10-3 6-2 10 4 10 5 0 13-4 16-10zm1079-6c12-11 16-35 16-84 0-63-2-71-25-86s-27-15-50 0c-15 10-27 30-31 53l-7 37-23-52c-13-29-29-52-38-52-12 0-13 5-4 31 6 16 9 31 7 32s-14 10-25 20c-21 17-21 17-17-8 6-30-18-71-48-80-14-5-28 0-44 15l-22 21-6-20c-13-50-37-10-37 62 0 20-4 37-10 37-18 0-11 26 14 49l23 22 7-38c3-21 6-52 6-70 0-26 3-30 19-26 10 3 22 0 25-6 10-16 33-13 40 4 9 26-5 45-33 45-38 0-41 6-23 51 9 25 21 39 33 39 9 0 24 3 33 6 11 4 16 1 16-10 0-9-12-21-27-27l-28-11 25-13c23-13 25-12 32 11 10 38 28 54 59 54 18 0 32-7 39-21 11-20 12-20 31 5 23 30 50 33 73 10zm126-79c0-78-3-95-15-95s-15 14-15 66c0 38-4 63-9 59-5-3-13 0-16 6-7 11 31 59 47 59 4 0 8-43 8-95zm3690 75c3-1 8-2 12-1 12 1 22-73 11-76-6-2-9-12-6-22s0-22-6-25c-6-4-11-2-11 4s-4 8-10 5c-5-3-11-23-11-43l-1-37-8 40c-4 21-13 41-19 43s-11 12-11 22-7 26-16 35c-15 15-14 15 10 9s26-4 26 24 9 34 40 22zm-4248-17c10-9 18-29 18-44 0-41-46-139-64-139-20 0-20 4-1 40 9 17 11 30 5 30-5 0-19 9-30 20-20 20-20 20-34-13-7-19-17-43-20-55-4-12-16-22-26-22-16 0-17 3-7 30s9 32-11 46c-41 29-19 114 30 114 10 0 25-8 34-19 15-18 17-17 40 5 27 28 41 30 66 7zm1698-35c0-38-3-49-10-38-16 25-11 90 7 90 2 0 3-24 3-52zm-702 15c-10-2-26-2-35 0-10 3-2 5 17 5s27-2 18-5zm-1591-42c14-23 5-35-14-20-14 12-18 39-5 39 4 0 13-9 19-19zm1103 5c0-8-5-18-11-22-14-8-33 11-25 25 10 16 36 13 36-3zm-760-16c-20-13-43-13-35 0 3 6 16 10 28 10 18 0 19-2 7-10zm1968-47c-10-2-26-2-35 0-10 3-2 5 17 5s27-2 18-5zm375-7c6-15-1-26-15-26-4 0-8 9-8 20 0 23 15 27 23 6zm-2771-42c38-86 5-193-58-186-33 3-80 49-90 87-17 69 31 145 93 145 31 0 36-4 55-46zm323 26c-3-5-11-10-16-10-6 0-7 5-4 10 3 6 11 10 16 10 6 0 7-4 4-10zm-145-45c0-9-9-15-23-15-13 0-28-5-35-12s-12-8-12-2c0 16 21 33 35 28 7-3 16-1 20 5 9 15 15 14 15-4zm410 5c0-5-2-10-4-10-3 0-8 5-11 10-3 6-1 10 4 10 6 0 11-4 11-10zm1149-77c7-14 30-28 59-37 28-9 38-15 24-15-53-2-142 64-142 104 0 17 42-20 59-52zm-339 17c0-5-2-10-4-10-3 0-8 5-11 10-3 6-1 10 4 10 6 0 11-4 11-10zm2025 0c-3-5-12-10-18-10-7 0-6 4 3 10 19 12 23 12 15 0zm-1282-24c15-38-21-359-49-438-8-23-13-42-11-44 7-7 221-4 350 5 10 0 16 5 13 10-3 4-27 7-53 6s-36 0-20 2c15 2 27 9 27 14 0 9 1883 6 1945-4 17-2 59-5 95-6 60-2 63-3 41-15l-23-13 22-6c15-4 28 0 39 12 13 14 27 16 81 12 62-5 63-5 25-12l-40-6 37-2c35-1 39-5 72-64 39-69 76-111 76-86 0 11 2 11 10-1 8-13 10-12 11 5 1 11 0 30-1 43-1 20 3 22 49 22 44 0 50-3 53-22 2-14 12-25 28-29 15-3-2-6-44-7-106-3-91-11 19-11 54 0 100-2 102-5 14-13-14-26-57-26s-49-2-43-17c6-17 5-17-14 0-16 14-30 17-57 12-23-5-33-11-29-19 9-15-30 16-40 32-18 29-66 34-296 33-249-1-250-1-277-52-17-33-72-239-86-319-11-66-18-76-18-27 0 26-4 37-15 37-18 0-19 12-3 28 9 9 9 15 0 24-7 7-12 22-12 35 0 14-6 23-15 23-8 0-15 7-15 16 0 8-4 12-10 9-16-10-12 5 7 23 16 16 16 16 10 0-4-12 0-19 14-23 11-4 19-15 19-29 0-13 6-29 14-35 11-9 19 11 46 111 17 68 43 143 56 167 14 26 24 60 24 84v40l-280-6c-177-4-281-3-285 3-6 9 73 12 337 15 31 1 60 4 64 7 3 4-306 7-688 7l-694-1-22-39c-20-35-27-39-62-39-33 0-40-3-40-20 0-18 5-19 88-13 48 3 90 10 93 15 4 6 9 6 13-1 9-14 151-14 416-1 107 5 243 10 303 11 102 1 107 2 108 23 1 16 2 17 6 4 5-19 13-21 79-18 31 1 46-4 67-26 15-15 27-31 27-36 0-6-8 0-18 12-17 21-25 23-153 22-74-1-177-4-229-7-196-10-352-16-590-20-258-5-273-3-281 40-4 18-13 20-78 22-51 1-81 7-100 20s-52 19-121 23l-95 5-22-29c-13-17-23-34-23-38s24-8 53-9c28 0 61-4 72-9l20-9-20-1c-116-10-627-15-662-6-13 2-23 2-23-2s-19-8-42-9c-22-1-46-7-52-13-7-7-6-10 2-10 7 0 12-5 12-11 0-5-4-7-10-4-5 3-10-1-10-9 0-10-9-16-22-16-21-1-21-2-6-13 14-11 16-35 16-170-1-145-9-196-24-150-20 61-50 126-66 143-10 10-18 24-18 30s-7 18-15 26c-18 18-45 107-45 147 0 24-3 28-20 24-11-3-20-2-20 3 0 4-6 8-12 7-35-1-58 4-58 13 0 6 7 10 15 10 21 0 30 27 15 45-18 21-10 25 53 32 51 5 56 8 77 44 11 22 16 39 11 39-6 0-11 7-11 15s4 15 9 15 17 7 25 16c13 13 22 14 46 5 22-7 30-7 31 2 0 9 2 9 6 0 7-18 34-16 48 4 12 16 17 13 60-30 44-45 54-76 28-84-7-3-17 6-23 19-20 48-34 57-78 52-26-3-42-1-42 6 0 27-23 3-61-67-57-103-63-180-25-302 15-46 31-91 36-100 12-21 12-18 14 152l2 132-33-3c-20-3-33 0-33 7 0 6 9 11 19 11 41 0 51 11 51 57 0 53 17 93 31 72 5-8 9-40 9-72v-59l53 7c59 8 70 13 62 26-3 5 2 6 12 2 15-5 16-3 6 8-15 16-17 39-3 39 6 0 10-4 10-10 0-37 71-67 84-35 3 8 16 15 30 15s31-7 40-15c20-21 36-19 36 5 0 11 4 20 9 20s13-9 16-20c7-23 30-27 38-6 3 8 23 18 44 21s52 8 68 11l30 4-30-25-30-24 88-1h88l14 33 13 32-66 6c-139 13-244 10-264-8-17-15-19-15-36 0-13 12-37 17-82 17-51 0-61 2-51 13 9 9 62 11 212 9 109-2 199 1 199 6s16 8 35 7c19 0 35 4 35 9 0 6 5 5 12-2 32-32 48-5 71 114 26 133 40 261 34 314-6 46 4 68 16 36zm1013-43c-5-11-10-13-17-6s-7 17 3 32c10 18 14 19 16 6 2-9 1-23-2-32zm144 43c0-3-4-8-10-11-5-3-10-1-10 4 0 6 5 11 10 11 6 0 10-2 10-4zm1259-33c14-49 3-62-19-21-12 23-15 37-8 46 15 17 16 16 27-25zm-172-5c-3-7-5-2-5 12s2 19 5 13c2-7 2-19 0-25zm-550-30c-2-13-4-5-4 17-1 22 1 32 4 23 2-10 2-28 0-40zm1247 46c9-3 16-15 16-25s5-19 10-19c6 0 10-55 10-145 0-127-3-151-22-195-21-47-23-49-33-29-8 15-9 37-3 72 7 36 6 53-1 55s-11 46-11 123c0 78 4 118 10 114 6-3 10-1 10 4 0 6-4 11-10 11-5 0-10 9-10 20 0 21 8 24 34 14zm-4491-71c36-37 64-70 61-72-6-6-134 120-134 131 0 14 7 8 73-59zm716 42c-8-7-289-10-289-2 0 4 42 7 93 8 50 0 115 4 142 7 42 6 67 0 54-13zm2610-40c0-36-1-38-11-17-6 12-15 22-19 22s-3 14 3 31c14 40 28 21 27-36zm-826 40c4-8 2-17-3-20-6-4-10 3-10 14 0 25 6 27 13 6zm1047-23c0-7-4-10-10-7-5 3-10 16-10 28 0 18 2 19 10 7 5-8 10-21 10-28zm-870-18c7-32 6-40-12-56-12-10-21-18-22-18-4 0 2 61 8 88 9 40 15 37 26-14zm-3062 18c6-18-15-14-22 4-4 10-1 14 6 12 6-2 14-10 16-16zm4343-28c7-18 8-18 8-1 1 16 8 18 54 15 57-3 67-10 67-47 0-28 14-19 15 9 0 27 19 26 23 0 3-17 6-19 18-9s14-3 15-87c1-55 0-103-1-109-2-5-3-36-2-67 0-57 0-58-29-58-28 0-29 1-29 50 0 39-4 53-20 62-21 14-29 78-9 78 6 0 9 8 7 17-2 12-14 18-38 19-19 1-41 2-47 3-9 1-14 20-15 54l-1 52-6-50c-5-44-9-50-31-52-25-1-26 0-28 71-2 69-1 73 20 71 12-1 25-10 29-21zm-104-16c-3-7-5-2-5 12s2 19 5 13c2-7 2-19 0-25zm-3348 3c9-16 8-18-9-14-11 3-20 12-20 19 0 20 18 17 29-5zm-892-68c-2-16-4-3-4 27s2 43 4 28c2-16 2-40 0-55zm3126 65c2-7 0-21-5-32-8-15-12-16-19-5-13 22-11 49 5 49 8 0 16-6 19-12zm-1514-7c10-7 8-12-10-25-13-8-25-12-29-7-3 4-12 11-20 14-10 4-8 6 8 6 12 1 22 6 22 11 0 12 10 13 29 1zm3200-153c-1-121-4-149-9-108-12 84-12 270 0 270 6 0 9-60 9-162zm-49 11c0-119-1-129-16-115-8 9-19 16-23 16-5 0-6 11-3 25 2 14 8 25 13 25s9 9 9 21c0 11-5 17-10 14-14-8-30 38-30 84 0 29 6 42 23 54 12 8 25 13 30 10 4-2 7-63 7-134zm-3739 108c-8-8-14-7-23 2-10 11-10 13 0 7 6-4 12-2 12 4s5 8 11 4c8-4 8-9 0-17zm472 6c-7-2-19-2-25 0-7 3-2 5 12 5s19-2 13-5zm-523-57c0-6-9 0-20 14-26 33-25 52 0 21 11-13 20-28 20-35zm860 31c11-5 9-6-4-4-11 1-21 9-23 17-3 10-2 11 4 4 4-6 15-14 23-17zm1882-19c-7-7-12-8-12-2 0 14 12 26 19 19 2-3-1-11-7-17zm545-10c-3-7-5-2-5 12s2 19 5 13c2-7 2-19 0-25zm-2913-43c4-27 4-34-3-20-13 31-24 93-12 75 5-8 12-33 15-55zm2136 39c0-14-4-23-10-19-5 3-10 15-10 26 0 10 5 19 10 19 6 0 10-12 10-26zm771-153c-5-14-13-39-16-56-5-19-9-25-13-15-3 8-12 21-21 28-14 12-14 13 1 8 25-7 31 10 29 75-1 33 3 66 11 79 12 19 13 15 16-36 2-32-1-69-7-83zm33-51c-5-29-8-32-14-15-4 11-4 22 0 25s5 13 1 22c-3 9-4 48-2 85l5 68 8-75c5-41 6-91 2-110zm-3289 154c-9-9-19-13-23-10-3 4 0 11 8 16 24 15 33 11 15-6zm195-43c0-9-70-21-83-14-4 2-5 9-2 14 8 12 85 12 85 0zm2905-66c1-44-10-59-21-30-7 19 5 90 14 81 3-4 6-27 7-51zm277 31c14-21 8-36-14-36-26 0-55 46-34 53 14 5 39-4 48-17zm-594-9c6-5 12-14 12-20 0-11-74-14-142-8-5 1-8 9-8 19 0 17 8 19 63 18 34-1 68-5 75-9zm-3363-17c-3-5-13-10-21-10s-12 5-9 10c3 6 13 10 21 10s12-4 9-10zm605-20c0-5-4-10-10-10-5 0-10 5-10 10 0 6 5 10 10 10 6 0 10-4 10-10zm3378-35c-2-2-16-6-31-9-19-3-27 0-27 10 0 8-6 15-12 15-7 1 1 4 17 8 19 4 35 2 44-7 7-7 12-15 9-17zm-3398-19c0-17-188-29-400-25-80 2-150 0-156-3-5-4-93-8-194-10-138-2-185 1-188 10-2 8 10 12 40 12 23 0 108 3 188 6s253 9 385 13 259 8 283 9c30 2 42-2 42-12zm1033-23c-13-2-35-2-50 0-16 2-5 4 22 4 28 0 40-2 28-4zm-1038-43c-3-5-30-10-58-10-29 0-66-4-83-9-35-10-124-3-124 10 0 5 48 10 108 12 59 1 120 4 135 5 17 1 26-2 22-8zm3710 0c-3-5-12-10-18-10-7 0-6 4 3 10 19 12 23 12 15 0zm180 0c3-5 1-10-4-10-6 0-11 5-11 10 0 6 2 10 4 10 3 0 8-4 11-10zm-1947-14c3-3-71-5-164-5-95 1-154 5-134 9 40 8 289 4 298-4zm457 4c-4-6-89-9-228-8-153 1-197 4-142 8 139 11 377 11 370 0zm-3155-21c0-13-35-29-63-29-29 0-57 27-36 34 42 15 99 12 99-5zm225 11c-4-6-51-9-113-8l-107 2 80 6c134 11 147 11 140 0zm103 3c-15-2-42-2-60 0s-6 4 27 4 48-2 33-4zm-511-19c-3-3-12-4-19-1-8 3-5 6 6 6 11 1 17-2 13-5zm805-29c16-21 7-35-22-35-19 0-30-5-30-14 0-8-9-18-20-21-25-8-26-22-2-29 16-5 16-17 8-154l-9-149-96-7c-53-3-154-6-224-6-82 0-126-4-122-10 6-9 350-5 433 5l34 4-7-42c-4-23-14-48-23-54-14-11-11-13 16-13 18 0 32-4 32-8 0-5 14-9 30-10 17 0 30 4 30 9s28 9 62 9c68 0 69-14 3-23-100-14-135-27-135-48 0-5 10-9 23-10 21-1 21-1-3-9-23-7-23-8 10-10l35-3-35-7-35-7 35-3 35-3-35-7-35-7 40-3 40-3-40-7-40-7 40-3c36-2 37-3 15-10l-25-8 25-2c18-2 20-4 8-7-22-5-24-23-3-23 8 0 15-7 15-16 0-16-19-15-66 3-12 4-15 3-10-5 4-8 0-12-11-12-16 0-18 8-15 62 1 35-1 68-5 75-9 13-64 15-288 14-82-1-154-1-160 0-5 1-17 1-26 0s-19 5-22 14c-4 10-20 15-46 15-46 0-71 8-71 23 0 7 4 7 12-1 16-16 45-15 50 0 4 10 10 10 32 0 18-8 32-9 40-3 6 5 81 10 165 10 85 1 157 4 160 6 4 5-291 9-366 5-26-1-43 3-43 9s5 11 10 11c6 0 10 25 10 55v55h45c38 0 45 3 45 20s-7 20-40 20c-40 0-40 0-40 39 0 40 0 40 43 43l42 3 7 57c4 32 15 72 24 90 11 20 13 33 6 36-6 2-8 17-5 36 5 32 4 33-21 29-19-4-26-1-26 11 0 18-5 20-29 7-18-10-51 2-39 14 3 4 25 9 48 12 33 5 45 2 65-17 14-13 25-34 25-46 0-26-11-25 245-8 50 3 97 6 107 6 9-1 19 9 22 21 4 16 8 19 14 9 12-17 31 5 27 31-3 14 2 18 23 15 15-2 30-7 34-13zm3048 5c0-5-18-10-39-10-43 0-48-4-72-64-9-22-18-35-21-30-9 14 19 87 39 101 20 15 93 17 93 3zm25 0c3-5 1-10-4-10-6 0-11 5-11 10 0 6 2 10 4 10 3 0 8-4 11-10zm-3821-26c9-24 7-28-9-14-17 14-20 30-6 30 5 0 12-7 15-16zm100 1c22-22 9-45-25-45-24 0-29 4-29 23 0 39 26 50 54 22zm186 5c0-5-4-10-10-10-5 0-10 5-10 10 0 6 5 10 10 10 6 0 10-4 10-10zm-498-77c9-10 18-31 20-47 2-24-2-30-26-39-23-8-31-6-38 6-5 10-16 14-26 11-14-5-14-4-3 4 10 7 14 25 13 51-2 22 3 49 10 61 13 21 13 21 23-4 6-13 18-32 27-43zm662 50c-5-5-12-12-16-18s-8-2-8 8c0 9 7 17 17 17 9 0 12-3 7-7zm4226-3c0-5-9-10-20-10s-20 5-20 10c0 6 9 10 20 10s20-4 20-10zm-4490-8c0-5-6-16-13-27-16-21-37-12-37 16 0 14 7 19 25 19 14 0 25-4 25-8zm50-21c0-20-25-35-41-25-15 9-10 32 9 37 30 8 32 7 32-12zm-208-13c-7-7-12-8-12-2s3 14 7 17c3 4 9 5 12 2 2-3-1-11-7-17zm-75 6c-3-3-12-4-19-1-8 3-5 6 6 6 11 1 17-2 13-5zm4374-11c13-16 12-17-3-4-17 13-22 21-14 21 2 0 10-8 17-17zm-2933-15c-2-19-10-24-40-26-35-3-38-1-38 22 0 24 4 26 41 26 36 0 40-2 37-22zm1979-38c-3-12 1-21 12-23 9-3 3-5-12-6-21-1-39 9-64 34l-35 35h30c17 0 34 5 37 11 10 16 38-29 32-51zm108 50c3-5 15-10 26-10s17-5 14-10c-3-6 1-13 9-16 9-3 13-10 10-15s18-9 47-9c56 0 62-12 7-14-26-1-34-6-36-23-2-13-8-23-13-23s-9-4-9-10c0-5 18-10 39-10 39 0 61-13 42-25-6-3-35-2-65 3-39 6-56 6-56-2-1-6-14 18-31 54-17 38-26 66-19 68 5 2 10 15 10 28 0 24 14 32 25 14zm870-51c17-1 17-2 3-6-27-7-22-33 5-30 19 2 22-3 24-33 1-19 2-37 2-40 4-21 14-190 15-255 1-68 4-80 19-83 17-3 16-5-3-22-17-15-20-25-15-49 5-25 4-30-8-25-16 6-27 127-27 297 0 128-14 160-84 193l-51 24 43-5c33-4 42-2 42 10 0 11-11 15-37 15-51 0-113 11-113 20 0 4 21 3 48-1 75-12 95-11 88 6-17 43-16 47 5 18 13-18 33-33 44-34zm-3045 36c0-33-22-115-31-115-20 0 3-20 24-21 36-2-54-18-105-18-27-1-48 3-48 9 0 13 44 23 69 15 12-4 21-2 21 4s-11 11-25 11c-31 0-32 13-2 37 14 10 27 35 31 56 6 33 10 37 36 37 20 0 30-5 30-15zm-1610-65c0-11-7-20-15-20-17 0-18 2-9 24 9 23 24 20 24-4zm1708-35c2-31-2-45-11-45-20 0-13-116 10-170 30-66 54-84 103-77 22 3 50 2 63-1 16-5 10-8-28-13l-50-6 61-1c70-2 87 10 116 81 13 32 17 36 17 19 2-73-90-151-161-137-25 5-29 4-18-4 8-6 29-11 47-11h32l3-132c2-73 2-135 1-136-1-2-162-6-359-9-266-4-355-3-350 6 4 6 18 8 33 5 26-7 43 7 43 35 0 11-3 11-15 1-20-17-34-4-32 30 3 38 19 44 51 19 14-11 30-17 36-14 17 11 11 25-11 25-19 0-21 5-17 45 4 31 13 53 31 71 15 15 27 37 27 50 0 12 6 26 12 30 7 5 71 11 143 14l130 7-139 1c-77 1-136 5-133 8 5 6 117 10 340 13 20 0 37 2 37 5s-9 20-19 38c-23 38-43 117-43 168 0 19-3 40-8 45-4 6-4 19 1 30 4 11 8 15 8 8 1-7 8-10 17-6 8 3 14 15 13 27-2 31 0 38 9 32 5-3 9-26 10-51zm2305 48c-7-2-19-2-25 0-7 3-2 5 12 5s19-2 13-5zm507-3c0-5-7-7-15-4-8 4-15 8-15 10s7 4 15 4 15-4 15-10zm-2850-20c0-5-9-10-21-10-11 0-17 5-14 10 3 6 13 10 21 10s14-4 14-10zm2320-14c0-3-4-8-10-11-5-3-10-1-10 4 0 6 5 11 10 11 6 0 10-2 10-4zm374-5c5-8-62-21-110-21-50 0-21 19 34 23 31 2 60 4 64 5s9-2 12-7zm-1395-48c2-2-3-3-11-3-9 0-19 7-22 16-6 15-4 15 11 3 10-7 20-15 22-16zm571-2c79-16 94-20 88-26-3-3-36 2-74 10s-79 18-91 20c-13 3-23 10-23 16s6 6 18 1c9-5 46-15 82-21zm208-20c3-8-1-12-9-9-7 2-15 10-17 17-3 8 1 12 9 9 7-2 15-10 17-17zm216-30c24-27 11-48-15-25-19 17-26 44-11 44 5 0 17-9 26-19zm521-3c13-12-22-39-41-31-9 3-14-1-14-12 0-9 5-13 11-9 6 3 21 2 32-4 12-5 38-17 58-26 39-17 66-43 56-53-4-3-41 11-84 32-73 35-106 62-98 76 2 3-6 5-18 5-14-1-23 6-25 19-4 15-2 17 9 8s20-8 39 2c25 14 56 11 75-7zm-980 2c3-5 2-10-4-10-5 0-13 5-16 10-3 6-2 10 4 10 5 0 13-4 16-10zm255 0c0-5-7-7-15-4-8 4-15 8-15 10s7 4 15 4 15-4 15-10zm441-3c-1-12-15-9-19 4-3 6 1 10 8 8 6-3 11-8 11-12zm-1221-87c37-9 39-40 3-40h-29l-13-104c-8-57-10-109-7-115 4-6 3-11-3-11-10 0-15-14-45-147-9-40-19-79-22-87-3-9 3-17 16-21 20-6 20-8 5-19-20-14-16-51 5-52 34-2 37-5 32-31-4-23-6-24-17-10-7 10-15 17-19 17s-15 8-24 17c-16 15-18 14-29-23-14-48-16-25-3 31 74 300 110 494 112 598 1 68 3 81 7 47 5-37 10-45 31-50zm1258 51c3-8-1-12-9-9-7 2-15 10-17 17-3 8 1 12 9 9 7-2 15-10 17-17zm-1111-23c-3-8-6-5-6 6-1 11 2 17 5 13 3-3 4-12 1-19zm-59 3c9-5 3-8-17-9-17 0-31 4-31 9 0 11 30 12 48 0zm872-10c0-30-34-65-55-58-16 7-15 10 9 34 14 14 26 30 26 34 0 5 5 9 10 9 6 0 10-9 10-19zm-940-1c0-5-4-10-10-10-5 0-10 5-10 10 0 6 5 10 10 10 6 0 10-4 10-10zm748-6c30-21 62-86 62-127 0-26 5-36 20-40 12-3 18-11 15-20-7-17-198-33-203-17-2 6-10 10-18 10-18 0-18 15 0 32 10 9 11 20 4 40-6 17-6 33 1 47 6 11 11 27 11 37 0 45 65 68 108 38zm452-4c0-5-4-10-10-10-5 0-10 5-10 10 0 6 5 10 10 10 6 0 10-4 10-10zm430 0c0-5-5-10-11-10-5 0-7 5-4 10 3 6 8 10 11 10 2 0 4-4 4-10zm-1520-30c0-5-2-10-4-10-3 0-8 5-11 10-3 6-1 10 4 10 6 0 11-4 11-10zm-2740-40c0-22 5-40 10-40 6 0 10-6 10-12 0-16-50-20-50-4 0 6-5 3-11-6-10-18-39-14-39 5 0 5 11 30 25 54 33 56 55 57 55 3zm2401 30c9 12 10 12 5-4-4-11-2-22 4-26s13-21 15-39c4-31 3-32-28-29-36 3-43 19-32 76 5 27 9 32 16 21 8-12 11-12 20 1zm1637-41c-3-8-12 1-22 21l-17 35 22-21c12-12 19-28 17-35zm-4148 17c0-14-6-31-14-38-8-8-16-23-18-34-2-10-11-20-21-22-15-3-17 5-17 57v61h35c30 0 35-3 35-24zm30 14c0-5-4-10-10-10-5 0-10 5-10 10 0 6 5 10 10 10 6 0 10-4 10-10zm4357-52c-3-8-6-5-6 6-1 11 2 17 5 13 3-3 4-12 1-19zm-3594 5c-7-2-19-2-25 0-7 3-2 5 12 5s19-2 13-5zm3106-40c2-2-3-3-11-3-9 0-24 12-33 28l-18 27 29-25c16-14 31-26 33-27zm461 39c0-5 10-19 21-31 21-22 22-30 16-137-3-68-2-112 4-108 16 10 10-13-8-27-14-12-16-12-8 0 5 10 4 12-3 7-7-4-12-13-12-21 0-14-24-15-37 0-4 4-2 5 5 1 6-4 12-4 12 1-1 12-26 43-35 43-4 0-3-6 3-13 7-8 7-18 2-27-7-10-10-11-10-2 0 6-5 12-11 12-14 0-39 25-39 39 0 8-7 7-20-1-27-17-25-27 5-38 16-6 25-17 25-31 0-18-2-19-15-9-8 7-15 8-15 4 0-15-53-32-88-30-30 3-59 16-34 16 7 0 12 17 12 43v42l-45-3c-25-2-43-8-40-12 3-5-3-11-12-13-54-15-73-17-73-7 0 6-4 9-10 5-5-3-5 7 1 25 13 36 24 40 15 6-5-20-2-24 13-23s17 4 7 20c-14 24 14 47 58 47 17 0 48 4 69 9l37 9v-69c0-75 11-86 43-48 14 15 15 24 7 34-6 7-8 24-5 38 4 15 1 30-9 39-8 9-12 18-9 22 10 10 43 7 43-4 0-5-4-10-9-10-4 0-6-11-3-25 5-29 42-36 43-7 0 13 2 12 9-5 10-25 29-31 31-10 0 10 2 10 6 0 7-19 25-16 22 5-8 83 18 179 40 144 13-22 21 11 11 45-6 19-9 22-9 9-1-11-4-16-8-12-11 10-12 66-2 66 5 0 9-4 9-8zm-3305-32c-5-16-14-20-40-18-36 2-56-8-40-20 14-10 17-32 5-32-5 0-10 8-11 18 0 10-3 12-6 5-7-18-23-16-23 2 0 8 5 15 12 15 6 0 8 3 5 7-11 11 46 34 70 28 17-4 23-1 23 11 0 10 3 15 6 11 3-3 3-15-1-27zm2229 4c-7-3-10-14-7-24 3-11 0-20-6-20s-10 3-10 8c4 23-5 30-37 30-19 0-38 3-41 6-4 3 20 6 53 5 32 0 54-3 48-5zm42-16c-3-13-6-28-6-35s-6-10-14-7-13 12-10 20c2 8 6 21 9 29 7 25 28 18 21-7zm829 13c-3-5 5-11 17-13 13-2 24-10 26-19 2-13-3-15-23-12-24 5-25 3-25-37 0-36-2-41-19-35-39 12-88 7-126-14l-40-21-15 22c-8 13-30 39-47 59-18 20-33 39-33 43 0 3 18-3 40-14 21-11 46-20 54-20 7 0 17-8 21-17 7-16 9-14 15 7 4 16 12 24 23 22 9-2 17 2 17 7 0 10 63 6 81-5 5-3 12 8 15 25 4 17 11 31 16 31s7-4 3-9zm-525-11c0-5-5-10-11-10-5 0-7 5-4 10 3 6 8 10 11 10 2 0 4-4 4-10zm215 0c3-5 1-10-4-10-6 0-11 5-11 10 0 6 2 10 4 10 3 0 8-4 11-10zm120 0c3-5 2-10-4-10-5 0-13 5-16 10-3 6-2 10 4 10 5 0 13-4 16-10zm669-28c-4-19-1-32 10-41 9-8 16-25 16-40l-1-26-12 27c-12 28-29 27-40-2-5-13-6-13-6 1-1 11-11 16-33 17-23 1-28-2-18-8 13-8 12-10-1-10-9 0-19 7-23 15-4 11 2 15 28 15 40 0 71 29 61 59-4 15-2 21 9 21 12 0 14-7 10-28zm-2164-36c0-6 7-23 14-38 14-26 13-29-5-39-12-6-22-9-24-7s-7 27-11 56c-6 46-5 52 10 46 9-3 16-11 16-18zm-1510-16c0-5-6-9-12-7-7 1-13-4-12-10 4-45 4-45 30-39 22 6 25 4 22-16-4-28-37-38-39-11-1 10-4 5-8-12-6-28-10-30-54-33-48-3-59 6-32 28 8 7 15 16 15 20 0 21 55 90 72 90 10 0 18-4 18-10zm2370 0c-20-13-43-13-35 0 3 6 16 10 28 10 18 0 19-2 7-10zm-70-10c0-5-21-10-47-10-35 0-44 3-33 10 20 13 80 13 80 0zm-943-32c-3-8-6-5-6 6-1 11 2 17 5 13 3-3 4-12 1-19zm1903 12c0-5-2-10-4-10-3 0-8 5-11 10-3 6-1 10 4 10 6 0 11-4 11-10zm-3900-25c0-8-4-15-9-15-13 0-22 16-14 24 11 11 23 6 23-9zm2966-96c4-8 3-9-4-5-8 5-10 2-6-8 4-11 0-16-12-16-16 0-17-2-4-10 12-8 9-10-12-12-38-2-76-6-120-11-36-5-36-4-25 20 7 16 17 23 29 20 10-3 21-1 24 4s16 9 29 9c26 0 45 25 45 59 0 12-5 21-11 21s-9-7-5-15c3-8 1-15-4-15-11 0-13 30-4 55 6 15 27-11 80-96zm24 107c0-3-4-8-10-11-5-3-10-1-10 4 0 6 5 11 10 11 6 0 10-2 10-4zm670-36c0-5-2-10-4-10-3 0-8 5-11 10-3 6-1 10 4 10 6 0 11-4 11-10zm265 0c3-5 1-10-4-10-6 0-11 5-11 10 0 6 2 10 4 10 3 0 8-4 11-10zm-1759-73c0-41-4-65-10-64s-10-3-9-10c2-7-4-10-13-6-11 4-13 12-8 27 3 11 9 45 11 74 7 77 28 62 29-21zm295-64c-6-50-14-98-17-107-4-10-1-16 9-16 8 0 17-9 20-20 4-17 1-20-16-18-16 2-21-2-19-14 3-20-14-25-20-7-3 9-10 9-27-1-19-10-25-10-32 1-12 20-11 29 4 29 7 0 25 11 40 25 28 27 28 29 33 170 0 22 4 53 9 69l8 30 9-25c6-15 5-59-1-116zm1709 117c0-5-5-10-11-10-5 0-7 5-4 10 3 6 8 10 11 10 2 0 4-4 4-10zm-4216-52c-4-29-11-57-17-63-7-7-8-4-3 8 3 10 6 39 6 63s5 44 10 44c7 0 8-19 4-52zm4186 36c0-2-7-4-15-4s-15 4-15 10c0 5 7 7 15 4 8-4 15-8 15-10zm-4625-14c-3-5-13-10-21-10s-14 5-14 10c0 6 9 10 21 10 11 0 17-4 14-10zm2187-20c3-16 1-30-3-30-3 0-10-10-14-22-4-16-8-19-12-9-5 11-7 11-15 0-7-10-8-9-3 6 4 11 9 35 12 53 7 40 29 42 35 2zm1425-12c-3-7-5-2-5 12s2 19 5 13c2-7 2-19 0-25zm993 22c0-5-5-10-11-10-5 0-7 5-4 10 3 6 8 10 11 10 2 0 4-4 4-10zm247 4c-3-3-12-4-19-1-8 3-5 6 6 6 11 1 17-2 13-5zm-1356-35c-5-13-10-19-10-12-1 15 10 45 15 40 3-2 0-15-5-28zm1155 12c0-11-4-17-8-15-4 3-8 12-8 20s4 14 8 14 8-9 8-19zm-3828 2c-10-2-28-2-40 0-13 2-5 4 17 4 22 1 32-1 23-4zm-538-37c0-21 6-25 33-28 26-2 33-8 35-30 3-25 0-27-40-30-45-3-98 15-98 34 0 7 7 5 18-4 31-27 47-32 26-7-29 33-46 67-39 79 3 6 19 10 36 10 24 0 29-4 29-24zm3425 15c3-5 1-12-5-16-5-3-10 1-10 9 0 18 6 21 15 7zm-1736-54c1-11-3-15-11-11-6 4-17-1-24-11-8-10-17-15-21-11-5 4 2 16 14 26 12 9 20 20 16 23-3 4-2 14 2 24 7 17 8 17 15-2 5-11 9-28 9-38zm1711 22c0-24-4-30-17-27-10 2-18 13-19 25-1 14 3 20 12 16 8-3 14 0 14 6s2 11 5 11 5-14 5-31zm-1338 6c84-5 108-10 113-23 9-25-11-30-121-31-57-1-110-4-118-7-14-6-29 10-33 36-5 28 6 41 29 36 13-3 71-8 130-11zm220-25c-26-24-62-27-62-4 0 11 6 15 20 11 11-3 20-1 20 4s10 9 22 9h22zm1982-29c3-4-21-13-54-18-45-7-60-6-64 3-7 17 3 24 35 24 15 0 31 5 34 10 6 10 39-2 49-19zm-4582-6c3-13 1-22-3-19-9 5-13 44-5 44 2 0 6-11 8-25zm2933-14c-14-13-103-26-90-13 9 9 34 15 85 21 8 0 10-2 5-8zm1331-48c-1-1-18-4-38-6-47-5-70 8-29 16 20 4 31 13 31 23 0 12 4 11 19-7 11-13 18-25 17-26zm-723 20c-7-2-13-11-13-18 0-13-17-19-100-30-25-4-53-9-62-11-10-3-18-1-18 3 0 14 73 43 108 43 18 0 32 5 32 10 0 6 15 10 33 9 17 0 26-3 20-6zm-3288-13c-3-5-14-10-23-9-14 0-13 2 3 9 27 11 27 11 20 0zm3859-24c-5-14-54-24-54-11 0 5 54 34 58 31 1-2 0-11-4-20zm-3667-3c3-8-19-12-78-12-89 0-96 5-28 18 57 12 101 9 106-6zm3994-56c-16-16-26 0-10 19 9 11 15 12 17 4 2-6-1-17-7-23zm-1785-24c-10-10-19 5-10 18 6 11 8 11 12 0 2-7 1-15-2-18zm344 12c0-2-7-5-15-9-9-3-15 0-15 9s6 12 15 9c8-4 15-7 15-9zm-232-146c-22-41-42-65-65-77-27-15-63-15-63-1 0 5 4 8 9 5s14 0 20 8c9 11 6 15-14 20-14 4-23 11-20 16 4 6 13 5 24-2 15-9 25-8 46 6 18 12 25 13 20 5s1-6 13 5c12 10 19 22 17 26-3 5 1 10 7 13 19 6 20 3 6-24zm-684-46c-40-138-126-221-198-193-41 15-26 35 28 38 33 2 49 8 54 20 3 9 17 28 30 42s30 38 38 53c9 16 20 25 26 21 7-5 9-2 5 8-3 9 1 25 8 36 8 10 11 23 7 27-4 5-2 5 5 2 8-5 7-19-3-54zm1116-42c0-21-13-41-26-41-17 0-19 36-1 43 19 8 27 8 27-2zm-1200-30c-13-25-30-36-30-20 0 6 8 18 18 25 23 18 24 17 12-5zm528-23c-16-5-28-16-28-23 0-18-37-25-96-19-39 5-60 2-85-11-69-36-72-37-78-27-3 6-19 8-34 5-22-4-25-8-15-15 9-7 5-8-14-5-15 2-25 0-22-5s-6-6-22-2c-19 5-25 4-20-5 5-7 0-11-13-11-10 0-21 3-24 8-2 4-3 2-1-4 1-6-22-15-52-21-51-9-64-2-19 11 11 3 2 3-20 0-31-4-37-3-28 6 12 13 128 42 238 60 39 6 108 21 154 32 66 16 86 18 89 8 3-9 6-9 13 1 6 10 9 11 9 2 0-7 5-13 10-13 6 0 9 5 8 12-2 6 8 15 22 19 37 11 59 9 28-3zm-653-143c-5-2-23-6-39-10-23-5-27-8-15-16 12-7 11-9-3-9-9 0-18 4-20 9-1 5-46 0-98-10-52-11-102-18-110-16-16 3 68 31 140 46 41 8 168 14 145 6zm-1805-165c0-5-2-10-4-10-3 0-8 5-11 10-3 6-1 10 4 10 6 0 11-4 11-10zm1450-50c0-5-4-10-10-10-5 0-10 5-10 10 0 6 5 10 10 10 6 0 10-4 10-10zm-1380-4c0-3-4-8-10-11-5-3-10-1-10 4 0 6 5 11 10 11 6 0 10-2 10-4z"/><path d="m2405 3770c-8-13 5-13 25 0 13 8 13 10-2 10-9 0-20-4-23-10z"/><path d="m5907 3364c-4-4-7-14-7-23 0-11 3-12 11-4 6 6 10 16 7 23-2 6-7 8-11 4z"/><path d="m5850 3224c0-8 5-12 10-9 6 4 8 11 5 16-9 14-15 11-15-7z"/><path d="m5905 2830c3-5 13-10 21-10s12 5 9 10c-3 6-13 10-21 10s-12-4-9-10z"/><path d="m5970 2810c8-5 20-10 25-10 6 0 3 5-5 10s-19 10-25 10c-5 0-3-5 5-10z"/><path d="m5940 2591c0-5 7-11 15-15 8-3 15-1 15 3 0 5-7 11-15 15-8 3-15 1-15-3z"/><path d="m4893 3123c-7-3-13-9-13-15s6-8 14-5 16-2 19-14c6-24 27-25 27-1 0 20-29 41-47 35z"/><path d="m3688 3093c7-3 16-2 19 1 4 3-2 6-13 5-11 0-14-3-6-6z"/><path d="m3868 3073c6-2 18-2 25 0 6 3 1 5-13 5s-19-2-12-5z"/><path d="m4085 3070c27-12 35-12 35 0 0 6-12 10-27 9-25 0-26-1-8-9z"/><path d="m4806 3059c-23-34-20-39 16-28 18 5 44 9 58 9 23-1 23-2-7-15-18-8-33-19-33-24 0-7-8-7-26-1-15 6-23 6-19 1 3-5-13-21-35-34l-41-24 32-7c49-10 79-7 79 7 0 21 36 46 51 36 11-7 10-9-4-9-10 0-15-4-12-10 3-5 1-10-4-10-6 0-11-7-11-15 0-26 37-17 48 13 6 15 14 36 18 47s6 26 5 33c-1 6 3 12 9 12s8 5 5 10c-3 6-15 10-25 10s-20 5-22 11c-3 9-9 9-24 1s-24-8-31-1-16 4-27-12z"/><path d="m4682 2971c-11-7-11-9 1-14 8-3 23 1 34 8 17 14 17 14-2 15-11 0-26-4-33-9z"/><path d="m5036 2965c-4-11 2-15 24-15 36 0 48 16 17 24-32 8-34 8-41-9z"/><path d="m4256 2921c-9-13 2-88 15-111 6-11 8-8 9 13 0 45 17 31 23-20 3-26 10-49 16-51s8-9 5-14c-4-7-2-8 4-4 7 4 9 18 6 31-4 16 2 33 16 53 27 37 21 92-11 92-10 0-19-7-19-15 0-22-12-18-36 12-14 18-23 23-28 14zm79-91c-4-12-9-19-12-17-3 3-2 15 2 27s9 19 12 17c3-3 2-15-2-27z"/><path d="m4867 2894c3-8 9-11 14-8s9-2 9-11 4-14 9-10c6 3 9-3 9-12 0-10 4-31 11-47 10-25 13-27 29-15 9 8 20 19 25 24 4 6 10 0 13-12 9-32 21-29 29 7 9 42 24 37 31-9 4-27 12-41 25-44 11-3 19-14 19-25 0-12 5-24 10-27 6-3 10 1 10 9s7 22 16 30c9 10 13 24 9 36-7 23 6 26 35 8 22-14 26-12 35 24 6 24 4 28-27 36-21 6-38 5-46-1-8-7-18-5-31 7-11 10-32 16-52 15-19-1-47 2-63 6-27 7-29 6-23-17 5-17 2-30-8-38-13-11-15-8-15 17 0 32-22 57-57 65-15 4-20 2-16-8z"/><path d="m5008 2903c7-3 16-2 19 1 4 3-2 6-13 5-11 0-14-3-6-6z"/><path d="m5280 2876c0-2 9-6 20-9s18-1 14 4c-5 9-34 13-34 5z"/><path d="m4582 2797c5-18 12-40 15-49 3-10 8-18 11-18 6 0 31 33 32 43 0 4-6 7-14 7s-17 9-21 19c-3 11-12 22-19 24-12 5-12 0-4-26z"/><path d="m5555 2820c11-5 29-8 40-8 16 0 15 2-5 8-34 11-60 11-35 0z"/><path d="m5237 2803c-4-3-7-21-7-40 0-26 4-33 20-33 14 0 20 7 20 24 0 44-16 67-33 49z"/><path d="m5298 2763c-3-12 3-39 16-64 17-34 22-38 24-21 2 11-5 40-16 64-16 37-19 40-24 21z"/><path d="m5580 2732c0-6 9-12 20-15s20-3 20-1-9 8-20 14-20 7-20 2z"/><path d="m5638 2713c6-2 18-2 25 0 6 3 1 5-13 5s-19-2-12-5z"/><path d="m4850 2681c0-6 4-13 10-16s7 1 4 9c-7 18-14 21-14 7z"/><path d="m5240 2681c0-10 30-24 37-17 3 3 2 9-2 15-8 13-35 15-35 2z"/><path d="m5091 2650c0-29 1-32 10-17 7 11 7 23 0 35-9 14-10 11-10-18z"/><path d="m4367 2617c-11-29-9-43 4-30 6 6 9 19 7 29-3 18-4 18-11 1z"/><path d="m4810 2521c0-14 5-19 15-14 17 6 15 25-3 31-7 2-12-5-12-17z"/><path d="m5696 2525c-3-8-1-15 4-15 6 0 10 7 10 15s-2 15-4 15-6-7-10-15z"/><path d="m4901 2454c0-11 3-14 6-6 3 7 2 16-1 19-3 4-6-2-5-13z"/><path d="m3175 2470c-3-6 1-7 9-4 18 7 21 14 7 14-6 0-13-4-16-10z"/><path d="m2250 2725c-11-13-11-19 3-33 20-19 41-5 35 24-4 24-22 28-38 9z"/><path d="m2357 2733c-9-8-9-60-1-90 9-32 42-30 50 2 10 41-4 95-25 95-10 0-21-3-24-7z"/><path d="m1930 2695c0-20 4-26 18-23 9 2 17 12 17 23s-8 21-17 23c-14 3-18-3-18-23z"/><path d="m1822 2688c2-13 10-23 18-23s16 10 18 23c3 17-2 22-18 22s-21-5-18-22z"/><path d="m3808 2013c28-2 76-2 105 0 28 2 5 3-53 3s-81-1-52-3z"/><path d="m4453 2013c64-2 170-2 235 0 64 1 11 3-118 3s-182-2-117-3z"/><path d="m5083 2013c37-2 97-2 135 0 37 2 6 3-68 3s-105-1-67-3z"/><path d="m5476 1991c-8-12-3-13 106-11 44 1 79-3 83-9 4-8-20-11-75-11h-81l3-42 3-43 128-3c108-2 127 0 127 13 0 8 5 15 10 15 6 0 10-7 10-15 0-13 9-15 48-11 26 3 53 5 59 5 8 1 11 12 8 34-4 25-3 28 4 12 5-11 12-28 15-38s10-16 15-13c5 4 20 2 34-3 36-14 39-4 14 39-20 35-26 39-69 42-46 3-48 2-48-24 0-15-4-29-9-32-16-10-42 5-39 22 2 13-4 16-32 14-29-3-41 3-63 27-23 27-34 31-76 31-26 0-75 3-108 6-40 4-63 3-67-5z"/><path d="m5378 1983c18-2 45-2 60 0s0 4-33 4-45-2-27-4z"/><path d="m3655 1949c-15-7-6-8 32-6 32 3 54 0 57-7 2-6 5-3 5 7 1 13-7 17-36 16-21 0-47-5-58-10z"/><path d="m5758 1953c6-2 18-2 25 0 6 3 1 5-13 5s-19-2-12-5z"/><path d="m3848 1943c12-2 30-2 40 0 9 3-1 5-23 4-22 0-30-2-17-4z"/><path d="m2446 1903c-11-11-6-21 14-26 12-3 20 0 20 8 0 14-25 27-34 18z"/><path d="m5905 2350c3-5 8-10 11-10 2 0 4 5 4 10 0 6-5 10-11 10-5 0-7-4-4-10z"/><path d="m6014 2185c-8-20 3-48 16-40s13 55 0 55c-6 0-13-7-16-15z"/><path d="m6014 2105c-11-27 2-37 14-11 7 16 8 26 1 26-5 0-12-7-15-15z"/><path d="m2330 1180c0-5 7-10 16-10 8 0 12 5 9 10-3 6-10 10-16 10-5 0-9-4-9-10z"/><path d="m5118 1753c7-3 16-2 19 1 4 3-2 6-13 5-11 0-14-3-6-6z"/><path d="m5973 1693c9-9 19-14 23-11 10 10-6 28-24 28-15 0-15-1 1-17z"/><path d="m2886 1762c-3-6-1-14 5-17 15-10 25 3 12 16-7 7-13 7-17 1z"/><path d="m3040 1386c0-2 7-7 16-10 8-3 12-2 9 4-6 10-25 14-25 6z"/><path d="m2618 1223c6-2 18-2 25 0 6 3 1 5-13 5s-19-2-12-5z"/><path d="m4070 1436c0-9 5-16 10-16 6 0 10 4 10 9 0 6-4 13-10 16-5 3-10-1-10-9z"/><path d="m2430 4041c-8-6-17-8-21-5-4 2-10 0-14-6s-12-7-18-4c-7 4-5-1 5-11 22-24 67-13 65 15-1 11-1 20-2 20 0 0-7-4-15-9z"/><path d="m4215 4000c-4-6 3-10 14-10 25 0 27 6 6 13-8 4-17 2-20-3z"/><path d="m1924 3961c-40-24-71-64-79-102-4-17-13-33-21-36s-14-19-14-40c0-27 3-34 15-29 10 3 15-1 15-11 0-9 3-14 6-10 4 3 24-14 46-38 22-25 44-43 48-40 5 3 11 1 15-5 3-5 12-10 18-10 7 0 6 4-3 10-12 8-9 10 12 10h27l-25 45c-21 36-25 54-21 100 2 30 8 59 12 63 5 4 5 0 0-8-4-8 2-5 14 7 12 13 35 30 51 38 16 9 31 16 32 17 2 1 13-4 26-11 12-6 22-8 22-3 0 11-39 46-67 61-33 17-94 13-129-8z"/><path d="m4008 3973c6-2 18-2 25 0 6 3 1 5-13 5s-19-2-12-5z"/><path d="m4158 3946-27-24 28-10c30-11 81-5 81 9 0 5 7 9 15 9s15-5 15-11c0-5 5-7 10-4 6 3 10 13 10 22 0 13-9 15-51 10s-50-4-45 8c8 21-5 18-36-9z"/><path d="m4301 3932c-11-21-6-32 16-32 15 0 18 36 4 45-6 3-15-3-20-13z"/><path d="m3992 3933c-37-5-95-32-72-34 39-3 96 3 104 11 5 5 22 6 39 3 23-5 29-3 25 8-5 15-41 19-96 12z"/><path d="m4100 3920c0-5 5-10 10-10 6 0 10 5 10 10 0 6-4 10-10 10-5 0-10-4-10-10z"/><path d="m4534 3899-19-22 29 7c28 7 28 7 22-29-4-19-3-35 2-35 15 0 34 28 27 40-4 6 7 10 30 10 33 0 35-2 29-25-8-34 14-33 27 2 12 32 8 36-55 57s-69 20-92-5z"/><path d="m5341 3877c-8-12-21-32-29-44-8-13-12-23-9-23 7 0 59 81 55 85-2 2-10-6-17-18z"/><path d="m4510 3851c0-6 5-13 10-16 6-3 10 1 10 9 0 9-4 16-10 16-5 0-10-4-10-9z"/><path d="m5666 3783c-6-14-5-15 5-6 7 7 10 15 7 18s-9-2-12-12z"/><path d="m5451 3776c11-12 69-25 69-15 0 5-9 9-19 9-11 0-28 3-38 7-10 3-15 3-12-1z"/><path d="m5607 3754c-4-4-7-14-7-23 0-11 3-10 15 5 13 16 16 17 26 4 9-13 10-13 6 0-4 16-29 25-40 14z"/><path d="m1998 3643c7-3 16-2 19 1 4 3-2 6-13 5-11 0-14-3-6-6z"/><path d="m3698 3630c19-12 32-28 32-40 0-37 15-20 17 20l3 40h-43-42z"/><path d="m2185 3600c-3-5-1-10 4-10 6 0 11 5 11 10 0 6-2 10-4 10-3 0-8-4-11-10z"/><path d="m2940 3542c0-12 19-26 26-19 2 2-2 10-11 17-9 8-15 8-15 2z"/><path d="m2380 3526c0-2 6-9 14-15 10-9 15-8 20 4 4 10-1 15-14 15-11 0-20-2-20-4z"/><path d="m2443 3508c-13-6-23-15-23-20 0-14 67-39 84-32 22 9 20 41-3 54-24 12-29 12-58-2z"/><path d="m2922 3503c2-9 9-18 16-21 18-6 15 25-4 32-11 4-14 1-12-11z"/><path d="m5027 3513c-4-3-7-11-7-17s5-5 12 2c6 6 9 14 7 17-3 3-9 2-12-2z"/><path d="m2887 3473c-22-29-19-37 6-18 10 7 17 20 15 28-2 11-8 9-21-10z"/><path d="m1545 2930c-3-5-2-10 4-10 5 0 13 5 16 10 3 6 2 10-4 10-5 0-13-4-16-10z"/><path d="m6370 2810c-15-28-9-130 7-130 7 0 13 5 13 11s6 9 13 6c23-9 22 79-2 109-20 25-20 25-31 4z"/><path d="m1180 1931c0-8 6-11 16-7 9 3 45 6 80 6s64 3 64 8c0 4-36 7-80 7-61 0-80-3-80-14z"/><path d="m1181 1884c0-11 3-14 6-6 3 7 2 16-1 19-3 4-6-2-5-13z"/><path d="m1195 1860c-3-5 1-10 9-10 9 0 16 5 16 10 0 6-4 10-9 10-6 0-13-4-16-10z"/><path d="m1238 1833c-14-3-18-15-18-48 0-24 5-47 10-50 6-4 10 11 10 37s4 38 8 30c6-9 12-6 20 13 12 26 9 28-30 18z"/><path d="m6266 1662c-3-6 3-12 15-15s19-1 16 6c-5 15-24 20-31 9z"/><path d="m6216 1622c-3-5-8-42-12-84l-6-75 28 4 29 5 1 79c1 70-1 79-17 79-10 0-20-4-23-8z"/><path d="m1457 1445c-4-8-3-16 1-19s9 4 9 15c2 23-3 25-10 4z"/><path d="m6437 1140c-20-4-41-10-45-14-7-8 54 1 98 15 33 10 0 10-53-1z"/><path d="m6420 1035c0-15 6-25 14-25s14 10 14 25-6 25-14 25-14-10-14-25z"/><path d="m6288 1007c-3-17 0-23 14-23 12 0 17 5 13 14-3 7-5 18-5 23 0 19-18 8-22-14z"/><path d="m4678 623c7-3 16-2 19 1 4 3-2 6-13 5-11 0-14-3-6-6z"/><path d="m3800 420c-9-6-10-10-3-10 6 0 15 5 18 10 8 12 4 12-15 0z"/></g></svg>