<svg height="500pt" preserveAspectRatio="xMidYMid meet" viewBox="0 0 750 500" width="750pt" xmlns="http://www.w3.org/2000/svg"><g transform="matrix(.1 0 0 -.1 0 500)"><path d="m4779 4676c-3-3-21-6-40-8-18-1-37-7-41-13-14-19-8-61 12-83 18-19 20-35 20-195 0-96 3-235 6-309l7-135h54c30 0 49 3 43 7-15 9 33 18 90 16 38-1 45-4 42-20-2-11 13 0 40 30 82 91 135 141 156 146 12 4 22 3 22-2 0-4-11-11-25-14-50-13-162-156-149-190 3-8 0-17-7-22-8-4-10-3-5 4 4 7 3 12-2 12s-15-11-22-24c-13-25-40-43-40-27 0 5 7 14 15 21 24 20 17 30-12 19-16-6-29-10-31-10-1 1-15-5-31-13-15-8-38-12-49-9-14 3-22 1-22-7 0-9-11-11-34-7-19 3-49 2-67-2-60-13-99 9-42 23 17 5 29 3 34-6 6-9 9-9 9-1 0 15 29 24 98 29 90 8 92 8 84 14-6 6-87 0-204-16-46-6-48-5-58 23-5 15-14 35-19 43-6 12-2 15 18 16 97 3 130 31 69 58-30 13-31 14-9 15 24 1 24 1 5 16-16 13-17 16-4 25 8 5 10 10 4 10-15 0-34 113-34 201 0 41-3 138-7 217-6 129-8 142-25 142s-18-11-18-152c0-155-3-171-30-180-11-4-7-9 14-17 19-8 26-16 22-27-3-9-6-21-6-27 0-8-3-7-9 2-5 7-15 11-22 9-11-4-14-30-15-105 0-78 3-100 13-96 7 3 15 14 19 25 3 11 8 17 10 15 13-13-23-56-64-78-54-28-90-63-98-96-5-19-13-23-45-23-42 0-52 17-24 40 8 7 15 19 15 26 0 16 26 19 35 4 7-12 25-4 25 11 0 5-13 9-28 9-31 0-65-30-77-67-8-28-45-32-45-5-1 31-27-14-40-68-10-42-15-49-42-54-72-14-76-11-72 46 2 28 9 55 16 61 10 7 9 8-3 4-9-3-21-2-28 2-18 11 50 81 80 82 22 1 22 1-5 9-30 9-46 6-46-10 0-19-68-83-80-75-9 5-11 4-6-4 7-11-16-42-31-40-4 1-25 1-46 0-35-1-37-2-26-22 7-14 17-19 30-16 10 3 21 2 24-3 3-4-4-10-15-13s-23-1-26 5c-4 6-10 5-15-3-10-16 7-29 39-29 37 0 25-16-15-18-20-2-42-7-48-11-5-5-57-7-115-4-58 2-117 4-132 4-16 0-28 4-28 9s-13 7-30 4c-30-6-30-6-30 39 0 37-3 45-15 41-8-4-15-13-15-21s5-11 10-8c6 4 10-5 10-19 0-23-4-26-36-26-31 0-35 3-29 20 5 14 2 20-9 20-9 0-16 8-16 19 0 16 8 21 43 24 38 3 37 4-13 5-30 1-62-3-70-8-12-8-11-10 7-10 15 0 21-5 17-14-7-19-33-9-45 18-7 17-8 15-6-14 2-30 6-35 27-36 51-1 57-4 37-15-9-5-22-7-27-4-6 4-24 0-40-9-32-15-42-4-12 13 14 9 14 10 2 11-9 0-21-5-28-12-6-6-15-8-19-4-5 4 1 14 12 22 20 15 20 15 0 13-11-1-31-1-45 0l-25 2 25 11c14 6 31 10 38 9 19-3 14 13-8 26-14 9-18 22-16 47 1 19-1 33-5 30-4-2-10 18-14 46-4 27-11 50-15 50-11 0-17-182-8-217 4-16 3-32-4-40-6-7-8-26-5-43 6-27 5-29-16-20-12 5-105 26-207 46-170 33-275 42-322 28-22-7-24 12-2 20 9 3 37 6 62 6 26 0 54 5 62 10 10 6 11 10 3 10-9 0-13 22-13 79v78l-57 16c-132 36-247 50-435 51-103 1-177 5-166 9 12 4 27 6 35 3 7-3 15-2 17 3 3 4 74 6 158 5 136-2 185-7 238-21 8-3 26-4 39-4 14 1 28-4 32-10 4-7 14-9 25-4 17 7 17 8 2 12-11 3-18 16-20 41-2 30-8 38-25 40-35 5-27 20 13 28 19 3 32 10 27 15-17 17-798 65-798 49 0-1-11-3-25-5-89-10-148-17-170-21-28-5-80-13-125-19-16-3-46-7-65-10s-52-5-73-5c-21 1-36-3-34-8 3-4-10-9-29-10-62-4-74-6-74-15 0-4-6-7-12-6-36 4-59-2-52-13 5-9 3-9-9 1-14 11-18 11-23-3-6-16-1-85 10-141 3-16 3-24 0-17-3 6-12 12-21 12-12 0-12-2-1-13 13-12 117-15 155-3 10 3 47 7 83 11 65 5 97 10 128 19 9 3 44 8 76 11 33 3 76 10 98 14 21 5 38 5 38 1 0-12-28-20-46-13-10 4-17-1-21-16-3-11-9-21-14-21s-29-9-53-21c-24-11-55-21-70-23-14-1-34-10-43-18-10-8-37-18-61-22-300-45-475-69-671-92-128-14-248-32-265-40-29-12-26-13 38-7 56 5 68 4 61-7-6-10-4-12 8-7 25 10 240 36 337 42 47 2 128 11 180 20 52 8 142 22 200 30s117 17 132 21l28 5-20-43c-10-24-20-62-21-85-2-23-5-40-8-39-3 2-15 0-26-5-17-6-17-8-2-8 9-1 17-6 17-12 0-5-6-7-12-3-7 4-10 3-5-1 4-5-1-18-10-29-18-21-18-21 5-2 22 19 32 10 11-11-8-8-8-13 0-17 6-4 11-12 11-18s-3-8-7-5c-3 4-17 0-31-9-33-21-43-7-12 17 16 13 18 17 5 11-16-9-22-5-37 26-10 21-15 28-11 17 9-27 14-294 7-372-8-93-20-102-131-105-51-2-93-5-93-8 1-3 7-13 14-23 10-13 15-14 19-4 3 8 29 13 82 15 57 2 75 0 70-9-5-7-3-10 6-7 8 3 14 9 14 14s9 27 19 48c10 22 18 60 18 85v46l14-32c8-18 21-33 30-33s14-6 11-12c-2-7 3-18 12-25 11-9 12-12 3-13-9 0-10-5-2-19 14-27 13-61-2-61-10 0-9-3 1-9 28-18-15-25-229-36-124-7-141-9-178-26-64-28-51-29 229-9 74 6 147 10 162 10h27v-317c0-175 3-398 6-496l7-177-129 4c-90 4-115 2-84-4 25-5 145-9 268-9l222-1v25c0 14 5 25 11 25s9-6 6-13c-9-24 6-34 57-40 27-4 51-9 54-11 15-16-62-19-361-13-352 7-342 8-409-45-34-26-43-29-85-23l-48 6 25-21c39-33 121-24 185 20l50 35h161c135 0 161-2 156-14-3-9-1-12 6-7 7 4 12 1 12-8 0-8 3-21 6-30 10-25-10-19-21 7-9 19-20 23-95 29-47 3-117 8-157 9l-72 3-47-44-47-43-131 8c-72 5-156 9-186 9l-55 1 1-45c3-85 7-95 14-30 6 63 7 62 10-40l4-105 6 70 6 70 2-92c1-63-2-93-9-93-8 0-7-5 1-16 8-8 9-14 4-13s-16 1-24 0c-13-1-13-2 0-11 8-5 11-13 6-17-4-4-14 1-22 11-8 11-14 16-14 10 0-5 6-16 13-26 17-21 164-32 190-13 22 16 22 25 0 25-17 1-17 1 0 14 14 11 17 29 17 97 0 76-2 85-27 111-15 16-38 28-52 29-14 0-35 4-46 9-15 7-10 9 23 9 29 1 54-6 73-20 24-17 29-18 29-5 0 30 20 16 21-14 2-42 3-47 11-56 5-4 8-31 8-61 0-58 9-64 42-33 12 11 28 20 35 20 19 0 17 56-3 64-9 3-29 6-45 6s-29 5-29 10c0 6 17 10 38 10 20 0 53 5 72 10 22 6 36 6 38 1 2-6 11-7 19-4 13 5 15 2 9-13-16-37-18-54-9-54 5 0 7-19 4-43-6-39-8-42-38-45-28-3-33 0-33 17 0 12-5 21-10 21-22 0-32-58-28-171 2-96 1-113-10-102-19 18-24 16-17-7 5-15 2-20-11-20-34 0-200 22-236 31-20 5-96 14-170 19-103 8-145 7-188-3-55-13-54-13 260-50 173-21 323-42 332-48 27-14 38-11 31 8-6 16-5 16 10 5 9-8 21-11 26-8 6 4 38 2 73-3 35-6 167-22 293-36 127-15 231-31 233-36s13-19 24-31c19-22 19-21-1 15-12 21-19 43-15 48 3 6 1 15-4 22s-12 26-16 42c-3 19 7 4 30-38 20-39 40-66 47-64 16 6 47-11 47-25 0-20 33-38 48-25 15 12 32-6 32-35 0-13-8-18-27-17-29 0-78 17-55 18 21 1 13 31-8 31-13 0-20-7-20-18 0-18-5-18-102-5-209 28-921 127-1323 184l-140 20-17-23c-17-22-17-23 10-30 15-5 194-31 397-58 457-63 899-126 1650-236 319-47 717-105 885-130 574-84 2645-390 3145-465 110-16 333-50 495-74l295-44 18 22c18 21 18 22 0 29-10 4-124 23-253 42-129 20-246 38-260 40-14 3-88 14-165 26-77 11-212 32-300 46s-171 27-185 29c-80 12-289 46-310 51-49 11-114 19-188 23-13 0-21 4-19 9 3 4-29 8-71 10s-81 7-88 13c-6 5-51 11-99 14-48 2-93 9-99 14-13 11-74 22-301 55-93 14-267 39-385 56s-246 36-285 41c-38 5-77 12-85 16-8 3-47 6-86 7-60 1-77 5-113 29-24 16-40 24-37 18 10-15 4-15-200 14-98 14-191 25-206 25-36 0-35 9 5 48 28 27 40 32 82 32 78 0 229-21 244-33 12-10 12-9 2 11-7 13-22 27-33 31-16 6-18 10-9 16 8 4 16 3 20-4 4-6 17-9 29-6 16 3 27-4 38-21 22-33 39-30 17 4l-17 27 24-20c13-11 35-30 49-42 17-15 33-20 48-17 17 5 23 2 23-10s10-16 41-16c28 0 46-6 54-17 11-15 13-15 24 5 10 18 9 21-4 16-16-7-21 11-5 21 5 3 7 24 5 46-3 23-1 38 4 35s12-40 16-81 10-75 14-75 15 6 26 13c12 10 14 16 7 21-7 4-12 18-12 32 0 19 5 24 25 24 16 0 25-6 25-15s-9-15-22-15c-20 0-20-1-4-18 21-25 92-28 104-6 8 15 10 15 15 0 4-9 17-16 30-16 14 0 44-7 68-15 30-11 51-13 69-6 19 6 49 4 101-9 67-16 76-16 92-2 15 14 17 13 17-1s12-17 73-17c39 0 191-18 337-39l265-39 18 22c16 20 18 20 28 3 10-18 12-18 30-1 10 9 19 24 20 33 0 10 2 11 6 4 2-7-2-25-9-41-14-27-13-28 11-30 14-1 87-11 161-23 724-113 1656-256 1658-254 1 1-22 54-32 72-1 1-399 57-876 124-118 16-242 33-275 39-33 5-94 14-135 20-41 5-131 19-199 30-69 10-128 17-131 15-6-4-153 23-155 28-1 1 1 39 3 85l4 83 137-6c75-4 141-8 147-10 7-2 18 30 28 83 17 87 35 146 43 139 4-4-31-189-43-228-4-14 4-17 56-16 40 0 60 4 60 13 0 14-42 26-64 18-10-4-16-1-16 8 0 25 24 45 70 57 95 26 85 34 99-75 16-120 44-174 91-174h30l-20 40c-17 33-20 59-20 166 0 109-2 129-17 141-16 13-16 13 4 4 12-6 88-11 177-11 154 0 155 0 175-26 27-34 75-31 79 6 2 18 16 33 50 53 74 42 99 68 116 120 18 53 22 207 6 207-5 0-10 6-10 14 0 7-7 19-16 26-21 18-37 50-25 50 5 0 12-8 14-17 3-13 5-11 6 6 1 24-35 111-46 111-3 0-3-6 0-13 3-8 1-20-4-28-7-11-9-9-9 7 0 12-7 27-15 34-9 8-13 21-9 32 5 16 2 18-20 12-28-7-34 4-13 25 10 11 8 12-10 7-29-9-39 10-12 25 17 9 23 8 30-2 15-23 10 0-6 31-15 28-45 42-45 20 0-5 6-10 13-10 8 0 7-4-3-10-11-7-11-10-2-10 7 0 10-4 7-10-10-16-38-12-32 5 5 11 0 13-26 8-18-3-35-11-39-17s-11-7-15-2-2 11 5 13c6 3 9 10 5 16s0 8 10 4c10-3 17-2 17 3 0 6-5 10-11 10-5 0-7 5-4 10 4 6 16 8 27 4 14-4 18-2 14 5-13 21-59 12-83-16-21-26-22-27-23-7 0 28 17 42 59 46 19 2 36 9 39 15 3 10-24 12-120 8-68-2-199-7-293-10-587-18-581-17-569-49 5-13 53-14 73-2 10 6 12 5 7-2-4-7-3-12 3-12 5 0 11 4 13 10 2 5 45 12 96 16 75 6 96 4 103-7s9-11 9 2c0 15 17 17 126 20 173 5 293-3 305-22 6-10 11-11 17-3 9 14 64 25 79 16 5-4 9-14 7-22-22-120-26-160-20-183 6-26 8-27 81-27 54 0 75 4 75 13 0 8-15 12-47 10l-48-1 45 6c42 7 45 9 48 40 3 24 8 32 24 32 25 0 78-37 78-55 0-8 7-18 15-22 8-5 28-42 46-83 40-96 49-191 25-255-16-42-65-95-88-95-15 0-76 80-78 101 0 4 20 13 45 20 36 11 45 18 45 36 0 13-4 23-9 23s-14 12-19 28c-9 24-11 25-11 5-1-19-26-43-46-43-7 0-2 82 6 110 2 8 10 21 17 28 6 7 12 31 12 52v38l-117-5c-65-3-121-10-124-16-4-5-12-6-19-2-17 10-31-15-19-36 7-14 5-16-9-12-10 2-19 13-19 24-1 11 2 17 8 14 5-4 9-2 9 4 0 18-20 22-75 16-40-5-55-12-55-23 0-8-3-12-7-9-3 4-12 2-20-4-15-13-18-49-3-49 5 0 7 7 4 15-11 28 4 15 26-21 11-20 19-43 16-50-3-8-1-14 4-14 9 0 15 30 11 53 0 4 3 7 9 7 5 0 7 6 4 14-7 18 25 29 43 15 11-10 11-15-3-30-14-16-14-20-2-38 8-12 18-18 23-13 4 4 5-1 2-10-7-21-3-22 26-6 19 10 20 9 10-4-10-11-10-17-1-26 6-6 9-14 6-17s-13 1-22 10c-15 15-16 14-16-9 0-14 6-26 13-26 9 0 8-3-2-9-11-7-11-9 0-14 10-4 10-6 2-6-18-1-16-26 2-41 9-7 13-15 10-18s-12 3-20 14c-14 18-15 18-37-8-33-40-95-63-124-48-12 7-25 21-27 32-4 15-3 17 8 8s14-4 17 27l3 38 63 3c54 3 62 1 63-15 1-13 3-11 9 7 14 45 10 83-12 117-27 39-41 44-25 8 7-14 15-25 20-25 4 0 7-3 7-7 0-5-24-6-52-4-29 2-47 6-40 8 25 9 11 22-23 20s-35-3-35-42c0-27-3-35-9-26-5 8-8 25-6 38 2 19-5 27-30 37-17 8-49 36-71 62-21 27-43 52-49 56-16 12-47-24-42-49 2-13 0-26-4-29-5-3-9-27-9-55 0-37 4-49 15-49 17 0 19-9 7-28-10-16-26 14-40 78l-11 45 2-53 2-53-35 3c-32 3-35 6-41 43-3 22-7 30-8 18 0-13-7-23-15-23-9 0-13 10-12 30 1 17-2 30-7 30s-7 11-5 25c3 14 1 25-3 25-5 0-9 7-9 15s-4 23-9 33c-5 9-17 34-27 54-14 28-21 35-31 26-10-8-13-6-13 6 0 9 10 21 23 26 16 8 11 9-23 4-40-6-43-5-31 10 7 9 18 13 25 9s7-1-1 7c-10 10-15 11-27 1s-14-9-9 8c4 16 1 21-15 21-22 0-35 22-26 44 4 11 0 13-18 9s-20-2-8 6 9 12-13 20c-15 6-27 16-27 23 0 10-16 12-61 10-34-2-65 0-70 5s17 7 55 5c51-3 64-1 69 12 3 8 0 22-9 30-9 10-11 17-3 21 12 8 11 9 27-27 13-32 32-37 32-9 0 26 10 51 21 51 5 0 9-16 9-35v-35h49c28 0 53 5 56 10 4 6-10 10-34 10-32 0-41 4-41 18s2 15 10 2 11-12 25 5c13 18 14 18 9 1-7-17-2-18 79-12 63 4 86 2 84-6-1-7 7-13 18-15 16-3 17-2 5 6-13 9-12 11 1 16 34 13 144 11 172-2 16-8 31-12 35-9 3 3 0 6-7 6s-10 3-8 8c3 4 35 5 71 4 38-2 64-8 60-13-3-6 52-8 143-7l148 3 3 38c3 29 7 37 23 37 19 0 19 1 5 22-19 26-21 88-5 88 7 0-3 10-22 23-46 31-59 61-59 136 0 80 33 145 86 167 30 12 39 12 70-1 30-12 34-12 25-1-35 42-115 20-157-43-28-42-45-50-24-11 14 25 14 25-25 34l-30 8 22-19c15-13 19-24 13-33-8-13-11-13-22-1-10 10-10 12 0 7 20-12 14 8-8 21-10 7-27 10-37 6-17-6-17-5 0 14 9 11 17 30 17 43 0 22 3 23 53 17 30-3 60-1 68 4 9 6-6 9-43 9-57 0-58 0-58 29 0 35 19 44 77 35 40-6 43-8 43-38 0-23 5-32 18-32 9-1 26-4 37-8 17-6 17-5-3 10-13 9-29 32-37 51-13 32-16 33-69 33-30 0-58-5-61-10-4-6-10-8-15-5-4 3-11-17-15-43s-11-55-16-64c-11-20-49-24-49-5 0 8-3 8-9-2-8-12-12-12-25-2-12 10-16 10-16 2 0-7-4-10-8-7-5 3-15-4-23-16-8-11-20-26-26-34-7-7-13-33-13-58 0-41-3-46-22-47-22-1-22-1 2-9 16-5-7-8-65-7-80 0-84 1-35 7 50 6 51 7 15 8-63 3-85 24-85 80 0 30 8 59 21 81 11 18 17 36 13 40-4 3-9 0-11-6-3-7-9-13-14-13-4 0-6 7-3 15s-1 22-10 30c-19 20-22 135-4 153 9 9 9 12-2 13-8 1-4 4 10 8s30 18 37 31c7 14 19 30 28 37 13 9 14 16 5 32-17 33-2 88 32 112 40 29 35 60-12 76-22 8-28 12-15 13 17 0 17 2 5 10-8 5-25 10-37 10s-25 5-29 12c-5 7-2 9 8 5 13-5 17 11 23 108 4 63 4 118 1 124-3 5-7 28-8 51-1 32 3 44 20 56 26 18 31 67 7 58-12-5-15 3-15 35 0 36-3 41-22 41-18 0-20 2-8 10 13 8 13 9 0 14-44 14-45 14-26 15 15 1 17 7 14 35-4 36 0 39 82 87 23 13-1 30-51 36-24 3-50 10-56 15-7 6-19 8-28 5-17-7-83 26-128 65-30 26-26 25 48-11 44-22 108-45 143-51s71-13 80-16-1 5-24 17c-22 11-46 34-52 49-12 26-15 27-54 19-22-6-43-8-45-5-3 2 21 9 51 16 66 13 76 33 14 25-42-5-42-5-10 5 19 6 30 15 26 21-4 8-9 7-14-1s-12-5-24 11c-14 20-18 22-26 9-8-12-10-10-11 10-1 14-1 29 0 33 1 5-3 6-9 2-9-6-14 7-11 30 1 6-4 3-11-5s-22-17-32-18c-17-3-16 1 9 34 16 21 24 34 18 31-18-11-26 12-11 31 27 34 38 62 37 94l-1 33-9-38c-19-82-67-137-120-137-39 0-91 48-91 83 0 15-4 27-9 27-26 0 2 147 31 165 5 3 10 11 10 17s-7 5-17-3c-16-13-17-12-4 3 7 10 17 16 21 13s22 2 39 11c40 20 76 7 109-39 12-17 22-27 22-22 0 6-14 27-31 48-28 35-34 37-80 36-36-2-56-8-74-25-13-12-30-24-37-27-8-4-7-6 5-6 21-1 21-8 1-41l-15-25 6 30c5 29 5 29-11 10-16-20-16-19-11 5l6 25-20-25c-20-23-20-25-2-31 18-8 17-8-27-13-8-1-25 2-37 6-18 6-21 4-16-9 5-12 3-14-8-8-8 5-26 8-41 6-23-2-28 2-28 18 0 12-6 21-14 21-19 0-29-31-14-43 9-6 8-7-4-3-10 3-18 1-18-4 0-6-4-10-9-10s-12 96-16 213-12 218-17 225c-7 8-7 12 1 12 12 0 15 66 3 74-11 7-396 19-403 12zm136-46c-16-4-52-7-80-7h-50l50 7c28 4 64 7 80 7l30 1zm78 3c-7-2-21-2-30 0-10 3-4 5 12 5 17 0 24-2 18-5zm-356-305c-3-8-6-5-6 6-1 11 2 17 5 13 3-3 4-12 1-19zm0-70c-2-13-4-5-4 17-1 22 1 32 4 23 2-10 2-28 0-40zm0-80c-2-13-4-5-4 17-1 22 1 32 4 23 2-10 2-28 0-40zm581-138c4 0 7-24 7-53v-52l-53 3c-30 2-71-3-99-12-53-18-66-15-31 8 13 8 48 16 77 17 37 2 48 5 37 11-9 5-16 22-16 38 0 27 3 30 30 30 26 0 30 4 31 28 2 23 2 24 6 5 2-13 7-23 11-23zm-3029 14c10-9-45-3-59 6-11 7-5 8 20 4 19-4 37-8 39-10zm-332-14c4-12 3-13-5-1-6 8-19 12-31 8-12-3-19-1-15 5 9 14 47 5 51-12zm250 14c-3-3-12-4-19-1-8 3-5 6 6 6 11 1 17-2 13-5zm-92-14c-28-7-29-8-5-10 14-1 19-4 12-7-18-7-44 5-37 17 3 5 18 9 33 9l27-1zm-90-20c-27-12-35-12-35 0 0 6 12 10 28 9 24 0 25-1 7-9zm525-10c3-1 13-1 23 0s24-4 32-10c8-7 16-7 19-1 3 5 18 8 33 6 16-2 55-6 88-10 33-3 71-9 85-12 22-6 20-7-15-12-30-5-41-11-43-26-2-11-8-30-14-42l-11-23-14 26c-7 15-13 32-13 40s-9 13-22 11c-12-1-23 4-24 11-1 6-2 17-3 24-1 9-4 9-13 0-7-7-21-12-32-12-23 0-56-27-56-47 0-7-4-13-10-13-5 0-10-6-10-14s-13-17-30-21c-40-9-132-4-147 8-7 5-13 6-13 2s-7-2-15 5c-12 10-15 10-15-2s-16-12-112-2c-111 11-148 20-148 33 0 10 20 37 20 27 0-5 7-3 15 4 9 7 32 15 53 17 20 2 38 7 40 11 3 10 92 2 92-9 0-5 5-9 10-9 6 0 10 7 10 15s3 14 8 13c4 0 14 1 22 5 35 13 49 14 125 12 44-2 82-4 85-5zm2843-74c-4-17-16-38-27-47-27-22-35-15-12 10 15 16 15 19 1 31-9 7-15 29-15 53v41l29-28c25-24 29-34 24-60zm-373 70c0-3-4-8-10-11-5-3-10-1-10 4 0 6 5 11 10 11 6 0 10-2 10-4zm-356-27c21-10 64-75 54-83-1-2-31-6-65-9-47-5-65-3-77 8-19 19-10 51 22 75 29 23 33 24 66 9zm-1762-13c6 4 9 1 6-6-8-24-28-23-27 2 0 13 3 17 6 10 2-6 9-9 15-6zm-282-16c0-5-7-10-16-10-8 0-12 5-9 10 3 6 10 10 16 10 5 0 9-4 9-10zm340-10c7-14 7-20 0-20-5 0-10-7-10-16 0-13-3-14-14-5-8 7-13 20-11 29s4 20 4 25c2 14 20 7 31-13zm2750-10c0-5-5-10-11-10-5 0-7 5-4 10 3 6 8 10 11 10 2 0 4-4 4-10zm-3431-51c101-10 186-21 189-24s-6-5-20-5c-40 0-341 30-360 36-9 2-19 0-23-6-3-5-13-10-22-10-14 0-14 3 2 20 11 13 25 18 34 14 9-3 99-15 200-25zm2956 6c-33-14-61-29-63-35-2-5-10-10-18-10-22 0-110-86-159-155-63-89-110-205-140-349-10-49-13-24-4 38 4 33 5 72 2 88-3 17 1 37 12 54 9 14 14 32 11 40s-2 13 3 10c4-3 14 7 22 22 7 15 22 39 32 55 10 15 14 27 9 27-15 0-49-45-44-59 3-8 0-11-6-8-10 7-23-20-44-93-7-25-18-51-26-59-7-7-11-20-8-28s-1-27-9-43-15-38-15-49-4-22-8-25c-10-6 3 97 19 158 18 69 85 199 122 239 35 37 64 50 53 22-10-26 8-17 49 25 21 22 34 40 27 40s-12 4-12 9c0 6 9 8 20 6s22 0 25 6c4 5 1 9-6 9-8 0-9 3 0 13 6 8 8 17 4 20-9 10 62 37 96 37 16 0 33 5 36 10 3 6 23 10 43 10 37 0 36-1-23-25zm492 19c-3-3-12-4-19-1-8 3-5 6 6 6 11 1 17-2 13-5zm-2772-34c3-5 1-10-4-10-6 0-11 5-11 10 0 6 2 10 4 10 3 0 8-4 11-10zm-990-21 40-1-45-8c-99-17-145-67-174-191-17-72-61-176-53-124 5 26 3 27-8 12-21-29-24-19-18 61 3 42 6 88 7 101 2 36 71 98 133 118 29 9 50 20 47 25-3 4 3 5 13 1 16-6 17-5 3 13-11 15-11 16 0 7 8-7 32-14 55-14zm582 6c0-16-24-20-54-8-14 6-11 9 17 14 19 4 35 7 36 8 0 0 1-6 1-14zm2483 8c-1-15-38-53-52-53-8 0-19-5-26-12-9-9-12-9-12 3 0 24 50 65 83 68 4 1 7-2 7-6zm415-13c-3-5-12-10-18-10-7 0-6 4 3 10 19 12 23 12 15 0zm-3630-26c-7-8-20-14-27-14-8 0-27-16-42-35-16-19-33-32-39-28-5 3-7 1-3-5 3-5 2-12-3-14-5-1-10-23-12-48-1-25-8-55-16-67-15-25-17-37-5-29 5 3 9-13 10-34 2-34 0-39-15-33-10 4-12 8-5 11 7 2 12 8 12 13 0 6-4 7-10 4-6-4-10 8-10 29 0 22 5 36 13 37 10 0 10 2 0 6-19 7-16 83 4 105 16 18 16 18-1 12-16-6-16-3 3 35 20 38 40 58 28 28-7-18 28-15 50 5 10 9 28 19 41 23 12 3 20 11 17 16s1 6 9 3c13-5 13-8 1-20zm235 16c0-5-4-10-10-10-5 0-10 5-10 10 0 6 5 10 10 10 6 0 10-4 10-10zm3178 3c-10-2-26-2-35 0-10 3-2 5 17 5s27-2 18-5zm280 0c-10-2-26-2-35 0-10 3-2 5 17 5s27-2 18-5zm-654-24c-3-5-9-7-14-4-4 3-13-2-20-10-10-12-16-13-27-3-12 10-9 13 19 23 35 12 52 10 42-6zm-2244-3c0-2-7-7-16-10-8-3-12-2-9 4 6 10 25 14 25 6zm57-2c-3-3-12-4-19-1-8 3-5 6 6 6 11 1 17-2 13-5zm-927-8c0-3-4-8-10-11-5-3-10-1-10 4 0 6 5 11 10 11 6 0 10-2 10-4zm1100-4c0-7-128-23-410-51-36-3-65-10-65-16 0-5-4-16-9-24-6-10-5-12 2-7 8 5 12-3 12-23 0-16-6-32-12-35-10-5-10-7 0-12 6-3 10-10 6-15-3-5-1-9 5-9 13 0 8-103-6-107-12-4-17 24-28 146-5 67-28 116-48 108-7-2-21-1-32 3-16 6-13 9 18 15 23 5 48 3 63-4 25-11 144-3 329 24 108 15 175 18 175 7zm630 4c0-3-4-8-10-11-5-3-10-1-10 4 0 6 5 11 10 11 6 0 10-2 10-4zm730-6c0-5-2-10-4-10-3 0-8 5-11 10-3 6-1 10 4 10 6 0 11-4 11-10zm1018-10c-14-22-24-19-15 5 4 8 11 15 17 15s6-7-2-20zm588 5c-16-17-46-20-46-6 0 8 13 13 53 20 5 0 2-6-7-14zm-3660-23c-4-3-14 2-24 12-16 18-16 18 6 6 13-6 21-14 18-18zm2620 13c-11-8-25-15-30-15-6 1 0 7 14 15 32 19 40 18 16 0zm554 4c0-5-12-7-26-5-38 7-39 13-4 14 16 0 30-4 30-9zm-342-14c2-2-19-24-46-49-90-84-156-250-169-418-3-43-10-78-15-78s-7 4-4 9c4 5 0 12-6 14-10 4-10 8 1 15 19 13 4 52-20 52-23 0-24-4-3-24 8-9 11-16 5-16-5 0-12 4-15 8-6 10-57 9-73-1-7-4-18 2-26 14-8 11-21 20-28 19-8-2-24-2-37-1-21 1-22 2-8 29 9 17 11 34 6 42s-6 19-3 25c4 5 2 6-2 2-9-7-15-28-17-54-1-7-5-13-11-13-5 0-17-10-26-22-14-16-19-18-23-7-3 8 14 40 38 73l43 58 10-33c5-19 10-28 10-20 2 22 50 81 67 81 8 0 12 5 9 10-3 6 1 11 9 11 9 1 20 2 25 3 5 0 24 12 43 26 18 14 36 24 40 22 5-1 7 1 7 6-6 35 23 78 44 65 7-3 9-3 5 2-4 4-3 14 3 21 13 16-14 49-31 39-5-3-10 0-10 9 0 8 6 16 13 19 6 3 2 4-10 4-12-1-19-6-15-12 3-5-1-5-9 2-12 10-20 9-37-3-19-13-22-13-22 0 0 30 60 60 122 60 32 0 58 4 58 8 0 15 93 18 108 3zm-2041-18c6 2 14-1 18-6 3-6 1-11-5-11s-10-6-8-12c1-7-3-22-9-34-9-16-20-20-47-18-20 2-36-1-36-5 0-5-29-8-65-8-35 0-62 4-59 9s11 8 17 7c7-1 32-1 57 0l46 1-4 35c-4 29-1 35 15 35 11 0 28-7 39-15 18-14 18-14-4-15-16 0-21 4-16 13 5 8 2 7-9-2-22-18-7-38 28-38 20 0 25 5 25 24 0 27-23 56-35 45-5-4-5-1-1 6 7 11 11 11 24-1 10-8 22-12 29-10zm528 13c-3-5-13-10-21-10s-12 5-9 10c3 6 13 10 21 10s12-4 9-10zm-1248-6c-3-3-12-4-19-1-8 3-5 6 6 6 11 1 17-2 13-5zm613-11c0-15-2-15-24-7-23 9-20 23 4 21 11-1 20-7 20-14zm422-13c106-19 170-39 181-58 4-5 30-7 58-4 44 4 51 2 46-11-3-8 1-23 9-34 9-10 13-13 10-7-3 7 1 14 9 18 8 3 15 2 15-2 0-15-40-67-57-74-15-6-15-7 4-7 15-1 28 9 38 29 18 35 31 39 31 10 0-11-6-20-13-20s-13-5-13-11c0-18 97-1 141 24 22 12 39 25 39 30 0 11-10 8-26-8-9-8-22-15-30-15-12 0-10 7 7 33 13 17 28 35 34 39 7 5 6 8-1 8s-14 12-17 26l-5 26 62-7c96-10 98-12 70-40-13-13-24-29-24-34 0-6-8-8-17-4-15 5-15 3 2-11 16-14 17-17 3-12-11 3-15 1-12-8 3-7-2-19-11-26-8-7-15-16-15-20s-16-25-36-46c-20-22-62-92-93-156-42-87-60-113-67-102-6 10-13 11-24 4-13-8-12-10 3-10 9 0 17-3 17-8 0-4-22-8-50-8-27 0-50 3-50 8s4 7 9 3c5-3 12-1 16 5 3 5-3 10-14 10-15 0-22-9-27-35-3-19-4-41-1-49 5-12-3-14-39-12-24 2-44 0-44-5s21-9 46-9 43-4 39-9c-3-5-22-8-43-5-31 3-33 2-12-5 24-9 24-9-7-10-22-1-33 4-33 13 0 16-26 46-40 46-5 0-16-7-25-16s-24-14-36-11c-14 4-23-1-29-16-8-21-8-21-19 6-7 18-17 27-28 25-14-2-18 4-18 24 0 14-4 30-9 35-5 4-6 3-3-3 9-15-67-94-91-94-10 0-23 5-30 12-9 9-12 8-12-5 0-9-7-17-16-17-8 0-12-5-8-11 4-8 0-7-15 0-13 8-64 11-134 10-61-1-116-1-122 0-5 2-12 3-15 2s-39-3-81-5c-76-3-77-2-58 18 11 11 26 21 35 22 22 3 23 6 13 29-6 17-8 17-8 3-1-10-8-18-17-18-37 0 12 170 79 272 29 44 36 49 89 59 32 6 58 16 58 20 0 5-6 9-14 9s-17 7-20 16c-5 13-2 15 16 10 13-3 28-6 35-6 6 0 14-12 16-27 4-27 4-26 6 4 0 17 6 35 12 38 6 4 8 13 5 21s0 14 7 14c8 0 7 4-3 11-12 8-9 9 10 4 14-3 31-7 38-7 17-2 15-28-2-28-8 0-16 3-19 8-2 4-1 0 1-8 3-8 6-36 6-62 1-27 4-48 9-48 4 0 7 22 7 49 0 28 5 53 10 56 6 4 10 16 8 28-2 15 3 23 16 25 13 3 17 0 13-11-5-12-1-13 23-4 33 13 35 11 44-23 3-14 3-19 0-12-8 18-21 15-27-7-3-14 1-18 17-16 11 1 28 3 36 4 12 1 13 3 1 10-17 11-5 55 14 48 16-7 35 34 35 73 0 23 4 28 19 25 25-5 17 22-7 28-46 12 23 5 120-13zm898-5c0-27-22-33-50-15-13 8-13 10 1 10 9 0 19 7 23 15 9 24 26 17 26-10zm92 5c-12-11-27-20-34-20s-2 9 12 20c33 26 50 26 22 0zm445-4c-12-14-24-21-27-18-3 4-14 9-25 10-32 6-32 14 0 9 17-2 36 2 43 10 24 23 31 14 9-11zm-1627-1c0-17-2-18-24-9-23 9-20 24 4 24 11 0 20-7 20-15zm2803-6c-8-8-16-8-30 0-16 9-14 10 12 11 21 0 26-3 18-11zm-2766-51c-2-13-4-5-4 17-1 22 1 32 4 23 2-10 2-28 0-40zm373 48c0-3-4-8-10-11-5-3-10-1-10 4 0 6 5 11 10 11 6 0 10-2 10-4zm-653-12c-3-3-12-4-19-1-8 3-5 6 6 6 11 1 17-2 13-5zm1250 0c-3-3-12-4-19-1-8 3-5 6 6 6 11 1 17-2 13-5zm-1780-10c-3-3-12-4-19-1-8 3-5 6 6 6 11 1 17-2 13-5zm1730 0c-3-3-12-4-19-1-8 3-5 6 6 6 11 1 17-2 13-5zm184-25c-9-22-10-22-10-3-1 11 2 24 6 27 12 12 14 0 4-24zm1126-1c-3-7-5-2-5 12s2 19 5 13c2-7 2-19 0-25zm-2642 2c-33-9-85-26-116-37-42-14-56-16-52-6 3 7 13 13 22 13s50 11 91 24c41 14 84 24 95 24s-7-8-40-18zm1254 17c-2-2-25-15-51-30-43-23-48-24-48-8 0 21 33 39 74 40 16 1 27 0 25-2zm-979-22c0-8-4-15-10-15-5 0-7 7-4 15 4 8 8 15 10 15s4-7 4-15zm1187-1c3-8-5-30-17-47-20-27-20-29-3-14 26 23 33 22 34-5 0-13 7-39 15-58 15-37 15-38-3 51-11 54 12 29 40-43 15-40 27-76 27-80 0-17-29-7-35 13-4 11-9 18-11 16-3-2 3-24 12-48 10-23 20-37 22-31 2 7 10 12 19 12 12 0 14-13 13-62-3-97 2-133 10-68 6 46 7 40 7-40-1-52-3-86-5-75s-13 32-23 46c-11 15-16 34-12 47 3 13 1 22-6 22-6 0-11-6-11-14 0-11-28-15-121-21-66-4-123-5-126-1-4 3 3 6 14 6s20 6 20 13c0 6 3 37 6 67l7 55-18-57c-21-69-27-77-30-35-1 18 6 46 17 63 17 29 23 31 82 33 92 4 140 14 131 27-5 8-22 9-57 3-27-4-71-5-97-2-42 5-50 2-69-19-27-30-28-37-36-213-5-110-8-130-14-95-4 25-8 74-8 109-1 35-4 61-8 57-5-4-9-12-9-17-1-5-2-13-3-19 0-5-9-10-18-10-10 0-14-4-8-8 26-19 14-72-15-65-11 3-17 9-14 14s-2 9-10 9c-9 0-16-5-16-10 0-12-53-1-58 12-6 13-32 9-32-4-1-7-8 0-16 15s-19 25-24 22c-6-4-10-4-10 0 0 3 10 10 23 15 17 7 18 9 5 9-10 1-18 8-18 16s-5 15-10 15c-6 0-9-5-8-11 2-7-11-14-29-16l-31-4 13 44c31 102 120 243 188 297 11 8 28 23 39 33 18 17 78 47 93 47 4 0 3-5-1-11-4-8 0-7 15 1 25 13 88 25 144 28 26 1 39-3 44-14zm161-35c-3-8-7-3-11 10-4 17-3 21 5 13 5-5 8-16 6-23zm42-12c0-5 7-4 15 3s15 9 15 6c0-15-21-46-31-46-6 0-7 4-4 10 3 5-1 20-9 32-9 12-16 27-16 33 1 12 30-25 30-38zm814 1c-22-24-50-60-63-80-26-43-32-47-28-17 2 12 30 48 61 80 67 68 87 80 30 17zm76 38c0-3-4-8-10-11-5-3-10-1-10 4 0 6 5 11 10 11 6 0 10-2 10-4zm646-18c5-7-2-9-19-4-14 3-29 2-32-4-3-5-1-10 4-10 6 0 11-8 11-17 0-15-1-15-13 2-8 10-18 15-23 12-6-3-16-2-24 4-11 6-12 9-2 9 7 0 11 3 9 8-3 4 15 8 39 9s47-3 50-9zm-3056-30c0-6-10-3-22 8l-22 19 17-25c22-32 21-40-4-40-15 0-19 5-15 15 4 11 1 13-12 6-9-5-25-12-35-15s-25-19-35-36c-11-20-25-30-40-30-39 0-91-30-153-88-32-29-63-51-69-47-5 3-7 0-4-8s-2-20-11-27c-12-10-15-10-15 3 0 28 117 171 169 206 35 23 48 38 44 50-4 13-3 13 5 2s18-11 61 4c29 9 59 14 67 11s12-2 9 3c-8 13 26 19 48 9 9-5 17-14 17-20zm105 23c3-5 1-12-5-16-5-3-10 1-10 9 0 18 6 21 15 7zm1325-13c0-19-2-20-11-8-7 11-9 5-6-23 6-44 15-57 26-38 6 9 10 5 15-14 4-16 2-33-5-41-15-18-29-18-29 0 0 8-11 38-25 68-32 69-32 78 5 78 24 0 30-4 30-22zm1076 2c9 0 12-5 9-10-4-7-13-7-26 0-11 6-16 16-12 23 5 8 8 8 11-1 2-7 10-12 18-12zm88 9c-4-8 3-9 26-4 21 5 30 4 26-3-4-6 2-8 14-5 28 7 104-40 130-82s21-65-25-102l-34-28 124 3c77 1 126-1 130-8 4-6-9-10-32-10-45 0-93-19-93-37 0-9-17-13-50-13-51 0-56 5-51 49 2 7-2 10-8 6-6-3-11-16-11-28 0-18-2-19-10-7-6 9-10 10-10 3 0-29 15-44 53-50 36-5 38-7 18-14-12-5-19-13-16-19 3-5-10-19-29-31-20-12-34-25-31-29s-4-6-15-3-20 8-20 12-16 7-35 7c-42 0-44-3-10-16 14-5 25-14 25-19s-17 0-37 10-46 16-57 14c-12-3-43-7-70-10s-57-12-67-21c-16-14-18-14-24 5-8 25-18 26-39 5-9-9-16-11-16-4 0 6-3 9-7 7-5-3-14 1-20 8-10 11-10 17 2 28 11 12 12 16 2 20-8 3-12 18-11 37 2 27-1 31-18 27-17-5-19-2-13 20 12 51 49 115 93 164 53 59 87 79 125 72 24-5 27-2 27 21 0 19 5 26 20 26 11 0 20-4 20-10 0-5 4-10 10-10 5 0 7 7 4 15-4 8-1 15 6 15 6 0 8-5 4-11zm332-1c4-7 4-10-1-6-4 4-14 3-22-3-13-11-19 2-6 14 10 11 21 8 29-5zm-2076-18c-8-5-18-6-24-3-5 4-1 10 10 13 24 9 34 2 14-10zm940-20c-12-16-24-30-26-30-3 0 4 14 16 30 12 17 24 30 26 30 3 0-4-13-16-30zm-1762-8c2-7-3-12-10-12-8 0-15 7-15 15 0 18 19 15 25-3zm2842-8c0-14 5-35 11-47 7-14 0-10-20 12-32 34-35 61-6 61 9 0 15-9 15-26zm-2033 10c-3-3-12-4-19-1-8 3-5 6 6 6 11 1 17-2 13-5zm-1157-14c-8-5-33-9-55-9-35 1-37 2-15 9 14 4 39 8 55 9 23 0 26-2 15-9zm67-6c-3-3-12-4-19-1-8 3-5 6 6 6 11 1 17-2 13-5zm192-26c10-16 8-18-24-18-36 0-43 8-25 26 16 16 36 13 49-8zm2999-12c-8-20-7-28 6-41 20-21 20-31 1-39-10-3-15-1-14 7 1 6-1 20-6 30-7 17 8 67 20 67 2 0 0-11-7-24zm-4173-41c0-30-4-55-8-55-5 0-5-5-1-11 4-7 8-43 9-82 2-45 8-73 17-78 10-7 9-9-4-9-10 0-18 6-18 13s-8 17-18 24c-15 9-19 24-19 70 0 44 1 48 4 16 2-24 8-43 13-43 10 0 0 83-12 91-5 3-2 19 7 35 8 16 15 38 15 50 0 16 7 34 14 34 1 0 1-25 1-55zm925 38c-14-9-29-23-33-30-7-11-12-9-27 9-25 31-17 38 38 38h46zm1886-17c27-2 52-5 57-5 4-1 7-4 7-8 0-5-29-9-65-9-36-1-65 2-65 7 0 4-3 16-7 26-6 15-4 16 8 6 8-7 37-14 65-17zm-2849-8c-3-8-6-5-6 6-1 11 2 17 5 13 3-3 4-12 1-19zm871 10c17-17 15-35-6-40-14-4-18 1-20 23-2 31 6 37 26 17zm2142 9c0-2-11-18-25-37s-25-31-25-27c0 5 10 21 22 37 20 27 28 35 28 27zm-1880-22c0-3-15-25-34-49-45-59-83-141-104-224-17-66-17-67-53-70-32-3-37 0-43 24-7 28-21 23-29-11-3-11-6 8-8 43-1 34-3 70-3 80-1 9 5 16 12 14 8-1 11 2 8 7-6 9 47 81 70 94 18 10 17-3-1-27-8-11-15-25-15-30 0-6 9 4 20 22s19 38 17 44c-3 17 94 80 115 75 10-3 21-1 24 4 5 9 24 13 24 4zm-964-18c4-4-2-7-14-7-11 0-24 5-27 10-7 11 30 8 41-3zm2574-2c0-8-7-15-16-15-14 0-14 3-4 15 7 8 14 15 16 15s4-7 4-15zm1567 9c-3-3-12-4-19-1-8 3-5 6 6 6 11 1 17-2 13-5zm-3487-24c0-5-6-10-12-11-10 0-10-2 0-6 14-6 16-33 2-33-5 0-10 3-10 8 0 4-3 17-6 30-5 16-2 22 10 22 9 0 16-4 16-10zm2105-29c-3-5 0-11 6-13 13-4-79-129-100-136-8-3-11 0-7 6 3 5 0 10-7 9-33-1-46 4-41 16 2 7-4 13-16 14s-20-5-21-15c-1-17-12 24-23 89-5 31-3 37 13 42 15 4 21-1 26-23s10-27 26-23c12 4 18 11 15 20-4 11-1 13 14 8 11-4 20-2 20 3 0 6 19 16 43 24 34 11 44 11 50 1 4-7 6-17 2-22zm-2868 7c-3-8-6-5-6 6-1 11 2 17 5 13 3-3 4-12 1-19zm438-106c-3-13-18-35-33-49-17-17-21-24-9-20 25 9 21 2-9-18-15-9-23-12-19-5 5 9 1 10-16 5-13-4-25-11-27-15s-12-5-24-2c-14 3-19 1-14-6 11-18-2-14-24 6-18 16-17 17 25 17 81 1 144 71 147 164l2 56 3-54c2-30 1-66-2-79zm172 106c-3-8-6-5-6 6-1 11 2 17 5 13 3-3 4-12 1-19zm-560-18c-1-11-5-20-9-20s-8 9-8 20 4 20 9 20c6 0 9-9 8-20zm2903 16c0-3-4-8-10-11-5-3-10-1-10 4 0 6 5 11 10 11 6 0 10-2 10-4zm280-18c0-4-4-8-9-8-6 0-12 4-15 8-3 5 1 9 9 9s15-4 15-9zm-3233-20c-3-8-6-5-6 6-1 11 2 17 5 13 3-3 4-12 1-19zm575-10c-7-7-12-38-12-71 0-35-4-56-10-52-13 8-3 117 13 127 18 12 23 10 9-4zm100-17c-9-16-18-28-21-26-4 5 27 55 34 55 2 0-4-13-13-29zm-616 4c-3-8-1-15 4-15 6 0 10-5 10-11 0-5-5-7-11-3-8 5-8 1 0-13 6-11 8-23 4-26-3-4 0-13 7-22 10-12 9-15-6-15-17 0-17 0 0-13 18-13 18-15 0-70-11-31-21-57-24-57s-4 18-2 40 8 38 12 35c12-7 19 20 10 35-6 10-9 8-14-6-3-10-4-2-3 19 2 20 0 37-3 37-10 0-6 74 5 87 14 17 18 16 11-2zm-59-52c-3-10-5-2-5 17s2 27 5 18c2-10 2-26 0-35zm773 17c0-10-6-22-12-26-7-4-10-4-6 1 4 4 3 15-2 25s-7 20-3 23c10 10 23-3 23-23zm-666-24c-4-11-2-16 4-12 8 5 42-33 42-47 0-1-16-3-35-4-19 0-35 3-35 8s3 9 8 9c4 0 7 16 8 35 0 18-3 32-8 29-10-6-11 10-1 19 11 11 23-16 17-37zm76-37c8-9 24-19 34-23 10-3 16-9 12-13-16-16-96 61-96 92 0 5 8-2 17-15 10-14 24-32 33-41zm488 21c12 0 13-3 5-11-16-16-33-2-32 24 1 17 2 18 6 5 2-10 12-18 21-18zm52 26c0-2-8-10-17-17-16-13-17-12-4 4s21 21 21 13zm2104-32c-3-11-14-26-25-32-18-11-17-9 3 22 25 38 30 40 22 10zm-2099-16c-3-18-8-40-9-47-3-19-22-25-31-12-4 7 1 9 12 5 16-5 16-4-1 7-16 9-21 9-30-3-7-10-18-12-31-7s-15 8-5 8c12 1 13 3 1 10-18 12-6 30 17 25 9-3 31 7 47 20 17 14 32 25 34 26 2 0 0-15-4-32zm-230-8c-4-12-9-19-12-17-3 3-2 15 2 27s9 19 12 17c3-3 2-15-2-27zm271-28c-12-12-18 8-10 35l8 28 4-28c2-16 1-31-2-35zm1997 13c-3-9-8-14-10-11-3 3-2 9 2 15 9 16 15 13 8-4zm564 1c4-3-19-6-51-6-31 0-55 4-52 8 5 9 94 7 103-2zm-233-11c-4-8-8-15-10-15s-4 7-4 15 4 15 10 15c5 0 7-7 4-15zm-2959-16c-6 11-4 13 8 8 9-3 17-1 19 4s12 3 23-6c20-16 20-16-2-10-30 8-38-10-14-34 14-14 16-21 8-25-7-3-2-3 11 0 12 3 22 1 22-5s9-11 20-11 20-4 20-10c0-5 5-10 11-10 13 0 39-25 39-39 0-5 21-12 48-14 26-2-27-4-118-5s-169 2-175 6c-5 4-11 16-13 27-3 18-1 18 16-3 14-18 24-22 45-17 25 7 25 8 10 24-9 9-20 16-24 16s-11 3-15 8c-4 4-2 7 4 7 7 0 12 5 12 11 0 5-4 7-10 4-11-7-13 6-4 30 6 13 9 14 16 3 7-9 8-8 4 6-4 10-4 28 0 38 6 19 6 19 27 1 11-10 17-12 12-4zm3295-24c0-21-5-35-12-36-10 0-10-2 0-6 17-7 15-23-4-23-12 0-14 7-9 33 7 31 7 32-12 14-19-16-21-16-34-1-13 16-12 17 9 12 17-5 23-2 21 10-2 28 0 32 21 32 16 0 20-7 20-35zm-2855 7c-3-3-11 0-18 7-9 10-8 11 6 5 10-3 15-9 12-12zm195-12c8-15 8-20-3-20-7 0-13 9-13 20s1 20 3 20c1 0 7-9 13-20zm1281-7c13-16 12-17-3-4-10 7-25 11-33 7-8-3-15-1-15 4 0 17 37 11 51-7zm1086-80c-2-21-4-6-4 32 0 39 2 55 4 38 2-18 2-50 0-70zm179 85c5-7 3-8-6-3-8 5-18 1-27-10-11-16-13-16-13-3 0 15 12 25 32 27 4 1 10-4 14-11zm-2771-18c-26-11-45-12-45-2 0 4 15 8 33 9 26 1 28 0 12-7zm116-2c0-10 2-10 6 0 2 6 14 12 25 12s18-5 16-12c-7-20-35-21-60-4-18 13-19 16-5 16 9 0 17-6 18-12zm91-85c7-9 7-13 0-13-15 0-22 26-20 73l1 42 4-45c3-24 9-50 15-57zm-482 67c6-11 8-20 6-20-3 0-10 9-16 20s-8 20-6 20c3 0 10-9 16-20zm76-4c16 5 16 4 4-5-13-10-13-12 0-21 13-8 12-11-5-24-18-13-22-12-37 4-10 11-18 25-18 31 0 7 9 2 20-11 12-13 20-18 20-10 0 7-8 23-17 34-14 16-15 18-2 8 9-7 25-10 35-6zm84 10c0-3-4-8-10-11-5-3-10-1-10 4 0 6 5 11 10 11 6 0 10-2 10-4zm220-36c0-34-19-50-32-26-5 9-13 14-19 11-5-4-9-1-9 4 0 6 8 11 17 11s13 3 10 7c-9 9 13 34 24 27 5-3 9-18 9-34zm181-10c16 0 29 4 29 8s14 9 30 10c20 2 30-2 30-12 0-9-9-12-30-10-16 2-32-1-35-7-4-5-16-7-27-3-12 4-24 1-28-7-13-21-40 8-40 44v30l21-27c14-17 30-26 50-26zm869-2-20-22v22c0 14 6 22 18 23 10 0 12 3 4 6-6 2-9 9-6 15 4 7 10 4 16-6 6-11 3-22-12-38zm211 43c-8-5-20-7-28-4-21 8-15 13 15 13 20 0 23-3 13-9zm-341-36c-9-10-7-16 6-23 11-6 13-11 5-16-6-4-14 0-17 9-5 11-17 16-38 15-55-3-58-2-44 20 7 11 20 20 28 20 13 0 13-1 0-10-11-7-7-10 18-10 22 0 35 6 39 17s8 13 11 5c2-7-1-19-8-27zm364 20c-7-16-24-21-24-6 0 8 7 13 27 20 1 1 0-6-3-14zm-1432-125-3-130 68-2c37 0 79-2 93-4 14-1 122-10 240-18 118-9 241-19 273-22 63-7 65-5 42 50-8 20-11 36-7 36 9 0 33-44 38-68 1-8 5-17 9-20 8-8 166-20 288-21 48-1 87-4 87-8 0-5-3-18-6-31-6-22-9-22-103-17-298 18-438 27-636 45-341 30-407 38-418 49-7 7-3 8 11 4 11-2 29 0 39 6 14 8 15 11 3 11-95 7-124 11-129 16-3 3 17 4 44 3l50-3 3 127c1 70 6 127 10 127s6-58 4-130zm57 93c0-34-1-36-11-16-6 12-8 29-5 37 11 27 17 18 16-21zm126 27c3-5 1-10-4-10-6 0-11 5-11 10 0 6 2 10 4 10 3 0 8-4 11-10zm2874-5c10-11-6-13-51-8-28 3-45 10-42 15 6 9 82 3 93-7zm-1899-5c0-5-2-10-4-10-3 0-8 5-11 10-3 6-1 10 4 10 6 0 11-4 11-10zm-1194-37c-10-10-19 5-10 18 6 11 8 11 12 0 2-7 1-15-2-18zm2472-8c-3-3-9 2-12 12-6 14-5 15 5 6 7-7 10-15 7-18zm-1151-35c2-8 5-31 7-51s7-43 10-50c4-8-2-3-13 10-12 13-21 36-20 55 0 17-2 45-6 61-6 27-5 28 7 10 7-11 14-27 15-35zm-186 17c-10-9-11-8-5 6 3 10 9 15 12 12s0-11-7-18zm-1001 3c0-5-5-10-11-10-5 0-7 5-4 10 3 6 8 10 11 10 2 0 4-4 4-10zm113 3c-7-2-21-2-30 0-10 3-4 5 12 5 17 0 24-2 18-5zm1977-23c6-11 8-20 6-20-3 0-10 9-16 20s-8 20-6 20c3 0 10-9 16-20zm458-21c-3-20-5-19-9 9-3 20-2 29 4 23 5-5 7-19 5-32zm-1448 21c8-5 11-10 5-10-5 0-17 5-25 10s-10 10-5 10c6 0 17-5 25-10zm-110-20c0-5-5-10-11-10-5 0-7 5-4 10 3 6 8 10 11 10 2 0 4-4 4-10zm746-135c8-45 30-108 47-140 29-53 35-60 60-57 19 3 27-1 27-12 0-9-3-16-7-17-5 0-19-2-33-4-59-9-373-26-378-21-3 4 17 7 44 8l49 1-45 8c-42 7-40 7 18 5 34-1 62 1 62 5s50 11 110 14c61 4 110 9 110 10s-11 23-25 47c-37 66-55 133-59 218-2 41-2 62 0 45 2-16 11-66 20-110zm-2038 125c22-7 18-8-20-6-34 3-48 0-52-11-4-8-4-18-1-22 2-4-2-8-10-8s-12 4-9 9c3 4 0 8-6 8-7 0-9-7-6-16s6-22 6-30c0-9 4-12 10-9s7-1 4-9c-7-18-24-11-24 10 0 19-6 18-30-6-12-12-18-26-15-33 4-7-4 0-17 16-26 30-38 34-38 13s-27-40-33-24c-3 7-6 2-6-12-1-30 48-61 50-32 0 10 3 12 5 5 3-7 1-20-5-31-7-13-7-22 1-30 7-7 8-15 4-19-4-5-16 2-26 15-10 12-21 18-24 13-7-11 4-522 11-533 2-5-1-8-6-8-6 0-11 1-11 3 0 1-3 172-7 380l-6 377 117-1c64 0 129-5 144-9zm389-37c-3-10-5-2-5 17s2 27 5 18c2-10 2-26 0-35zm2903 28c0-5-7-11-15-15-15-5-20 5-8 17 9 10 23 9 23-2zm635-12c11-11-44-11-150 1-67 7-82 6-92-7-6-8-17-12-23-8-8 5-8 11 1 21 9 11 35 12 133 8 66-4 125-10 131-15zm-1559-5c10-8 12-12 4-8s-30 11-50 15c-35 7-35 7-4 8 16 0 39-6 50-15zm-709-20c-9-9-28 6-21 18 4 6 10 6 17-1 6-6 8-13 4-17zm601 19c-15-2-42-2-60 0s-6 4 27 4 48-2 33-4zm599-15c-3-8-6-5-6 6-1 11 2 17 5 13 3-3 4-12 1-19zm485 5c29-35 31-48 2-23-16 14-33 28-38 32-6 5-3 8 5 8 9 0 23-8 31-17zm-3355-15c-3-8-6-5-6 6-1 11 2 17 5 13 3-3 4-12 1-19zm1580 16c-3-3-12-4-19-1-8 3-5 6 6 6 11 1 17-2 13-5zm2446-21c-7-2-19-2-25 0-7 3-2 5 12 5s19-2 13-5zm-1146-25c-3-8-6-5-6 6-1 11 2 17 5 13 3-3 4-12 1-19zm-2912-17c-3-6-14-10-23-10-15 1-15 2 1 6 9 2 17 9 17 15s3 9 6 5c3-3 3-10-1-16zm112-48c-2-16-4-5-4 22 0 28 2 40 4 28 2-13 2-35 0-50zm1460 33c19-21 20-27 8-43-17-23-32-10-41 35-8 38 4 41 33 8zm-1707-21c0-5-4-4-9 4-7 11-11 10-20-5-6-11-11-16-11-11 0 4 5 16 12 27 9 14 14 16 20 7 4-7 8-16 8-22zm4269 19c2-2-7-4-22-4-14 0-29 5-32 10-6 10 42 4 54-6zm-4240-40c1 11 3 17 6 14 11-10-7-58-21-58-16 0-17 5-7 39 6 23 7 23 14 5s8-18 8 0zm3985-13c3-5-1-11-9-15-9-3-15 0-15 9 0 16 16 20 24 6zm-434-11c0-5-7-10-16-10-8 0-12 5-9 10 3 6 10 10 16 10 5 0 9-4 9-10zm-486-50c5-17 4-20-2-10-5 8-13 26-16 40-5 17-4 20 2 10 5-8 13-26 16-40zm-1536 15c-3-3-9 2-12 12-6 14-5 15 5 6 7-7 10-15 7-18zm2402 22c0-2-17-19-37-38l-38-34 34 38c33 34 41 42 41 34zm60-13c0-8-4-12-10-9-5 3-10 1-10-5s-5-8-12-4c-7 5-5 11 7 21 24 17 25 16 25-3zm-3724-10c23-10 54-14 80-11 40 4 41 4 30-19-10-22-36-34-36-16 0 4-10 8-22 8-27-1-118 35-118 47 0 11 25 8 66-9zm3854-4c-6-11-12-20-14-20s-2 9 1 20 9 20 15 20c5 0 4-9-2-20zm-180 1c0-5-9-19-20-32l-20-24 17 32c19 34 23 39 23 24zm214-17c9-8 16-26 16-39 0-18-4-22-20-18-15 4-20 14-20 39 0 39 2 40 24 18zm-2480-41c-6-56-24-83-24-36 0 31 15 83 24 83 2 0 2-21 0-47zm-1181 17c64-13 68-18 16-24-28-4-115 10-128 20-10 9 15 25 33 21 11-3 47-11 79-17zm3588-23-24-22 19 27c10 14 21 24 23 22 3-3-6-15-18-27zm-3481-12c0-2-7-2-15 1-27 11-16-4 19-24 30-18 52-21 163-21 176 1 207 0 202-5-10-10-601-17-595-8 3 5 57 9 121 8 63 0 115 2 115 7 0 6-24 11-43 8-5-1-5 4-1 10 5 8-1 10-19 7-14-3-32-1-39 3-9 6-3 10 20 15 17 4 32 11 32 16s9 4 20-2 20-13 20-15zm3215 0c-43-27-97-45-130-44-11 0 5 7 35 15s68 23 85 34c16 10 35 19 40 19 6 0-8-11-30-24zm-266-11c14-12-19-1-35 12-18 14-18 14 6 3 14-6 27-13 29-15zm-3202-16c-3-7-5-2-5 12s2 19 5 13c2-7 2-19 0-25zm855-60c10-21 14-38 9-38-8 0-61 112-61 128 0 9 31-45 52-90zm2848 82c0-5-5-10-11-10-5 0-7 5-4 10 3 6 8 10 11 10 2 0 4-4 4-10zm-380-10c0-5-6-10-14-10s-23-3-33-6c-16-6-16-5 2 9 23 19 45 22 45 7zm-155-22c33-15 32-28-2-28-35 0-58 14-49 29 9 14 19 14 51-1zm635 8c0-3-4-8-10-11-5-3-10-1-10 4 0 6 5 11 10 11 6 0 10-2 10-4zm-579-49c-13-12-20-15-16-7 14 26 28 41 33 35 3-3-5-16-17-28zm455-9c-9-12-16-19-16-15 0 11 24 47 28 42 2-2-3-14-12-27zm64 16c0-2-9-4-20-4s-20 4-20 9 9 7 20 4 20-7 20-9zm-2253 0c-3-3-12-4-19-1-8 3-5 6 6 6 11 1 17-2 13-5zm40 0c-3-3-12-4-19-1-8 3-5 6 6 6 11 1 17-2 13-5zm1218-19c0-14-5-25-11-25-7 0-9 10-6 25 2 14 7 25 11 25 3 0 6-11 6-25zm-1545-20c0-17-61-21-121-8l-34 7 35 7c69 13 120 10 120-6zm1046-21c-4-9-9-15-11-12-3 3-3 13 1 22s9 15 11 12c3-3 3-13-1-22zm-1246 6c0-13-11-13-30 0-12 8-11 10 8 10 12 0 22-4 22-10zm279-5c-8-9-33-18-55-20l-39-5 40 10c22 6 44 15 49 20 6 6 12 10 15 10s-2-7-10-15zm321 0c-10-12-9-15 5-15 10 0 23 8 30 17 10 14 16 15 28 5 9-8 42-12 91-10 42 1 78-1 81-4 4-3-29-6-71-7-52-1-86-6-102-17-13-9-26-13-30-10-3 3 0 6 6 6 7 0 12 8 12 18 0 11-3 13-8 5s-54-12-152-13c-183-2-180-2-155 12 11 6 74 15 140 18 66 4 124 8 129 8 5 1 3-5-4-13zm1150-4c0-6-4-13-10-16-5-3-10 1-10 9 0 9 5 16 10 16 6 0 10-4 10-9zm804-6c3-8 1-15-4-15-6 0-10 7-10 15s2 15 4 15 6-7 10-15zm-3529-33c-8-8-25 10-25 26 0 13 2 13 14-4 8-10 13-21 11-22zm1917-36c-2-25-8-46-13-46s-9 4-9 8-11 9-26 10-23-2-19-8 10-8 15-5 11 1 15-5-5-10-20-10c-25 0-26 2-23 53s4 52 38 57c19 3 37 2 40-2 3-3 4-27 2-52zm1268 46c0-12-3-12-15-2-8 7-15 13-15 15 0 1 7 2 15 2s15-7 15-15zm294 3c-4-8-8-15-10-15s-4 7-4 15 4 15 10 15c5 0 7-7 4-15zm-2577-35c26 0 6-13-26-16-27-3-51 19-36 34 3 3 5 1 5-5s8-14 18-18c14-5 15-4 5 6-7 7-13 20-13 28 0 11 5 9 16-7 8-12 22-22 31-22zm3 30c0-5-2-10-4-10-3 0-8 5-11 10-3 6-1 10 4 10 6 0 11-4 11-10zm1985-5c23-5 25-10 25-55v-50h-60c-57 0-60 1-60 25s-9 30-37 26c-7-1-13 2-13 7 0 16 27 21 39 9 8-8 11-4 11 15 0 37 12 40 95 23zm-173-9c7 4 8 2 4-4-11-18-26-14-25 6 0 10 3 12 6 4 2-6 10-9 15-6zm-1475-22c-7-7-57-15-57-10 0 11 55 34 59 25 1-6 1-12-2-15zm-175 9c-12-2-20-8-17-13 3-4-5-6-17-2-21 5-21 6-2 13 10 4 28 7 39 7 17-1 16-1-3-5zm2263 0c-11-2-30-6-42-9-12-2-32-14-43-26s-20-17-20-11c0 25 49 52 95 51 18 0 22-2 10-5zm-1575-14c0-7-44-9-147-4-82 4-150 9-152 11s64 4 147 4c103 0 152-4 152-11zm-933-5c-3-3-12-4-19-1-8 3-5 6 6 6 11 1 17-2 13-5zm178-4c3-5 15-10 25-10s21-4 24-9-12-4-34 1c-22 6-40 14-40 19 0 12 17 11 25-1zm153 3c-10-2-28-2-40 0-13 2-5 4 17 4 22 1 32-1 23-4zm989 0c-20-2-52-2-70 0-17 2 0 4 38 4 39 0 53-2 32-4zm-337-45c0-5-11-8-25-8-23 0-24 2-13 25 10 23 12 23 24 7 7-9 14-20 14-24zm-640 22c-8-5-25-10-37-10-17 0-20-5-16-22 4-21 4-21-9 2-13 24-13 25 22 31 54 9 56 9 40-1zm800-15c0-9-9-15-22-14-13 0-17 3-10 6 6 2 10 9 6 14-3 5 2 9 10 9 9 0 16-7 16-15zm80 0c0-8-9-15-20-15-13 0-18 5-14 15 4 8 12 15 20 15s14-7 14-15zm-853-1c-3-3-12-4-19-1-8 3-5 6 6 6 11 1 17-2 13-5zm-257-68c0-6-7-2-15 8-8 11-15 25-15 30 0 6 7 2 15-8 8-11 15-25 15-30zm865 34c-3-5-10-10-16-10-5 0-9 5-9 10 0 6 7 10 16 10 8 0 12-4 9-10zm94 1c11-7 10-11-7-20-28-15-31-14-29 9 1 21 14 25 36 11zm70-5c9-10 8-15-4-20-10-4-15 1-15 14 0 24 4 25 19 6zm90-8c-5-10-14-18-19-18s-8 8-7 18c0 10 9 18 18 18 14 0 15-4 8-18zm1164-8c3-11 10-20 15-20 6 0 8 9 5 20-5 19 0 20 78 20 109 0 153-8 166-29 10-16 7-15-29 2-34 17-45 18-78 8-43-13-80-51-106-111-10-22-22-40-27-40-4 0-5 5-2 10 3 6-3 10-15 10-11 0-23-7-26-15-4-8-11-15-16-15-7 0-6 5 1 13 15 18-30 40-65 31l-25-6 27 54c23 47 62 87 85 88 4 0 9-9 12-20zm-1468 0c3-5-1-10-9-10-9 0-16 5-16 10 0 6 4 10 9 10 6 0 13-4 16-10zm255 0c0-5-4-10-10-10-5 0-10 5-10 10 0 6 5 10 10 10 6 0 10-4 10-10zm1523 3c-7-2-21-2-30 0-10 3-4 5 12 5 17 0 24-2 18-5zm-2557-28c-3-8-4-15-3-15s82-3 180-7c148-5 181-4 188 8 6 10 9 10 9 2 0-15 187-18 256-4 45 8 107 3 99-8-13-22-772-20-1628 5l-218 7-26-24c-25-23-25-23-14-2 6 12 17 25 23 29 13 8 341 7 814-2 260-5 292-4 297 10 4 9 11 16 18 16 6 0 9-7 5-15zm1868-17c-10-16-22-7-17 13 4 15 8 17 14 8 4-7 5-17 3-21zm584-18c17-26 22-47 22-97 0-68-14-101-59-140-14-13-21-23-15-23s17 6 24 14c13 17 40 10 40-10 0-15-7-17-53-16-41 1-76 28-98 75-35 77-21 146 43 214 36 38 61 33 96-17zm644 18c-7-7-12-8-12-2 0 14 12 26 19 19 2-3-1-11-7-17zm-2312 2c0-5-7-10-15-10s-15 5-15 10c0 6 7 10 15 10s15-4 15-10zm50 0c0-5-4-10-9-10-6 0-13 5-16 10-3 6 1 10 9 10 9 0 16-4 16-10zm1150-12c0-7-4-19-9-27-6-9-8-5-8 13 0 14 3 26 8 26s9-6 9-12zm-1074-35c-11-11-19 6-11 24 8 17 8 17 12 0 3-10 2-21-1-24zm1002-3c2-19 8-38 14-41 7-4 7-30 0-80-8-66-9-69-11-26-1 34-5 47-16 47-8 0-15 2-15 4s-3 11-6 20-1 16 6 16c6 0 8-4 5-10-3-5-4-10-1-10 2 0 11-3 19-6 12-4 14 0 10 15-3 12-15 21-32 23-20 2-27 9-29 31-5 42 5 59 30 55 18-2 24-11 26-38zm-1092 19c8-14-14-29-41-28-18 0-18 1 3 10 13 5 20 13 17 19-3 5-2 10 4 10 5 0 13-5 17-11zm174-9c0-5-4-10-10-10-5 0-10 5-10 10 0 6 5 10 10 10 6 0 10-4 10-10zm137-6c-3-3-12-4-19-1-8 3-5 6 6 6 11 1 17-2 13-5zm-2250-41c-3-10-5-4-5 12 0 17 2 24 5 18 2-7 2-21 0-30zm1851 30c-16-2-40-2-55 0-16 2-3 4 27 4s43-2 28-4zm2442-11c0-5-7-9-15-9s-15 4-15 9c0 4 7 8 15 8s15-4 15-8zm-553-10c6-4 11-25 11-47 0-29-3-35-8-20-4 11-5 25-2 30 3 6-2 4-11-4-9-7-14-17-11-22s0-9-5-9c-6 0-11 18-11 40 0 39 11 49 37 32zm-1720-24c-3-8-6-5-6 6-1 11 2 17 5 13 3-3 4-12 1-19zm170 0c-3-8-6-5-6 6-1 11 2 17 5 13 3-3 4-12 1-19zm-2441-13c4-14 4-29 0-32-3-4-6 3-6 15 0 13-6 22-16 22-8 0-12 5-9 10 11 18 24 11 31-15zm2194 15c0-5-2-10-4-10-3 0-8 5-11 10-3 6-1 10 4 10 6 0 11-4 11-10zm1160-10c0-11-4-20-9-20s-7 9-4 20 7 20 9 20 4-9 4-20zm1180 16c0-3-4-8-10-11-5-3-10-1-10 4 0 6 5 11 10 11 6 0 10-2 10-4zm-1000-10c0-11-19-15-25-6-3 5 1 10 9 10 9 0 16-2 16-4zm610-26c10-6 2-9-27-7-24 1-37 5-30 9 16 10 39 10 57-2zm-1235-15c29-13 27-13-45-16-41-1-85-1-98 0-24 2-76-32-65-43 4-3-9-1-28 6-23 9-99 13-236 13-112 0-203 3-203 6 0 18 32 26 100 25 41-1 78 3 81 8 4 5 13 5 20 0 16-11 289-12 289-2 0 4-28 9-62 11-35 2 0 4 77 5 100 1 149-3 170-13zm335 11c0-11-19-15-25-6-3 5 1 10 9 10 9 0 16-2 16-4zm-697-13c-7-2-19-2-25 0-7 3-2 5 12 5s19-2 13-5zm-2593-14c0-5-4-8-9-5-5 4-12 0-14-6-3-8-6-6-6 5-1 9 6 17 14 17s15-5 15-11zm3017 5c-3-3-12-4-19-1-8 3-5 6 6 6 11 1 17-2 13-5zm291-35c14 0 13-2-3-9-31-14-35-12-35 18 1 23 2 24 11 10 5-10 18-18 27-19zm729 14c-4-3-2-12 4-20 9-9 8-13 0-13-6 0-11 2-11 4s-3 11-6 20c-4 10-1 16 7 16 7 0 9-3 6-7zm-91-50c-8-15-15-25-16-21 0 12 23 58 27 54 3-2-2-17-11-33zm54 18c0-11 3-26 6-35s2-16-4-16c-5 0-12 16-14 35s0 35 4 35 8-9 8-19zm-690-20c0-11 6-22 13-24 6-3 2-6-10-6-18-1-23 5-23 24 0 14 5 25 10 25 6 0 10-9 10-19zm-3063 3c-3-3-12-4-19-1-8 3-5 6 6 6 11 1 17-2 13-5zm3220 0c-3-3-12-4-19-1-8 3-5 6 6 6 11 1 17-2 13-5zm-3219-39c-2-23-28-37-28-15 0 6 5 10 10 10 6 0 10 7 10 15s2 15 5 15 4-11 3-25zm-271-7c-3-8-6-5-6 6-1 11 2 17 5 13 3-3 4-12 1-19zm3478 13c3-5 1-12-5-16-5-3-10 1-10 9 0 18 6 21 15 7zm-133-51c2-14 17-51 33-84l30-58 60-4c128-9 146-12 153-19 11-11-212 6-226 18-13 10-29 43-61 120-14 35-15 75-1 61 5-5 11-21 12-34zm718-2c0-4-8-8-18-8-17 0-21 15-13 50 2 7 31-32 31-42zm-1412 6 82-6v-45c0-25 7-89 14-142 8-53 26-213 41-356 34-351 35-364 25-340-5 11-9 34-10 50l-1 30-10-25c-8-19-12-21-18-11-5 8-14 10-21 6s-16-2-20 5c-5 8-31 12-74 11-44 0-65 3-63 10 1 6-4 14-10 16-7 3-13 0-13-5 0-16-121-7-131 9-6 10-9 1-10-26l-1-40-8 40c-4 22-13 114-20 205-6 91-16 198-21 238-8 59-7 78 5 103 15 30 12 59-5 59-5 0-10-15-10-32-1-18-7 8-14 57-18 126-19 125 8 124 18-1 18-2 4-6-11-3-16-10-13-20 3-8 6-23 6-34 0-10 7-19 15-19s15 7 15 15 5 15 11 15 8-9 4-22c-7-22-7-22 8-4 14 19 15 19 15-6 0-20-5-24-19-21-11 3-19 0-19-6s7-11 15-11 15-5 15-10c0-7 6-7 20 0 16 9 20 8 20-5 0-9-9-15-25-15-14 0-25 5-25 11 0 5-4 8-10 4-19-11 1-30 32-30 25 0 35-6 47-30 9-16 21-34 26-38 6-5 4-7-5-4-8 2-27-2-41-9-22-11-29-11-48 3-28 19-36 12-26-24 5-15 7-34 6-41-1-8 6-23 16-35 10-11 12-17 6-13-9 5-13 0-13-13 0-12 5-21 11-21 5 0 7 5 4 10-3 6-1 10 4 10 6 0 11-4 11-10 0-5 6-7 13-4 10 4 12-3 9-27-3-22-1-30 7-25 7 5 11-4 11-25 0-18 3-29 7-25s6 22 5 41c-2 18 1 36 7 40 6 3 11-2 12-12 0-10 3-13 6-5 2 6 12 12 21 11 11 0 12-2 5-6-7-2-13-9-13-15s7-8 15-4c12 4 14-1 9-28-6-40 7-52 38-35 27 14 38 28 37 49 0 10-3 8-9-5-7-17-9-15-9 11-1 38 24 53 33 21 5-18 8-20 16-7 5 8 10 10 10 4 0-5-5-15-11-21s-8-17-3-24c5-9 9-8 14 7 6 14 9 9 14-23 4-23 14-47 22-54 8-6 14-23 14-38 0-14 5-33 10-41 11-17 12-10 12 75 0 28 2 44 5 37 2-6 9-9 14-6 6 3 3 17-7 32-16 26-16 26 2 9 19-18 29-77 13-77-5 0-9-4-9-10 0-5 6-10 14-10 9 0 12 12 11 43-6 122-6 123-15 102-8-19-9-19-9 3-1 12 2 22 7 22 13 0-10 184-25 193-7 4-13 13-13 20s4 6 10-3c8-13 10-13 10 2 0 9-4 20-10 23-5 3-10 12-10 18 0 7 4 6 10-3 8-13 10-12 10 3 0 9-4 18-10 18-5 1-16 2-22 3-7 1-20-2-28-8s-6-1 4 12c11 12 16 25 12 29s-12 1-17-7c-8-11-9-10-4 8 4 13 2 22-4 22s-11-4-11-9-11-8-25-8c-34 0-32 25 3 30 15 2 7 4-18 3s-54-7-65-14c-25-14-11-16 16-2 15 9 21 7 26-6 4-10 0-21-9-28-13-10-13-13-2-24 12-11 14-9 14 8 0 11 5 20 10 20 6 0 10-11 10-25s4-25 10-25c5 0 7 7 4 15-4 8-2 15 4 15 5 0 12-9 15-20 5-19-1-23-33-21-10 0-11-1-3-5 10-4 9-9-2-20-21-22-36-83-25-105 13-24 13-29-4-29-8 0-17-6-19-12-4-10-6-10-6 0-1 7 6 15 14 18 13 5 13 8 0 21-16 15-21 68-6 59 4-3 6 5 4 19-3 15-10 22-19 18-10-4-13 6-13 39 0 23-2 65-5 91-5 44-4 48 12 42 15-5 15-4 2 9-8 8-24 16-35 18-17 2-19-2-17-24 2-16-1-28-6-28s-10 6-9 13c1 38-4 44-35 44-76 0-108 4-108 13 0 6 8 10 18 11 13 0 14 2 2 6-16 6-30 23-30 36 0 7 137 3 318-9zm1782-4c0-5-7-10-16-10-8 0-12 5-9 10 3 6 10 10 16 10 5 0 9-4 9-10zm33-27c-7-2-19-2-25 0-7 3-2 5 12 5s19-2 13-5zm-1396-51c-32-4-65 17-46 28 6 4 25 0 43-9l31-16zm1036-11c27-46 14-38-18 12-16 23-22 37-14 30 8-6 22-25 32-42zm-3820-21c5-19 1-20-104-20-98 0-109 2-109 18s12 18 104 20c97 3 104 2 109-18zm2094-12c-3-7-5-2-5 12s2 19 5 13c2-7 2-19 0-25zm68 22c3-5 1-10-4-10-6 0-11 5-11 10 0 6 2 10 4 10 3 0 8-4 11-10zm1208 3c-7-2-21-2-30 0-10 3-4 5 12 5 17 0 24-2 18-5zm65-10c-10-2-26-2-35 0-10 3-2 5 17 5s27-2 18-5zm-381-115c-2-24-4-7-4 37s2 63 4 43c2-21 2-57 0-80zm-3567 55c-1-36-3-44-10-31-9 14-3 78 6 78 2 0 4-21 4-47zm2738 11c2-22 0-26-7-14-9 13-11 13-11 0 0-9 5-21 12-28 9-9 9-12 0-12-7 0-12-5-12-11 0-5 4-8 8-5 4 2 9-7 10-22 1-26 1-26-13-7-8 11-19 25-24 32-7 7-7 13-1 15s11 22 13 45c2 48 20 53 25 7zm2102 15c0-6-4-7-10-4-5 3-10 11-10 16 0 6 5 7 10 4 6-3 10-11 10-16zm-2485 1c3-5 1-10-4-10-6 0-11 5-11 10 0 6 2 10 4 10 3 0 8-4 11-10zm802-13c-15-12-36-35-47-52-11-16-20-24-20-16 0 15 72 91 86 91 5 0-4-10-19-23zm139 14c-3-5-15-7-26-4-28 7-25 13 6 13 14 0 23-4 20-9zm-2835-52c-8-21-10-22-16-6-4 10-2 24 6 33 17 20 23 5 10-27zm847 1c21 0 24-2 12-10-30-19-50-12-49 18 1 16 3 20 6 10 3-12 14-18 31-18zm195 23c-13-2-33-2-45 0-13 2-3 4 22 4s35-2 23-4zm2455 2c-8-8-77-9-85-2-3 4 15 7 42 7s46-2 43-5zm-2133-15c-27-12-35-12-35 0 0 6 12 10 28 9 24 0 25-1 7-9zm1895-4c47-3 95-6 108-6 12 0 22-3 22-7 0-5-46-5-102-2-57 4-113 7-126 8s-21 5-17 11c3 5 11 7 18 5s50-6 97-9zm-3405-6c3-5 1-10-4-10-6 0-11 5-11 10 0 6 2 10 4 10 3 0 8-4 11-10zm1282-22c-3-8-6-5-6 6-1 11 2 17 5 13 3-3 4-12 1-19zm223 0c0-9 4-8 10 2 8 13 10 12 10-2 0-10-2-18-4-18s-11-3-19-6c-9-3-16 3-20 15-3 14 0 21 9 21 8 0 14-6 14-12zm570 8c0-3-4-8-10-11-5-3-10-1-10 4 0 6 5 11 10 11 6 0 10-2 10-4zm-2080-15c0-5-57-9-126-10-129-1-154-7-154-41 0-24-45-70-70-70-11 0-20 5-20 10 0 6 9 10 19 10 20 0 44 25 73 79l17 31h131c71 0 130-4 130-9zm119 5c-12-10-79-16-79-6 0 5 19 10 42 10s39-2 37-4zm2496-6c3-5 2-10-4-10-5 0-13 5-16 10-3 6-2 10 4 10 5 0 13-4 16-10zm136-13c-10-9-11-8-5 6 3 10 9 15 12 12s0-11-7-18zm-1748-3c-5-13-8-13-15-2-7 10-11 10-14 1-3-7-12-9-20-6-26 10-14 23 21 23 27 0 33-3 28-16zm1058-11c13-16 12-17-3-4-17 13-22 21-14 21 2 0 10-8 17-17zm106 6c-9-6-15-14-12-20 3-5-1-6-9-3-21 8-20 21 2 27 30 8 37 7 19-4zm455-20c14-18 18-34 13-48-6-19-12-21-38-15-18 3-37 11-44 16s-17 7-23 3c-14-9-13 1 5 35 24 47 56 50 87 9zm978 20c0-5 3-8 8-6 14 9 45-10 48-28 2-10-4-24-13-30-9-7-18-21-19-31-2-10-8-28-14-39-6-12-10-41-8-66l3-44 78-5c42-3 77-2 77 2s-33 8-72 10l-73 3-2 35c-2 30-1 31 6 10 6-22 13-25 49-23 23 1 42-1 42-5s11-8 24-8c18-1 23 2 19 14-4 10-2 13 5 8 8-5 12 0 12 13 0 48 74 6 116-65 18-31 27-60 28-97l1-52h-76c-71 0-76-1-72-20 4-15 2-16-5-7-7 11-10 11-15-1-4-11 4-19 26-28 18-6 37-11 43-10 6 0 11-5 11-13s-3-15-6-14c-3 0-30 0-59-1-68-1-60-21 9-21 45 0 49-2 49-24 0-14 5-28 11-32 8-4 4-11-11-19s-19-15-11-19c6-4 11-1 11 6 0 8 5 6 11-4 5-10 17-18 25-18s12-5 8-11c-4-8-9-8-17 0-16 16-27 13-27-8 0-14-9-20-36-23-30-3-41 1-60 21l-24 26v-33c0-17-4-32-8-32s-15-21-25-46c-15-41-15-48-2-67 20-28 19-57-1-57-13 0-14-3-4-15 6-8 24-13 38-11 15 2 19 1 10-1-14-3-18-15-18-53 0-48 19-83 21-38 0 13 3 17 6 11 8-22 23-14 23 12 0 17 5 25 18 25s14-2 3-9c-7-5-11-15-9-22 3-8-7-21-21-30-21-13-46-15-121-12-117 5-351 38-403 56l-39 14 57 32c32 18 79 55 105 82l47 49h90 91l4-30c3-16 0-34-5-39-12-12 21-29 53-26 14 1 26 9 28 18 3 13-4 17-27 17-30 0-31 1-31 45 0 41 2 45 24 45 14 0 26-6 29-12 2-7 2-2 0 10-2 13 2 31 9 40 10 12 10 14 1 8-10-5-13 7-13 49 0 53 1 56 21 50 16-6 20-4 13 6-4 8-16 20-26 27-11 8-18 26-18 48 0 19-4 34-10 34-5 0-7-7-4-15 5-11 2-13-10-9-14 5-16 33-16 220v214l-22 1-23 2 23 4c18 4 22 11 22 39 0 19 5 34 10 34 6 0 10-5 10-11zm-1483-21c-3-8-6-5-6 6-1 11 2 17 5 13 3-3 4-12 1-19zm123 13c0-10-26-9-36 2-4 4 2 7 14 7s22-4 22-9zm-1273-33c-3-8-6-5-6 6-1 11 2 17 5 13 3-3 4-12 1-19zm63 7c0-9-9-15-25-15s-25 6-25 15 9 15 25 15 25-6 25-15zm347-17c-3-18-9-54-13-80-3-26-12-52-19-58-8-6-11-18-8-26 7-18-25-30-40-14-9 9-8 11 8 8 11-1 20 2 20 7 0 6 6 19 12 30s15 53 18 93c4 40 12 72 17 72 6 0 8-14 5-32zm1433 22c0-5-2-10-4-10-3 0-8 5-11 10-3 6-1 10 4 10 6 0 11-4 11-10zm887 3c-4-3-2-12 4-20 6-7 8-13 3-13s-18-19-29-43c-11-23-24-45-30-49-15-11-35-10-35 2 0 6 6 10 14 10 16 0 56 63 56 89 0 17 8 31 18 31 3 0 2-3-1-7zm-669-15c13-13-1-38-22-38s-49 26-42 38c9 15 49 15 64 0zm-3181-30c-3-7-5-2-5 12s2 19 5 13c2-7 2-19 0-25zm3510 26c-3-3-12-4-19-1-8 3-5 6 6 6 11 1 17-2 13-5zm-1270-41c-3-10-5-4-5 12 0 17 2 24 5 18 2-7 2-21 0-30zm-2772-2c-6-5-25 10-25 20 0 5 6 4 14-3s12-15 11-17zm2320-11c12 10 12 6 2-21-8-21-8-33-2-36 26-9 33-22 40-70 7-52 6-53-18-53-26 0-25-5-43 123-4 23-13 46-20 50-8 5-12 13-9 18 4 5 11 7 16 4 5-4 10 2 10 12 1 10 4 5 6-10 4-23 7-26 18-17zm2992 3c-3-10-5-4-5 12 0 17 2 24 5 18 2-7 2-21 0-30zm-5007 11c0-8-4-12-10-9-5 3-10 10-10 16 0 5 5 9 10 9 6 0 10-7 10-16zm4151-4c5 0 9-5 9-11 0-15-43-7-48 10-3 10 0 12 12 8 10-4 22-7 27-7zm-3951-10c0-5-2-10-4-10-3 0-8 5-11 10-3 6-1 10 4 10 6 0 11-4 11-10zm2150-4c0-3-4-8-10-11-5-3-10-1-10 4 0 6 5 11 10 11 6 0 10-2 10-4zm-2518-38c-8-8-9-4-5 13 4 13 8 18 11 10 2-7-1-18-6-23zm4229 5c-8-15-10-15-11-2 0 17 10 32 18 25 2-3-1-13-7-23zm-1961-8c0-8-4-15-9-15s-11 7-15 15c-3 9 0 15 9 15 8 0 15-7 15-15zm-779-24c7 11 9 10 9-4 0-10 5-15 10-12 6 3 10 0 10-8 0-7 6-14 14-14 11 0 12 6 5 24-15 39-9 41 11 3 10-20 21-52 25-73 9-45-6-48-71-16-67 32-95 81-54 94 11 4 21 14 21 23 1 9 4 6 6-7 4-19 7-21 14-10zm140-48c10-42 16-53 32-53 29 0 18-6-23-13-29-4-36-2-36 11 0 10-3 29-7 45-4 15-3 27 2 27s12-10 14-22c2-13 3-7 2 12-2 19-6 44-10 55-6 16-5 17 4 5 6-8 16-39 22-67zm782 62c-3-9-8-14-10-11-3 3-2 9 2 15 9 16 15 13 8-4zm157-2c-8-3-18-11-22-17s-10-7-15-3c-9 10 16 27 37 26 13-1 13-1 0-6zm2589-35c1-5-3-8-8-8-12 0-22 30-14 43 6 10 20-13 22-35zm-4989 12c0-11-4-20-9-20s-7 9-4 20 7 20 9 20 4-9 4-20zm1794-29c-4-17-9-30-11-27-3 2-2 19 2 36 9 41 17 33 9-9zm279 19c3-11 1-18-4-14-5 3-9 12-9 20 0 20 7 17 13-6zm825-2c10-12 10-18 1-24-8-4-9-3-5 4s2 12-3 12c-6 0-11 8-11 17s1 14 3 12c1-2 8-11 15-21zm27 12c3-5 2-10-4-10-5 0-13 5-16 10-3 6-2 10 4 10 5 0 13-4 16-10zm-1698-20c-1-22-17-28-17-7 0 12 9 27 16 27 2 0 2-9 1-20zm533-31c0-18-18-9-23 12-4 16-3 18 9 8 8-6 14-15 14-20zm387 25c-3-3-12-4-19-1-8 3-5 6 6 6 11 1 17-2 13-5zm71-1c-10-2-28-2-40 0-13 2-5 4 17 4 22 1 32-1 23-4zm617-11c-3-3-11 0-18 7-9 10-8 11 6 5 10-3 15-9 12-12zm-1687-7c15 3 20 2 12-1-8-4-18-12-22-18-8-12-28 10-27 29 0 6 3 4 6-2 3-8 15-11 31-8zm-1256 0c15-6 13-65-2-65-8 0-20 34-20 58 0 14 2 14 22 7zm130-10c3-4 1-17-6-30-8-19-19-25-41-24-16 0-24 3-17 6 6 2 12 13 12 23 0 23 37 40 52 25zm2115-1c-3-3-12-4-19-1-8 3-5 6 6 6 11 1 17-2 13-5zm426-1c-7-2-21-2-30 0-10 3-4 5 12 5 17 0 24-2 18-5zm327-23c0-16-4-30-9-30s-8 8-6 18c2 9 4 23 4 30 2 26 11 11 11-18zm137 8c-3-8-6-5-6 6-1 11 2 17 5 13 3-3 4-12 1-19zm-1928 2c11 0 9-4-5-14-16-13-20-13-27 0-5 8-12 12-18 9-5-4-9-1-9 6s9 9 23 5c12-3 28-6 36-6zm558 4c-3-3-12-4-19-1-8 3-5 6 6 6 11 1 17-2 13-5zm222-49v-20l-9 20c-5 11-9 29-9 40v20l9-20c5-11 9-29 9-40zm748 49c-3-3-12-4-19-1-8 3-5 6 6 6 11 1 17-2 13-5zm2315-7c-6-7-9-22-7-32 2-11 4-26 4-34 1-8 7-11 17-7 9 3 12 2 9-5-4-6-13-8-21-5s-17-1-20-8c-3-8-12-17-21-20-11-5-13-2-9 9 3 9 2 13-3 10s-12-1-16 5c-3 5 0 10 7 10 8 1 5 7-7 17-20 15-20 15 4 10 28-7 60 17 36 27-8 3-15 10-15 15 0 6 6 8 14 5s17-1 21 5c3 6 9 11 12 11s1-6-5-13zm-3667-9c16-7 24-17 20-26-3-7-5-19-5-25 0-7-9 2-20 18-18 26-25 27-21 2 1-5-3-6-8-3-8 5-4 46 5 46 2 0 15-5 29-12zm332 6c-3-3-12-4-19-1-8 3-5 6 6 6 11 1 17-2 13-5zm632-10c11-10-10-12-63-7-31 3-52 9-46 13 11 7 100 2 109-6zm49 3c13 5 14 3 5-7-13-14-33-5-32 13 0 9 2 9 5 0 3-7 13-9 22-6zm44-19c-5-31-5-31-13-9-9 23-5 41 10 41 4 0 5-14 3-32zm85 10c-3-8-6-5-6 6-1 11 2 17 5 13 3-3 4-12 1-19zm2380 16c-3-3-12-4-19-1-8 3-5 6 6 6 11 1 17-2 13-5zm-4102-26c6-4 2-8-7-8-10 0-18 7-18 17 0 9 3 12 8 7 4-5 12-12 17-16zm222-32c0-23-2-31-4-18-4 23-5 23-24 6-12-10-19-12-19-5 0 6 7 14 15 17 9 4 13 13 10 24-3 10 0 17 8 17 9 0 14-14 14-41zm3598 34c-3-5-10-10-16-10-5 0-9 5-9 10 0 6 7 10 16 10 8 0 12-4 9-10zm277-10c-12-11-24-20-28-20s1 9 11 20 23 20 28 20c6 0 1-9-11-20zm-3599-43c-7-5-19-6-26-3-7 2-4 5 6 5 11 1 17 9 18 24 0 21 1 21 8 2 6-13 4-23-6-28zm482-47c0-53-4-90-10-90-5 0-3-5 5-11 12-8 11-10-5-7-18 3-20 12-23 78-3 85 3 120 21 120 9 0 12-25 12-90zm255 80c0-5-4-10-10-10-5 0-10 5-10 10 0 6 5 10 10 10 6 0 10-4 10-10zm698-4c3-3-20-6-51-6-34 0-57 4-57 11 0 11 96 6 108-5zm-2568-15c0-16 11-19 87-25 134-11 143-14 143-45 0-57 45-87 90-59 30 19 73-10 83-56 5-20 13-36 18-36s9-4 9-8c0-5-24-5-52-1-63 10-488 59-509 59-26 0-59 72-59 129 0 40 3 51 16 51s15-9 9-65-5-65 9-65c10 0 13-5 9-17-4-11-3-14 5-9 7 4 12 14 12 23s5 45 11 80l11 63h54c46 0 54-3 54-19zm2010-21c0-34 3-40 23-41 20-2 21-2 1-6s-20-9-16-112c5-112-4-140-33-110-10 10-14 51-15 149-2 170-4 160 20 160 17 0 20-7 20-40zm940 13c0-20-3-24-11-16-7 7-9 19-6 27 10 24 17 19 17-11zm-1530 13c0-2-7-7-16-10-8-3-12-2-9 4 6 10 25 14 25 6zm453-35c9-16 17-40 16-53 0-18-3-16-12 12-12 35-14 37-70 31-9-1-14-18-16-48-2-52-8-64-20-44-12 18-121-4-121-25 0-8-5-14-10-14-6 0-9 13-8 30 2 24 6 29 21 24 10-3 40-3 67 1 46 6 48 8 53 43 3 25-1 44-12 57-16 20-16 20 6 1 20-17 23-17 29-2 3 9 11 16 16 16 6 0 8-6 5-14-4-10 0-12 14-9 15 4 17 8 8 19s-9 13 3 9c8-3 22-19 31-34zm351 23c3-8 2-12-4-9s-10 10-10 16c0 14 7 11 14-7zm-321-9c-3-9-8-14-10-11-3 3-2 9 2 15 9 16 15 13 8-4zm-488-112c-3-24-12-43-18-43-7 0-6-4 3-10 13-8 12-10-2-10-16 0-18 11-18 84s2 85 18 88c20 4 27-41 17-109zm685 92c0-15-6-25-14-25-11 0-12 5-3 25 15 31 17 31 17 0zm2355 2c0-15-6-23-17-23-9 0-16 8-15 17 1 10 4 16 8 13 4-2 10 0 14 6 9 14 10 13 10-13zm-4022-77c4-30 3-38-3-24-4 12-11 43-14 70-7 61 8 20 17-46zm1924 58c-3-7-5-2-5 12s2 19 5 13c2-7 2-19 0-25zm-1348 18c-2-2-22-6-44-9-28-5-34-4-20 3 19 8 73 14 64 6zm2171 0c0-2-8-10-17-17-16-13-17-12-4 4s21 21 21 13zm1630 0c0-3-4-8-10-11-5-3-10-1-10 4 0 6 5 11 10 11 6 0 10-2 10-4zm-4047-21c-3-9-8-14-10-11-3 3-2 9 2 15 9 16 15 13 8-4zm136-4c-9-3-15-16-14-29s-2-25-6-27c-4-3-9 12-11 33-3 36-2 38 22 34 18-4 20-7 9-11zm-49-1c0-5 0-12 0-15s-3-5-7-6c-5-1-16-5-27-11-14-8-17-7-13 4 2 7 10 12 17 10 8-2 10 3 7 13-4 9-1 15 8 15 8 0 15-4 15-10zm390 1c0-5-7-14-15-21-16-14-18-10-9 14 6 17 24 22 24 7zm1066-38c22-52 4-62-20-12-12 24-20 47-18 52 6 13 24-5 38-40zm2729 18c-3-6-11-11-16-11s-4 6 3 14c14 16 24 13 13-3zm-3398-13c-3-8-6-5-6 6-1 11 2 17 5 13 3-3 4-12 1-19zm283 12c0-5-5-10-11-10-5 0-7 5-4 10 3 6 8 10 11 10 2 0 4-4 4-10zm325 0c-3-5-11-10-16-10-6 0-7 5-4 10 3 6 11 10 16 10 6 0 7-4 4-10zm111-36c-8-22-26-7-26 22 0 23 1 24 16 9 9-8 13-22 10-31zm44 36c0-13-11-13-30 0-12 8-11 10 8 10 12 0 22-4 22-10zm735-29c-21-43-29-39-8 4 9 19 18 33 21 31 2-2-4-18-13-35zm1345 24c16-8 40-31 53-50s26-32 30-29c10 10 57 11 57 1 0-5-9-7-19-4-10 2-24 1-30-2-16-10 31-94 64-115 14-9 25-24 25-33 0-14-4-13-21 5-11 12-24 20-28 18-4-3-29 32-56 77s-55 93-63 106c-10 17-17 20-25 12s-5-15 12-27c14-10 19-19 13-23-14-8 54-130 76-139 10-3 22-13 29-21 9-12 12-12 13-3 0 7 4 11 9 8 13-9 20-45 10-52-5-3-8 0-7 7 4 17-52 35-62 20-5-9-10-8-20 4-11 13-9 15 9 15 12 0 19 5 16 10-3 6-14 10-24 10-23 0-112 171-104 200 6 24 6 24 43 5zm64-22c8-19 2-16-25 13-23 25-23 26-2 13 13-7 25-19 27-26zm-3254-17c13-18 13-19 0-11-29 16-49 38-44 46 5 9 16 0 44-35zm3591-23c-9-16-10-15-11 9 0 14 3 35 8 45 6 15 8 14 10-9 2-15-1-35-7-45zm53 37c-10-4-21-6-24-3-8 7 24 22 34 16 5-4 1-10-10-13zm-4211-2c4-10 8-9 16 2s11 12 11 2c0-7 5-10 10-7 6 3 10-1 10-9 0-18-30-49-39-41-3 4 2 11 12 16 19 11 14 31-7 23-7-3-19 2-26 11s-8 15-2 15 13-6 15-12zm277-21c0-5-4-5-10-2-5 3-10 14-10 23 0 15 2 15 10 2 5-8 10-19 10-23zm210 23c0-5-5-10-11-10-5 0-7 5-4 10 3 6 8 10 11 10 2 0 4-4 4-10zm885 0c3-5-1-10-9-10-9 0-16 5-16 10 0 6 4 10 9 10 6 0 13-4 16-10zm2138 3c-7-2-19-2-25 0-7 3-2 5 12 5s19-2 13-5zm47-13c0-11-4-20-9-20-7 0-8 17-2 38 4 10 11-2 11-18zm-3032-42c1-31-1-39-8-28-12 18-13 83-2 76 5-3 9-24 10-48zm642 37c0-8-4-15-10-15-5 0-10 7-10 15s5 15 10 15c6 0 10-7 10-15zm327-5c-1-11-6-20-12-20-21 0-25 13-7 26 22 17 21 17 19-6zm43 10c0-5-7-7-15-4-8 4-15 8-15 10s7 4 15 4 15-4 15-10zm139-7c11-9 18-20 15-25-3-4 1-8 9-8s18-7 21-16c13-33 5-35-20-5-14 17-34 31-45 31-18 0-26 20-12 33 9 10 10 9 32-10zm207-28c-4-14-10-24-15-21-4 3-36 6-69 7-44 1-62 6-62 15 0 14 24 14 105-2 32-6 35-4 35 17 0 12 3 20 6 16 4-3 3-18 0-32zm584 19c0-8-5-12-10-9-6 4-8 11-5 16 9 14 15 11 15-7zm-1033 0c-3-3-12-4-19-1-8 3-5 6 6 6 11 1 17-2 13-5zm2780-26c-3-7-5-2-5 12s2 19 5 13c2-7 2-19 0-25zm-4408 8c7-8 8-17 3-20-6-3-12 3-15 14-6 24-4 25 12 6zm1761 4c0-5 7-10 15-10s15-4 15-9c0-4-15-3-34 3-22 7-30 13-23 18 17 11 27 10 27-2zm2110-11c0-6-4-7-10-4-5 3-10 11-10 16 0 6 5 7 10 4 6-3 10-11 10-16zm569-6c0-25-1-26-9-8-12 27-12 35 0 35 6 0 10-12 9-27zm-3634-3c10-11 14-20 8-20-5 0-18 9-28 20s-14 20-8 20c5 0 18-9 28-20zm1808 5c-3-9-8-14-10-11-3 3-2 9 2 15 9 16 15 13 8-4zm1097 5c0-5-7-10-15-10s-15 5-15 10c0 6 7 10 15 10s15-4 15-10zm-3763-21c16-3 20-8 14-18-7-10-12-10-30 5-11 10-21 23-21 29s3 5 8-1c4-7 17-14 29-15zm3883 4c0-18-47-84-63-89-15-5-18-13-15-40 4-30 1-34-19-34h-23l22 43c12 23 23 49 24 57 13 77 13 77 44 72 17-2 30-7 30-9zm-3344-32c-1-22-8-46-15-55-10-12-11-19-2-30 10-12 8-13-8-9-24 6-26 16-7 35 19 20 29 55 17 63-7 4-7 11 2 20 6 8 13 14 13 15 1 0 1-18 0-39zm1374 29c0-5-4-10-10-10-5 0-10 5-10 10 0 6 5 10 10 10 6 0 10-4 10-10zm-220-10c0-5-5-10-11-10-5 0-7 5-4 10 3 6 8 10 11 10 2 0 4-4 4-10zm235-19c-6-21-25-29-25-11 0 6 5 10 10 10 6 0 10 8 10 17s3 14 6 10c3-3 3-15-1-26zm722-3c-3-8-6-5-6 6-1 11 2 17 5 13 3-3 4-12 1-19zm1048 3c-3-6-11-11-17-11s-6 6 2 15c14 17 26 13 15-4zm49-8c-7-29-34-75-34-58 0 5-7 0-15-11-15-20-19-16-9 10 3 9 12 16 20 16s14 4 14 9c0 15 19 61 25 61 3 0 2-12-1-27zm403 5c-3-8-6-5-6 6-1 11 2 17 5 13 3-3 4-12 1-19zm-3701-11c14 17 14 16 12-7-2-17-9-25-21-24-15 2-21-8-18-28 0-5-13-8-30-8-24 0-30 4-27 18 2 10 14 18 31 20 21 3 27 9 28 30 2 25 2 25 6 4 4-23 5-23 19-5zm174-9c0-18 3-44 7-58 3-14 2-22-2-17-12 10-23 107-13 107 4 0 8-15 8-32zm-30 13c0-5-7-11-14-14-10-4-13-1-9 9 6 15 23 19 23 5zm-580-26c7-9 8-15 2-15-5 0-12 7-16 15-3 8-4 15-2 15s9-7 16-15zm4403-5c-3-12-8-19-11-16-5 6 5 36 12 36 2 0 2-9-1-20zm-1169-10c60-5 116-10 123-10 11 0 11-3 2-13-13-13-116-13-149 0-8 4-31 7-50 9-29 2-102 10-120 13-3 1 1 5 9 10s28 7 45 5 80-8 140-14zm-3064 0c0-5-2-10-4-10-3 0-8 5-11 10-3 6-1 10 4 10 6 0 11-4 11-10zm1615 0c3-5 1-10-4-10-6 0-11 5-11 10 0 6 2 10 4 10 3 0 8-4 11-10zm890 0c3-5-1-10-9-10-9 0-16 5-16 10 0 6 4 10 9 10 6 0 13-4 16-10zm1652-32c-9-6-9-8 1-8 6 0 12-5 12-10 0-7-7-7-21 0-16 9-18 14-8 26s9 13-7 7c-17-6-18-5-5 11 14 17 15 17 28 0 10-14 10-19 0-26zm-4117-1c0-11-54-77-63-77-2 0-4 15-4 34 0 25 7 37 26 49 27 16 41 14 41-6zm3791 6c33-17 33-17 10-23-31-7-92 0-86 9 2 4 18 6 36 3 23-3 30-1 24 7-4 7-14 10-22 7s-11-1-8 4c8 13 6 13 46-7zm-3328 0c-7-2-19-2-25 0-7 3-2 5 12 5s19-2 13-5zm3167-3c0-5-7-10-16-10-8 0-12 5-9 10 3 6 10 10 16 10 5 0 9-4 9-10zm537-15c0-8-4-12-9-9s-6 10-3 15c9 13 12 11 12-6zm-3067-21c0-14-3-14-15-4-8 7-15 14-15 16s7 4 15 4 15-7 15-16zm59-14c-16-11-29-4-29 16 0 12 4 13 21 3 17-9 19-13 8-19zm-962-1c37-10 47-9 55 2s9 10 4-3c-4-15 1-18 26-18 24 0 42-10 70-37 21-20 38-40 38-43s-78 6-172 21c-95 16-175 28-177 29-3 0 13 13 35 30 44 33 56 35 121 19zm857-4c3-8 1-15-4-15-6 0-10 7-10 15s2 15 4 15 6-7 10-15zm-224-10c0-8-4-15-10-15-5 0-7 7-4 15 4 8 8 15 10 15s4-7 4-15zm2619-11c-13-14-41-35-61-47-21-11-38-25-38-29 0-5-4-6-10-3-6 4-10-5-10-19 0-32-16-34-26-3-8 25-7 32 4 33 25 2 123 56 134 73 7 12 17 21 22 21s-1-12-15-26zm-3063-31c21-27 28-39 15-28-24 21-66 75-58 75 3 0 22-21 43-47zm734 18c-6-12-15-21-21-21-5 0-2 11 8 24 21 28 29 27 13-3zm3080 19c0-5-5-10-11-10-5 0-7 5-4 10 3 6 8 10 11 10 2 0 4-4 4-10zm-2310-29c15-29 12-57-7-76-14-14-14-18-2-26 9-5 10-9 2-9-6 0-21 14-34 31-16 23-19 33-10 42 8 8 11 5 11-10 0-28 14-37 29-19s4 63-18 76c-15 9-15 9 1 10 10 0 22-9 28-19zm600-1c0-5-5-10-11-10-5 0-7 5-4 10 3 6 8 10 11 10 2 0 4-4 4-10zm-1516-12c-5-7-3-8 5-3 7 4 22-2 37-16 24-23 59-36 48-18-3 5-10 7-15 4-5-4-9-1-9 4 0 16 7 14 40-11 25-18 31-19 46-7 16 12 17 12 12-2-3-9-2-22 2-29 8-13 34-7 98 23 18 9 25 8 32-3s10-12 10-2c0 8 5 10 12 6 7-5 9-2 6 7-4 10 1 15 13 15 27 0 24-11-18-57-47-51-81-69-135-69-57 1-86 16-148 74-51 48-73 96-43 96 8 0 11-5 7-12zm-372-21c-9-11-29-25-44-33-29-15-104-19-112-6-2 4 16 7 42 6 46-2 109 27 98 45-3 4 4 7 14 7 18 0 18-1 2-19zm1016 6c-10-2-26-2-35 0-10 3-2 5 17 5s27-2 18-5zm309-25c-3-7-5-2-5 12s2 19 5 13c2-7 2-19 0-25zm-1062 10c75-11 83-14 132-60 28-26 46-48 39-48s-89 11-182 25-176 25-184 25-1 8 15 18c17 11 36 26 44 35 16 20 31 21 136 5zm653 2c6 0 12-10 12-21 0-19-4-21-37-14-46 8-45 8-37 29 5 12 13 16 28 12 11-3 27-6 34-6zm1977-41c9-17 15-32 13-34-2-1-23 0-48 4-33 4-46 11-48 25-5 22 13 36 45 36 15 0 28-10 38-31zm-1584-12c-10-9-11-8-5 6 3 10 9 15 12 12s0-11-7-18zm1784-8c0-21-5-24-40-27-21-2-54-1-72 3-30 5-31 8-20 26 6 10 13 15 15 9 5-15 22-12 22 3 0 10 14 13 48 12 43-1 47-3 47-26zm-1335-81c0-6-7-7-16-4s-24 6-35 6c-10 0-19 4-19 8s16 6 35 4 35-9 35-14zm147-3c46-19 40-25-19-18-31 4-48 10-48 19 0 18 22 18 67-1zm824-32c-12-20-14-14-5 12 4 9 9 14 11 11 3-2 0-13-6-23z"/><path d="m5018 3844c-16-8-28-17-28-19 0-10 16-4 40 15 30 23 25 25-12 4z"/><path d="m4758 3683c-20-23-68-118-68-135 0-7 11 11 25 40 14 30 34 67 46 83 23 32 21 39-3 12z"/><path d="m4677 3603c-4-3-7-11-7-17s5-5 12 2c6 6 9 14 7 17-3 3-9 2-12-2z"/><path d="m3680 3700c-8-5-24-7-35-4-18 4-18 4-3-6 13-8 25-7 45 4 16 8 24 15 18 15-5 1-17-4-25-9z"/><path d="m3195 3670c-3-5-1-10 4-10 6 0 11 5 11 10 0 6-2 10-4 10-3 0-8-4-11-10z"/><path d="m3280 3640c-19-16-32-31-30-34 3-2 23 11 44 30 22 19 35 34 30 34s-25-13-44-30z"/><path d="m3055 3620c-3-5-2-10 4-10 5 0 13 5 16 10 3 6 2 10-4 10-5 0-13-4-16-10z"/><path d="m3225 3590c-3-5-1-10 4-10 6 0 11 5 11 10 0 6-2 10-4 10-3 0-8-4-11-10z"/><path d="m2850 3569c0-5 5-7 10-4 6 3 10 8 10 11 0 2-4 4-10 4-5 0-10-5-10-11z"/><path d="m2731 3534c0-11 3-14 6-6 3 7 2 16-1 19-3 4-6-2-5-13z"/><path d="m2736 3465c-4-22-18-65-31-95-20-46-65-203-65-224 0-8 45-8 52 0 3 3 2 21-2 40-4 18-4 34 0 34 5 0 6 9 3 21-6 20 38 146 64 184 15 22 17 39 4 30-5-3-11 7-13 22-3 25-4 24-12-12z"/><path d="m2790 3403c-19-59-47-162-67-240-5-21-2-23 29-23 32 0 34 2 35 36 1 21-4 37-12 40-16 7 4 104 35 164 23 44 25 54 10 45-7-4-9 2-4 19 13 54-6 23-26-41z"/><path d="m3076 3324c-4-14-5-28-3-31 3-2 8 8 11 23 4 14 5 28 3 31-3 2-8-8-11-23z"/><path d="m3033 3253c-3-10-8-21-10-25-2-5 0-8 5-8s12 11 14 25c6 29 0 33-9 8z"/><path d="m3237 3230c-3-11-1-20 4-20s9 9 9 20-2 20-4 20-6-9-9-20z"/><path d="m3077 3219c-5-20 0-24 19-11 9 5 8 10-1 19-10 9-14 8-18-8z"/><path d="m3130 3231c0-10 19-25 25-20 1 2-3 10-11 17s-14 8-14 3z"/><path d="m2924 3211c0-11 4-17 8-15 4 3 8 12 8 20s-4 14-8 14-8-9-8-19z"/><path d="m3122 3190c0-14 2-19 5-12 2 6 2 18 0 25-3 6-5 1-5-13z"/><path d="m2598 3183c7-3 16-2 19 1 4 3-2 6-13 5-11 0-14-3-6-6z"/><path d="m2555 3170c-3-6 1-7 9-4 18 7 21 14 7 14-6 0-13-4-16-10z"/><path d="m3960 3519c-12-23-20-43-18-45 3-2 14 17 26 41 27 56 20 60-8 4z"/><path d="m4141 3354c0-11 3-14 6-6 3 7 2 16-1 19-3 4-6-2-5-13z"/><path d="m3821 3314c0-11 3-14 6-6 3 7 2 16-1 19-3 4-6-2-5-13z"/><path d="m3915 3290c4-6 11-8 16-5 14 9 11 15-7 15-8 0-12-5-9-10z"/><path d="m3740 3290c-1-3-4-16-6-30-3-18-2-22 7-13 6 6 9 19 6 29-3 11-6 17-7 14z"/><path d="m2363 3428c-23-30-24-41-2-21 12 12 20 25 17 28s-10 0-15-7z"/><path d="m5300 3605c-29-17-40-43-30-70 10-25 63-85 76-85 5 0 17 28 27 62 16 55 17 62 3 70-9 5-16 16-16 23 0 18-26 18-60 0zm57-31c7-18-16-94-29-94-4 0-8 9-8 19 0 11-4 22-9 25s-11 15-14 26c-4 15 1 24 16 30 32 13 37 12 44-6z"/><path d="m5505 3400c-3-5-2-10 4-10 5 0 13 5 16 10 3 6 2 10-4 10-5 0-13-4-16-10z"/><path d="m5260 3249c0-5 5-7 10-4 6 3 10 8 10 11 0 2-4 4-10 4-5 0-10-5-10-11z"/><path d="m2310 3500c0-5 5-10 11-10 5 0 7 5 4 10-3 6-8 10-11 10-2 0-4-4-4-10z"/><path d="m2376 3323c-6-14-5-15 5-6 7 7 10 15 7 18s-9-2-12-12z"/><path d="m2333 3260c0-18 5-30 14-30 7 0 13 6 13 14s3 23 6 33c5 15 4 16-5 3-9-12-13-12-19-2-6 8-9 2-9-18z"/><path d="m1630 3291c0-5 5-13 10-16 6-3 10-2 10 4 0 5-4 13-10 16-5 3-10 2-10-4z"/><path d="m1766 3101c-3-3 6-8 20-9 13-1 24 2 24 6 0 10-38 13-44 3z"/><path d="m4920 3230c0-5 5-10 11-10 5 0 7 5 4 10-3 6-8 10-11 10-2 0-4-4-4-10z"/><path d="m2226 2865c4-8 8-15 10-15s4 7 4 15-4 15-10 15c-5 0-7-7-4-15z"/><path d="m2274 2862c10-12 23-19 28-16 11 7 11 7-22 24-25 13-25 13-6-8z"/><path d="m2338 2863c7-3 16-2 19 1 4 3-2 6-13 5-11 0-14-3-6-6z"/><path d="m2372 2848c3-7 13-15 23-17 17-3 17-2 3 13-20 19-31 21-26 4z"/><path d="m2428 2853c6-2 18-2 25 0 6 3 1 5-13 5s-19-2-12-5z"/><path d="m2475 2850c3-5 8-10 11-10 2 0 4 5 4 10 0 6-5 10-11 10-5 0-7-4-4-10z"/><path d="m2548 2843c12-2 32-2 45 0 12 2 2 4-23 4s-35-2-22-4z"/><path d="m2621 2824c0-11 3-14 6-6 3 7 2 16-1 19-3 4-6-2-5-13z"/><path d="m2815 2819c-4-6-5-12-2-15 2-3 7 2 10 11 7 17 1 20-8 4z"/><path d="m2868 2823c6-2 18-2 25 0 6 3 1 5-13 5s-19-2-12-5z"/><path d="m2668 2813c7-3 16-2 19 1 4 3-2 6-13 5-11 0-14-3-6-6z"/><path d="m2838 2803c6-2 18-2 25 0 6 3 1 5-13 5s-19-2-12-5z"/><path d="m3828 2683c7-3 16-2 19 1 4 3-2 6-13 5-11 0-14-3-6-6z"/><path d="m3873 2683c9-2 25-2 35 0 9 3 1 5-18 5s-27-2-17-5z"/><path d="m3733 2673c15-2 39-2 55 0 15 2 2 4-28 4s-43-2-27-4z"/><path d="m1570 2980c0-37 4-50 14-50 8 0 18 9 21 20 4 11 15 20 26 20 17 0 19 4 13 23-8 25-27 41-33 26-1-6 5-17 15-24 23-18 14-19-21-3-15 7-24 17-21 25 3 7 1 13-4 13-6 0-10-22-10-50zm40-4c0-2-7-9-15-16-12-10-15-10-15 4 0 9 7 16 15 16s15-2 15-4z"/><path d="m1655 3021c-3-5-1-12 5-16 5-3 10 1 10 9 0 18-6 21-15 7z"/><path d="m1650 2950c0-5 5-10 10-10 6 0 10 5 10 10 0 6-4 10-10 10-5 0-10-4-10-10z"/><path d="m3148 2623c12-2 32-2 45 0 12 2 2 4-23 4s-35-2-22-4z"/><path d="m5253 2393c-15-5-17-23-4-23 5 0 11 7 15 15 3 8 4 15 3 14-1 0-8-3-14-6z"/><path d="m5346 2194c-4-9-4-19-1-22 2-3 7 3 11 12s4 19 1 22c-2 3-7-3-11-12z"/><path d="m3962 2071c4-13 18-16 19-4 0 4-5 9-11 12-7 2-11-2-8-8z"/><path d="m4040 2070c0-5 5-10 10-10 6 0 10 5 10 10 0 6-4 10-10 10-5 0-10-4-10-10z"/><path d="m4165 2060c3-5 8-10 11-10 2 0 4 5 4 10 0 6-5 10-11 10-5 0-7-4-4-10z"/><path d="m4235 2050c-19-8-19-9 2-9 12-1 25 4 28 9 7 12-2 12-30 0z"/><path d="m4157 2009c8-8 16-8 30 0 16 9 14 10-11 11-22 0-27-3-19-11z"/><path d="m4210 2002c0-4 12-8 27-7 21 0 28-5 28-19 0-11 7-22 15-24 12-4 13-2 3 9-11 14-13 19-13 39 0 6-13 10-30 10-16 0-30-4-30-8z"/><path d="m4302 1930c0-14 2-19 5-12 2 6 2 18 0 25-3 6-5 1-5-13z"/><path d="m3940 1923c0-5 5-15 10-23 7-12 9-10 7 8-1 19-17 33-17 15z"/><path d="m4135 1880c-3-5 1-10 10-10s13 5 10 10c-3 6-8 10-10 10s-7-4-10-10z"/><path d="m4171 1854c0-11 3-14 6-6 3 7 2 16-1 19-3 4-6-2-5-13z"/><path d="m3981 1604c0-11 3-14 6-6 3 7 2 16-1 19-3 4-6-2-5-13z"/><path d="m4170 1505c0-9-6-12-15-9-9 4-15 0-15-9 0-8-6-17-12-19-7-3-2-7 10-10 15-4 22-2 22 9 0 8 5 11 10 8 6-4 10 5 10 19s-2 26-5 26-5-7-5-15z"/><path d="m3994 1465c3-22 5-50 6-62 0-13 5-23 11-23 7 0 9 10 4 28-4 15-9 41-12 57-7 46-16 46-9 0z"/><path d="m4220 1460c0-5 5-10 10-10 6 0 10 5 10 10 0 6-4 10-10 10-5 0-10-4-10-10z"/><path d="m4260 1459c0-5 5-7 10-4 6 3 10 8 10 11 0 2-4 4-10 4-5 0-10-5-10-11z"/><path d="m4353 1413c1-18 5-33 10-33 9 0 8 19-3 45-7 16-8 14-7-12z"/><path d="m4270 1406c0-8 4-17 9-20 5-4 7 3 4 14-6 23-13 26-13 6z"/><path d="m4321 1379c-6-18-9-34-7-36s9 10 15 28 9 34 7 36-9-10-15-28z"/><path d="m4340 1366c0-2 7-7 16-10 8-3 12-2 9 4-6 10-25 14-25 6z"/><path d="m5480 1612c0-23 18-39 30-26 4 5-1 18-11 28-19 19-19 19-19-2z"/><path d="m5491 1552c-19-35-14-72 9-72 24 0 26 16 5 37-12 12-13 18-4 29 7 8 9 17 6 20s-10-3-16-14z"/><path d="m5300 1460c0-5 5-10 10-10 6 0 10 5 10 10 0 6-4 10-10 10-5 0-10-4-10-10z"/><path d="m5269 1433c0-16-2-36-4-45-2-10 1-18 6-18s9 20 9 45c0 48-9 64-11 18z"/><path d="m5418 1453c7-3 16-2 19 1 4 3-2 6-13 5-11 0-14-3-6-6z"/><path d="m5375 1430c4-6 11-8 16-5 14 9 11 15-7 15-8 0-12-5-9-10z"/><path d="m5307 1393c-10-9-9-23 2-23 5 0 11 7 15 15 5 15-5 20-17 8z"/><path d="m5376 1375c-3-8-1-15 4-15 6 0 10 7 10 15s-2 15-4 15-6-7-10-15z"/><path d="m5410 1366c0-9 30-14 35-6 4 6-3 10-14 10-12 0-21-2-21-4z"/><path d="m5330 1276c0-2 8-10 18-17 15-13 16-12 3 4s-21 21-21 13z"/><path d="m5285 1030c3-5 8-10 11-10 2 0 4 5 4 10 0 6-5 10-11 10-5 0-7-4-4-10z"/><path d="m2568 1655c-10-11 5-55 19-55 11 0 11 4 3 20-9 17-8 19 7 13 16-6 16-5 4 10-14 17-24 21-33 12z"/><path d="m2656 1597c3-10 9-15 12-12s0 11-7 18c-10 9-11 8-5-6z"/><path d="m2932 1500c0-14 2-19 5-12 2 6 2 18 0 25-3 6-5 1-5-13z"/><path d="m3325 1251c-6-11 9-23 19-14 9 9 7 23-3 23-6 0-12-4-16-9z"/><path d="m2735 1480c-3-5-1-18 4-27 9-15 10-14 9 10-3 30-4 32-13 17z"/><path d="m3148 1043c7-3 16-2 19 1 4 3-2 6-13 5-11 0-14-3-6-6z"/><path d="m5503 4423c-22-8-14-24 17-34 24-9 30-17 30-39 0-23-5-29-31-34-17-3-44-6-60-6-26 0-29 3-29 35 0 28 5 38 25 47 14 6 25 15 25 20s-8 4-19-1c-10-6-22-7-26-3-5 4-5 2-1-5 3-6 2-14-3-18-6-3-13-27-17-53-3-26-16-57-27-69-11-13-16-23-10-23 13 0 43 33 43 48 0 7 16 12 39 12 76 0 99 10 107 43 5 26 2 35-19 53-17 15-22 24-14 27 8 4 7 5-3 5-8 0-21-2-27-5z"/><path d="m4160 4397c0-3 15-10 32-16 18-6 28-7 23-2-12 10-55 25-55 18z"/><path d="m4520 4339c0-14 29-43 36-36 8 7-15 47-26 47-6 0-10-5-10-11z"/><path d="m4149 4302c-4-11-79-19-94-10-13 8-65 7-65-1 0-12 15-26 28-27 44-4 47-5 25-14-26-11-30-32-8-50 8-7 16-27 16-44l2-31 6 35c4 19 12 34 18 33 7-2 14 5 17 15 5 14 14 17 40 14 21-2 44 2 58 12 12 9 27 16 32 16 6 0 0-7-13-16-18-13-20-18-10-25 8-5 9-9 3-9-13 0-18-100-5-119 5-8 6-24 1-37-8-20-5-22 31-26 26-2 39 1 39 8s3 21 6 31c6 15 4 16-7 6-18-18-29-16-29 5 0 12 3 13 8 5 5-9 11-6 21 9 12 19 11 20-6 14-14-6-15-4-6 5 6 6 9 18 6 27-5 11-3 13 8 7 12-7 12-6-1 9-17 21-23 53-11 60 4 3 7-6 5-19-1-14 2-23 7-19 12 7 12 41 0 48-5 3-7 15-4 25 6 25-38 55-72 49-16-4-29 0-34 10-5 8-10 10-12 4zm-52-38c-3-3-12-4-19-1-8 3-5 6 6 6 11 1 17-2 13-5zm113-3c0-8-90-3-99 5-2 2 19 4 47 4 29 0 52-4 52-9zm17-223c-3-8-6-5-6 6-1 11 2 17 5 13 3-3 4-12 1-19z"/><path d="m5280 4280c0-5 5-10 10-10 6 0 10 5 10 10 0 6-4 10-10 10-5 0-10-4-10-10z"/><path d="m5256 4264c-8-21-4-25 14-14 11 7 12 12 4 20s-13 7-18-6z"/><path d="m5531 4231c-12-8-12-11 1-25 9-8 17-13 19-11s5-24 7-57c3-46-1-67-17-94-12-19-21-37-21-39 0-10 60 18 75 35 19 20 35 137 17 127-6-5-8 0-5 12s-5 26-23 40c-30 24-33 24-53 12z"/><path d="m4373 4160c0-25 2-35 4-22 2 12 2 32 0 45-2 12-4 2-4-23z"/><path d="m3432 4165c0-16 2-22 5-12 2 9 2 23 0 30-3 6-5-1-5-18z"/><path d="m4032 4170c0-14 2-19 5-12 2 6 2 18 0 25-3 6-5 1-5-13z"/><path d="m5691 4174c0-11 3-14 6-6 3 7 2 16-1 19-3 4-6-2-5-13z"/><path d="m4419 4178c0-2-2-10-4-18s-7-25-11-37c-4-16-2-23 7-23 8 0 5-6-7-14-15-12-16-17-7-27 10-10 18-10 37 1 22 11 23 14 10 27-11 11-12 19-4 28 7 9 7 21 0 39-8 22-18 33-21 24z"/><path d="m3253 4143c9-2 23-2 30 0 6 3-1 5-18 5-16 0-22-2-12-5z"/><path d="m2965 4130c-8-13 5-13 25 0 13 8 13 10-2 10-9 0-20-4-23-10z"/><path d="m2930 4120c-9-6-10-10-3-10 6 0 15 5 18 10 8 12 4 12-15 0z"/><path d="m3355 4120c-18-8-17-9 8-9 16-1 26 3 22 9-3 6-7 10-8 9-1 0-11-4-22-9z"/><path d="m4042 4095c0-16 2-22 5-12 2 9 2 23 0 30-3 6-5-1-5-18z"/><path d="m2896 4093c-6-14-5-15 5-6 7 7 10 15 7 18s-9-2-12-12z"/><path d="m2792 4041c-10-6-7-10 12-13 21-4 24-3 15 8-13 16-11 16-27 5z"/><path d="m4033 4036c9-7 17-24 16-37l-1-24-8 25c-7 22-8 22-9 4-1-11-4-24-8-27-11-11-13-88-2-81 5 3 6 11 3 17-5 8-3 8 7 0 16-16 33-17 24-2-4 6 2 17 14 25s21 20 21 26c0 7-6 3-14-8-20-27-26-16-19 36 6 39 8 42 14 20 7-23 7-24 8-3 1 22-25 43-51 43-9-1-7-5 5-14z"/><path d="m5500 4029c0-5 5-7 10-4 6 3 10 8 10 11 0 2-4 4-10 4-5 0-10-5-10-11z"/><path d="m3411 4004c0-11 3-14 6-6 3 7 2 16-1 19-3 4-6-2-5-13z"/><path d="m4323 4013c9-2 25-2 35 0 9 3 1 5-18 5s-27-2-17-5z"/><path d="m4413 4013c15-2 39-2 55 0 15 2 2 4-28 4s-43-2-27-4z"/><path d="m4275 4000c-3-5 1-10 9-10 9 0 16 5 16 10 0 6-4 10-9 10-6 0-13-4-16-10z"/><path d="m4315 3940c-3-5-1-10 4-10 6 0 11 5 11 10 0 6-2 10-4 10-3 0-8-4-11-10z"/><path d="m3412 3910c0-19 2-27 5-17 2 9 2 25 0 35-3 9-5 1-5-18z"/><path d="m1553 3923c9-2 23-2 30 0 6 3-1 5-18 5-16 0-22-2-12-5z"/><path d="m1440 3910c-20-6-21-8-5-8 11-1 38 3 60 7l40 9h-35c-19 0-46-4-60-8z"/><path d="m970 3891c-70-19-117-40-89-41 20 0 141 40 154 51 11 11 13 11-65-10z"/><path d="m1315 3889c-20-5-9-6 30-2 33 3 62 7 64 9 8 7-63 2-94-7z"/><path d="m1223 3873c9-2 25-2 35 0 9 3 1 5-18 5s-27-2-17-5z"/><path d="m1158 3863c7-3 16-2 19 1 4 3-2 6-13 5-11 0-14-3-6-6z"/><path d="m1088 3853c12-2 30-2 40 0 9 3-1 5-23 4-22 0-30-2-17-4z"/><path d="m998 3843c12-2 32-2 45 0 12 2 2 4-23 4s-35-2-22-4z"/><path d="m860 3829c-23-5-10-5 35-2 39 3 72 7 74 9 7 7-72 2-109-7z"/><path d="m3945 3829c-11-16-1-19 13-3 7 8 8 14 3 14s-13-5-16-11z"/><path d="m778 3813c6-2 18-2 25 0 6 3 1 5-13 5s-19-2-12-5z"/><path d="m2958 3813c6-2 18-2 25 0 6 3 1 5-13 5s-19-2-12-5z"/><path d="m698 3803c7-3 16-2 19 1 4 3-2 6-13 5-11 0-14-3-6-6z"/><path d="m933 3739c-94-9-113-17-144-61-26-36-25-28-20-423l3-200-61-3-61-3v45c0 26 5 46 13 49 10 4 10 6 0 6-7 1-13 8-13 17 0 10 5 14 16 10 8-3 13-2 9 3-3 5 1 12 7 14 7 3 4 6-8 6-17 1-21 7-20 31 1 19 6 30 16 31 10 0 8 3-5 9-20 9-20 9 0 9 14 1 21 8 21 20 0 16-3 18-15 8s-14-9-8 7c5 12 3 23-5 28-10 6-9 8 4 8 9 0 24-7 33-16 27-27 26-10-1 19-19 21-23 31-15 45 7 13 6 23-2 32-10 12-9 12 5 1 10-7 15-17 12-22s0-9 5-9c6 0 11 8 12 18 0 10 3 12 6 4 2-6 9-10 14-6 5 3 9 1 9-4s-15-14-32-20c-18-7-23-10-10-8 16 3 22-1 22-15 0-10 7-19 15-19s15 5 15 10c0 6-4 10-10 10-5 0-10 5-10 11 0 5 4 8 8 5 4-2 9 6 10 20 1 13-3 24-8 24-6 0-10 10-10 23 0 18 2 19 10 7 7-11 10-2 10 31 0 44-1 46-27 46-27 0-27 0-5-10 25-11 27-24 8-50-10-12-15-14-18-6-5 15-81 14-106-1-10-5-12-10-4-10 6 0 12-7 12-16s-5-12-11-8c-17 10-5-192 13-236 11-24 14-55 11-96l-5-61-77-7c-42-3-78-11-79-16-2-6-8-8-13-4-6 3-8-194-7-503l3-508 50-6c28-4 117-10 198-14 82-4 145-11 140-16-4-4-62-4-128 1-255 19-261 19-242 9 9-6 17-16 17-24s5-17 12-21 8-3 4 4c-5 8 0 12 13 12 12 0 21-6 21-12 1-9 5-8 13 2 11 15 31 16 67 4 13-4 13-6 0-14s-12-10 3-10c9 0 17 5 17 10 0 13 131 11 148-2 8-7 12-7 12 0 0 6 6 9 14 6s25 1 38 9c28 18 88 32 88 20 0-4 19-7 42-5 24 2 60 5 81 6 38 3 65 16 34 16-10 0-17 6-17 13 0 9-2 9-8 0-5-8-18-10-32-7s-33 6-43 6c-9-1-15 3-12 9 4 5 13 9 20 9 8 0 12 6 9 14-4 9 3 16 18 19 14 3 5 5-22 7l-45 3 45 6c32 4 46 11 48 24 3 14-5 17-55 19-32 1-67 1-78 0-11 0-27 2-35 5-8 4-17 6-20 5-3 0-6 33-7 74-2 56 1 73 10 67 8-4 8-2-1 9-12 15-13 35-11 148 1 49 2 49 19 40 21-11 34-1 20 16-7 7-27 10-54 7l-43-4-6 58c-3 32-6 133-7 226-1 148 1 167 15 167 13 0 15-6 10-30-5-22-3-30 7-30s9-3-2-10c-9-6-10-10-3-10 6 0 11-9 10-20s-5-20-9-20-8-5-8-11c0-5 3-8 8-6 8 5 7-87-2-108-2-7 5-32 16-55 18-36 20-48 10-88-11-48-8-63 7-46 5 5 10 50 11 99 2 111 2 114-10 95-8-12-10-9-10 13 0 29 17 37 26 12 4-8 13-15 21-15 12 0 12 2-1 16-20 19-20 24 0 24 9 0 12-5 8-12s-3-8 4-4c24 14 13 33-17 28-16-2-32 1-36 7-3 6-1 10 6 9 6-2 14 3 17 11 3 10 0 12-12 8-9-4-16-2-16 3 0 6 6 10 14 10 17 0 14 34-6 58-8 10-9 13-1 9 11-7 11 2 4 73-1 10-12 15-36 15-19 0-35-3-35-7 0-5-6-8-12-8-10 0-12-49-10-222 2-195 5-223 20-235 16-13 16-13 0-11-9 2-17-1-17-7 0-5 17-9 37-8l37 2-30-14c-20-10-22-13-7-9s22 1 20-8c-2-7 4-12 12-10 12 3 13 1 3-9-7-7-13-24-13-37 0-20 3-22 14-13s12 6 8-16c-3-16-10-31-16-35-8-6-8-8 0-8 14 0 25-38 14-45-9-6-7-51 4-76 4-10 7-23 5-30-3-27 3-124 8-108 2 11 13 16 29 15 15 0 22-6 19-13-2-7 1-12 8-10 7 1 11-4 9-11-1-8 2-11 7-8 5 4 12 2 16-4 3-5-3-10-14-10-12 0-21 5-21 10 0 6-8 10-17 10-16 0-16-2-3-11 11-8-13-9-85-5-55 3-155 9-222 13l-123 6v494c0 271 3 493 8 493 4 0 87 3 185 7 133 4 177 3 177-6 0-6 12-29 26-51 16-24 24-48 21-60s0-20 8-20 12 11 11 30c-1 17 2 36 7 43 6 8 7 7 3-5-7-22 12-24 20-3 4 9 13 13 24 10 9-3 23 1 30 10 14 17 40 20 40 5 0-5-6-10-12-10-9 0-13-20-11-70l1-70-46-14c-26-7-48-9-50-5-7 18-20 8-25-18-4-22-3-25 6-13 7 8 17 16 22 16 6 1 29 5 53 9l42 7v-153c0-133 2-153 18-165 16-13 16-13-1-14-11 0-17-5-14-12 2-7 11-11 18-9 25 6 34 6 37-1 18-47 28-85 25-95-3-7 0-13 6-13 5 0 11 26 13 58 3 53 5 57 29 60 21 2 26 7 22 23-6 20-25 28-20 8 1-6-6-13-15-14-11-2-18 3-18 13 0 8-3 12-7 9-3-4-13 1-21 11-9 11-9 8 2-10 16-27 16-28-5-25-26 4-37 29-34 74 2 18-1 30-6 27-15-9-10 6 6 23 9 8 13 18 10 21-3 4-10 0-15-8-8-13-10-12-10 3 0 9 5 17 11 17s9 7 5 15c-3 8-2 15 3 15 4 0 7 12 5 28-2 17-1 19 3 7 3-11 10-23 16-27s13-37 15-75c6-102 22-102 22 1 0 62-3 85-11 80-7-4-10-1-7 7s11 14 18 14 15 6 18 14 0 11-7 7c-8-5-11 15-11 71 0 54-3 73-10 63-8-12-10-10-10 8 0 13 4 21 9 18s11 13 12 37c4 39 2 43-19 45-35 3-39 7-34 46 4 31 9 36 46 48l41 13 1 100v100l-3-90c-2-49-7-93-11-97s-6 138-4 315c1 177 0 332-3 345-6 25-22 26-172 11zm54-161c46-51 55-84 51-193l-3-104-40-35c-49-43-95-55-130-32-22 14-25 24-25 74 0 31 12 112 27 179 29 127 29 127 84 132 8 0 25-9 36-21zm-281-135c-6-6-36 9-36 18 0 5 9 4 20-3 10-7 18-14 16-15zm358-382c4-5-3-7-14-4-23 6-26 13-6 13 8 0 17-4 20-9zm-44-10c0-6-46-11-102-14-57-2-116-7-133-11-16-4-26-4-22 1 24 24 257 45 257 24zm-275-26c6-2-42-3-105-3-77 1-99 3-65 7 48 6 149 3 170-4zm165-15c0-5-2-10-4-10-3 0-8 5-11 10-3 6-1 10 4 10 6 0 11-4 11-10zm100-2c0-4-7-8-15-8s-15 4-15 8c0 5 7 9 15 9s15-4 15-9zm34-83c-4-8-12-15-20-15-10 0-14-13-14-46 0-39 2-45 14-35 8 7 17 8 20 3s-4-16-16-26c-17-15-19-25-14-64 3-26 2-53-2-59-4-7-9 39-11 101-1 81 2 120 11 135 15 24 40 29 32 6zm19-149c3-8 3-17 0-20-10-10-33-7-33 5 0 5 4 7 10 4s7 1 4 9c-3 9-2 16 4 16 5 0 12-6 15-14zm5-65c3-8-1-12-9-9-7 2-15 10-17 17-3 8 1 12 9 9 7-2 15-10 17-17zm-228-331c0-5-5-10-11-10-5 0-7 5-4 10 3 6 8 10 11 10 2 0 4-4 4-10zm47-316c-3-3-12-4-19-1-8 3-5 6 6 6 11 1 17-2 13-5zm58-4c-3-5-14-10-23-10-15 0-15 2-2 10 20 13 33 13 25 0zm20-40c3-5 1-10-4-10-6 0-11 5-11 10 0 6 2 10 4 10 3 0 8-4 11-10z"/><path d="m1123 3445c1-172 1-178 6-65 3 69 3 154 0 190s-6-20-6-125z"/><path d="m1384 3621c3-5-16-12-42-15-26-4-64-9-85-12-33-5-36-4-31 13 5 15 4 15-5 3-14-19-6-382 9-409 6-13 17-17 31-14 17 5 20 11 15 37-4 19-3 27 3 21 5-6 11-19 13-29 5-30 22-29 41 3 10 17 28 31 44 34 33 6 44 0 23-13-8-5-11-12-7-16 22-22 29 23 27 178-3 199-3 198-12 198-4 0-5 7-2 15 4 10 0 15-11 15-9 0-14-4-11-9z"/><path d="m690 3609c0-5 5-7 10-4 6 3 10 8 10 11 0 2-4 4-10 4-5 0-10-5-10-11z"/><path d="m640 3563c0-25 0-26 20-8 21 19 27 30 10 20-5-3-10-1-10 4 0 6-4 11-10 11-5 0-10-12-10-27z"/><path d="m1146 3574c-8-20 0-32 14-18 5 5 5 15 1 22-6 11-10 10-15-4z"/><path d="m726 3562c-3-5 1-9 9-9s12 4 9 9c-3 4-7 8-9 8s-6-4-9-8z"/><path d="m660 3541c0-5-6-11-14-13s-11-10-7-20c5-14 8-13 24 7 10 15 13 26 7 30-5 3-10 2-10-4z"/><path d="m1150 3530c0-5 5-10 10-10 6 0 10 5 10 10 0 6-4 10-10 10-5 0-10-4-10-10z"/><path d="m1187 3533c-2-5-1-19 4-33 7-23 7-23 8 8s-3 40-12 25z"/><path d="m676 3511c-4-5 3-7 14-4 23 6 26 13 6 13-8 0-17-4-20-9z"/><path d="m601 3496c-10-12-8-13 8-9 12 3 18 9 15 14-7 12-10 11-23-5z"/><path d="m1193 3375c0-33 2-45 4-27s2 45 0 60-4 0-4-33z"/><path d="m704 3283c-1-16 1-22 3-14 5 11 7 11 14 0 5-8 9-9 9-3 0 5-6 18-12 27-12 15-13 14-14-10z"/><path d="m1185 3300c-3-5-1-10 4-10 6 0 11 5 11 10 0 6-2 10-4 10-3 0-8-4-11-10z"/><path d="m730 3239c0-5 5-7 10-4 6 3 10 8 10 11 0 2-4 4-10 4-5 0-10-5-10-11z"/><path d="m1193 3224c0-16-3-49-6-73-4-28-3-41 3-35 14 14 23 101 12 121-8 13-10 11-9-13z"/><path d="m695 3231c-7-12 2-31 15-31 9 0 8 26-2 35-3 4-9 2-13-4z"/><path d="m1357 3233c-4-3-7-11-7-17s5-5 12 2c6 6 9 14 7 17-3 3-9 2-12-2z"/><path d="m740 3174c0-8 5-12 10-9 6 4 8 11 5 16-9 14-15 11-15-7z"/><path d="m1155 3180c-3-5-1-10 4-10 6 0 11 5 11 10 0 6-2 10-4 10-3 0-8-4-11-10z"/><path d="m1325 3170c-3-6 1-7 9-4 18 7 21 14 7 14-6 0-13-4-16-10z"/><path d="m730 3124c0-8 5-12 10-9 6 4 8 11 5 16-9 14-15 11-15-7z"/><path d="m751 3074c0-11 3-14 6-6 3 7 2 16-1 19-3 4-6-2-5-13z"/><path d="m1071 2974c0-11 3-14 6-6 3 7 2 16-1 19-3 4-6-2-5-13z"/><path d="m1310 2957c0-14-10-17-64-17h-65l-3-95c-2-53 0-108 4-123 7-27 8-27 93-26 54 1 85-3 85-9s7-2 15 9c11 14 14 49 15 137v117h-28c-15 0-33 5-40 12-9 9-12 8-12-5zm-83-43c-3-3-12-4-19-1-8 3-5 6 6 6 11 1 17-2 13-5zm60 0c-3-3-12-4-19-1-8 3-5 6 6 6 11 1 17-2 13-5zm-12-112c-3-3-11 0-18 7-9 10-8 11 6 5 10-3 15-9 12-12zm-35-72c0-5-4-10-10-10-5 0-10 5-10 10 0 6 5 10 10 10 6 0 10-4 10-10zm113 3c-13-2-35-2-50 0-16 2-5 4 22 4 28 0 40-2 28-4z"/><path d="m1450 2940c0-5 4-10 9-10 6 0 13 5 16 10 3 6-1 10-9 10-9 0-16-4-16-10z"/><path d="m1455 2870c3-5 8-10 11-10 2 0 4 5 4 10 0 6-5 10-11 10-5 0-7-4-4-10z"/><path d="m870 2841c0-19 26-48 36-39 7 7-17 58-28 58-4 0-8-8-8-19z"/><path d="m938 2813c7-3 16-2 19 1 4 3-2 6-13 5-11 0-14-3-6-6z"/><path d="m1125 2751c-3-5-2-12 3-15s9 1 9 9c0 17-3 19-12 6z"/><path d="m876 2672c-6-10 1-102 8-110 6-6 10 55 6 73-2 6-3 18-4 28 0 19-2 21-10 9z"/><path d="m1110 2676c0-2 7-7 16-10 8-3 12-2 9 4-6 10-25 14-25 6z"/><path d="m1240 2604c-16-41-11-94 12-135 25-45 41-49 64-14 25 38 29 106 9 145-10 19-20 28-24 22-4-7-12-8-21-2-23 15-30 12-40-16zm61-137c-10-9-11-8-5 6 3 10 9 15 12 12s0-11-7-18z"/><path d="m1133 2535c0-22 2-30 4-17 2 12 2 30 0 40-3 9-5-1-4-23z"/><path d="m6305 2450c-3-6 1-7 9-4 18 7 21 14 7 14-6 0-13-4-16-10z"/><path d="m6269 2423c-13-16-12-17 4-4s21 21 13 21c-2 0-10-8-17-17z"/><path d="m6308 2375c-3-14-1-28 3-31 5-3 9 0 9 6s5 8 11 5c7-5 5-11-4-18-10-8-12-18-7-32l9-20 1 20c1 16 4 13 18-13 14-25 20-30 30-20 23 23 11 78-17 78-14 0-14 2-1 10 12 7 12 12 2 22s-15 10-22-2c-8-13-10-12-10 3 0 26-17 20-22-8z"/><path d="m768 2363c7-3 16-2 19 1 4 3-2 6-13 5-11 0-14-3-6-6z"/><path d="m760 2341c0-6 5-13 10-16 6-3 10 1 10 9 0 9-4 16-10 16-5 0-10-4-10-9z"/><path d="m1060 2290c0-5 7-7 15-4 8 4 15 8 15 10s-7 4-15 4-15-4-15-10z"/><path d="m1077 2218c7-72 13-74 13-5 0 32-4 57-9 57s-7-24-4-52z"/><path d="m874 2235c-3-8-4-20-2-27 3-7 7-1 10 15 6 29 1 36-8 12z"/><path d="m6356 2233c-6-14-5-15 5-6 7 7 10 15 7 18s-9-2-12-12z"/><path d="m6440 2181c-5-11-17-27-26-35-8-9-12-16-7-16 15 0 28 15 40 43 14 31 9 37-7 8z"/><path d="m810 2161c0-6 4-13 10-16s7 1 4 9c-7 18-14 21-14 7z"/><path d="m721 2124c0-11 3-14 6-6 3 7 2 16-1 19-3 4-6-2-5-13z"/><path d="m1079 2093c0-21-2-48-3-61-2-13 1-25 6-28 4-3 8 24 8 60 0 69-9 93-11 29z"/><path d="m687 2100c3-11 9-20 14-20s9 9 9 20-6 20-14 20c-9 0-12-7-9-20z"/><path d="m1025 2020c3-5 8-10 11-10 2 0 4 5 4 10 0 6-5 10-11 10-5 0-7-4-4-10z"/><path d="m6496 1969c-3-17-2-38 3-48 7-13 5-20-10-29-23-15-24-25-2-58 23-36 33-15 33 78 0 79-13 111-24 57zm6-121c-7-7-12-8-12-2 0 14 12 26 19 19 2-3-1-11-7-17z"/><path d="m1125 1980c-19-8-19-9 3-9 12-1 22 4 22 9 0 6-1 10-2 9-2 0-12-4-23-9z"/><path d="m568 1923c7-3 16-2 19 1 4 3-2 6-13 5-11 0-14-3-6-6z"/><path d="m663 1913c15-2 39-2 55 0 15 2 2 4-28 4s-43-2-27-4z"/><path d="m5738 1913c7-3 16-2 19 1 4 3-2 6-13 5-11 0-14-3-6-6z"/><path d="m5540 1899c0-5 5-7 10-4 6 3 10 8 10 11 0 2-4 4-10 4-5 0-10-5-10-11z"/><path d="m5360 1883c11-24 30-31 30-11 0 6-3 8-7 5-3-4-12 1-20 11-13 15-13 15-3-5z"/><path d="m530 1879c0-5 5-7 10-4 6 3 10 8 10 11 0 2-4 4-10 4-5 0-10-5-10-11z"/><path d="m5476 1821c-4-7-5-15-2-18 9-9 19 4 14 18-4 11-6 11-12 0z"/><path d="m6154 1814c3-9 6-17 6-20 0-2 7-1 15 2 12 5 13 10 4 20-16 19-33 18-25-2z"/><path d="m5438 1813c7-3 16-2 19 1 4 3-2 6-13 5-11 0-14-3-6-6z"/><path d="m5474 1758c-4-7-3-8 5-4 6 4 19 2 27-5 8-6 18-9 21-5 8 8-15 26-34 26-6 0-15-5-19-12z"/><path d="m822 1735c0-16 2-22 5-12 2 9 2 23 0 30-3 6-5-1-5-18z"/><path d="m6150 1736c0-9 7-19 15-23 25-9 27 2 5 22-18 17-20 17-20 1z"/><path d="m823 1660c0-25 2-35 4-22 2 12 2 32 0 45-2 12-4 2-4-23z"/><path d="m1054 1632c0-32 1-46 4-32 4 23 5 23 12 6 6-19 7-19 12 2 4 12 1 28-6 35s-11 17-9 24c2 6 0 13-4 16s-8-20-9-51z"/><path d="m6150 1635c0-9 9-15 21-15 18 0 19 2 9 15-7 8-16 15-21 15s-9-7-9-15z"/><path d="m5938 1588c5-5 16-8 23-6 8 3 3 7-10 11-17 4-21 3-13-5z"/><path d="m5889 1563c-1-16 0-32 1-38 1-5-11 1-26 15l-28 25 23-33c26-37 55-55 94-57 32-2 32-2 8 33-10 15-26 39-35 55-9 15-21 27-26 27-6 0-11-12-11-27z"/><path d="m603 1573c9-2 23-2 30 0 6 3-1 5-18 5-16 0-22-2-12-5z"/><path d="m1080 1565c0-8-4-15-10-15-5 0-10 5-10 10 0 15-12 12-40-10l-25-20h53c49 0 52 1 52 25 0 14-4 25-10 25-5 0-10-7-10-15z"/><path d="m5710 1542c0-23 4-42 10-42s7 15 4 38c-8 51-14 53-14 4z"/><path d="m683 1563c9-2 23-2 30 0 6 3-1 5-18 5-16 0-22-2-12-5z"/><path d="m5963 1563c-10-3-9-11 2-34 9-16 17-29 18-29 2 0 1 16-1 35s-5 35-6 34c0 0-7-3-13-6z"/><path d="m761 1556c2-2 20-6 39-10 25-4 31-3 20 4-14 9-69 15-59 6z"/><path d="m896 1528c3-4 15-8 26-8 12 0 18 3 14 7-10 10-46 11-40 1z"/><path d="m6085 1530c-3-5-1-10 4-10 6 0 11 5 11 10 0 6-2 10-4 10-3 0-8-4-11-10z"/><path d="m1840 1232c0-5 7-15 15-22s15-8 15-2c0 5-7 15-15 22s-15 8-15 2z"/><path d="m5328 763c6-2 18-2 25 0 6 3 1 5-13 5s-19-2-12-5z"/><path d="m7058 403c6-2 18-2 25 0 6 3 1 5-13 5s-19-2-12-5z"/><path d="m7123 393c9-2 23-2 30 0 6 3-1 5-18 5-16 0-22-2-12-5z"/></g></svg>